;Layer: Drill PTH
;EasyEDA v6.3.22, 2020-01-04T19:44:14+01:00
;f50fd1600d684b49919d2234b325bca6,43c3eb671339413baca6572c6aa340f4,10
;Gerber Generator version 0.2
M48
METRIC,LZ,000.000
;Holesize 1 = 0.400 METRIC
T01C0.400
;Holesize 2 = 0.405 METRIC
T02C0.405
%
G05
G90
T01
X+007850Y+089000
X+014750Y+089000
X+021750Y+089000
X+028650Y+089000
X+035650Y+089000
X+042650Y+089000
X+049650Y+089000
X+056550Y+089000
X+063550Y+089000
X+070449Y+089000
X+077450Y+089000
X+084450Y+089000
X+091350Y+089000
X+091350Y+079500
X+084450Y+079500
X+077450Y+079500
X+070450Y+079500
X+063550Y+079500
X+056550Y+079500
X+049650Y+079500
X+042650Y+079500
X+035650Y+079500
X+028650Y+079500
X+021750Y+079500
X+014750Y+079500
X+007850Y+079500
X+007850Y+070099
X+014750Y+070099
X+021750Y+070099
X+028650Y+070099
X+007850Y+060600
X+014750Y+060600
X+021750Y+060600
X+028650Y+060600
X+007850Y+051100
X+014750Y+051100
X+021750Y+051100
X+028650Y+051100
X+007850Y+041599
X+014750Y+041599
X+021750Y+041599
X+028650Y+041599
X+007850Y+032100
X+014750Y+032100
X+021750Y+032100
X+028650Y+032100
X+007850Y+022599
X+014750Y+022599
X+021750Y+022599
X+028650Y+022599
X+007850Y+013199
X+014750Y+013199
X+021750Y+013199
X+028650Y+013199
X+007850Y+003700
X+014750Y+003700
X+021750Y+003700
X+028650Y+003700
X+035650Y+070099
X+042550Y+070099
X+049550Y+070099
X+056449Y+070099
X+035650Y+060600
X+042550Y+060600
X+049550Y+060600
X+056449Y+060600
X+035650Y+051100
X+042550Y+051100
X+049550Y+051100
X+056449Y+051100
X+035650Y+041599
X+042550Y+041599
X+049550Y+041599
X+056449Y+041599
X+035650Y+032100
X+042550Y+032100
X+049550Y+032100
X+056449Y+032100
X+035650Y+022599
X+042550Y+022599
X+049550Y+022599
X+056449Y+022599
X+035650Y+013199
X+042550Y+013199
X+049550Y+013199
X+056449Y+013199
X+035650Y+003700
X+042550Y+003700
X+049550Y+003700
X+056449Y+003700
X+063550Y+070099
X+070450Y+070099
X+077450Y+070099
X+084350Y+070099
X+063550Y+060600
X+070450Y+060600
X+077450Y+060600
X+084350Y+060600
X+063550Y+051100
X+070450Y+051100
X+077450Y+051100
X+084350Y+051100
X+063550Y+041599
X+070450Y+041599
X+077450Y+041599
X+084350Y+041599
X+063550Y+032100
X+070450Y+032100
X+077450Y+032100
X+084350Y+032100
X+063550Y+022599
X+070450Y+022599
X+077450Y+022599
X+084350Y+022599
X+063550Y+013199
X+070450Y+013199
X+077450Y+013199
X+084350Y+013199
X+063550Y+003700
X+070450Y+003700
X+077450Y+003700
X+084350Y+003700
X+091350Y+070099
X+091350Y+051100
X+091350Y+041599
X+091350Y+032100
X+091350Y+022599
X+091350Y+013199
X+091350Y+003700
X+091350Y+060600
X+098050Y+089000
X+098025Y+079500
X+098025Y+070099
X+098025Y+060599
X+098025Y+051100
X+098025Y+041599
X+098025Y+032099
X+098025Y+022599
X+098025Y+013199
X+098025Y+003699
X+095849Y+093600
X+007850Y+086600
X+002750Y+085000
X+096650Y+092700
X+002750Y+075399
X+095891Y+084050
X+096650Y+083099
X+007850Y+077105
X+002750Y+065900
X+095891Y+074550
X+096650Y+073600
X+007850Y+067600
X+002750Y+056399
X+095791Y+065050
X+096650Y+064099
X+007850Y+058200
X+002750Y+046899
X+095891Y+055650
X+096650Y+054599
X+007850Y+048699
X+002750Y+037500
X+095891Y+046150
X+096650Y+045200
X+007850Y+039200
X+095891Y+036650
X+096650Y+035700
X+007850Y+029799
X+002750Y+028000
X+095891Y+027250
X+096650Y+026200
X+007850Y+020298
X+002750Y+018500
X+095891Y+017750
X+096650Y+016700
X+007850Y+010799
X+002750Y+009000
X+004450Y+098300
X+006249Y+098300
X+002450Y+098300
X+003450Y+098300
X+005350Y+098300
X+005949Y+094499
X+053050Y+028100
X+049550Y+030800
X+057050Y+030900
X+056450Y+028100
T02
X+004350Y+092900
X+004350Y+083399
X+004350Y+074099
X+004350Y+064500
X+004350Y+054999
X+004350Y+045500
X+004350Y+035999
X+004350Y+026500
X+004350Y+017100
X+004350Y+007599
M30
