G04 Layer: TopPasteMaskLayer*
G04 EasyEDA v6.3.22, 2020-01-04T19:44:14+01:00*
G04 f50fd1600d684b49919d2234b325bca6,43c3eb671339413baca6572c6aa340f4,10*
G04 Gerber Generator version 0.2*
G04 Scale: 100 percent, Rotated: No, Reflected: No *
G04 Dimensions in millimeters *
G04 leading zeros omitted , absolute positions ,3 integer and 3 decimal *
%FSLAX33Y33*%
%MOMM*%
G90*
G71D02*

%ADD16R,0.999998X1.599997*%
%ADD17R,0.599948X0.649986*%

%LPD*%
G54D16*
G01X5950Y91049D03*
G01X4350Y91049D03*
G01X2750Y91049D03*
G01X2750Y96049D03*
G01X4350Y96049D03*
G01X5950Y96049D03*
G01X96456Y91049D03*
G01X94855Y91049D03*
G01X93256Y91049D03*
G01X93256Y96049D03*
G01X94855Y96049D03*
G01X96456Y96049D03*
G01X89494Y91049D03*
G01X87893Y91049D03*
G01X86293Y91049D03*
G01X86293Y96049D03*
G01X87893Y96049D03*
G01X89494Y96049D03*
G01X82532Y91049D03*
G01X80931Y91049D03*
G01X79332Y91049D03*
G01X79332Y96049D03*
G01X80931Y96049D03*
G01X82532Y96049D03*
G01X75570Y91049D03*
G01X73969Y91049D03*
G01X72369Y91049D03*
G01X72369Y96049D03*
G01X73969Y96049D03*
G01X75570Y96049D03*
G01X68608Y91049D03*
G01X67007Y91049D03*
G01X65408Y91049D03*
G01X65408Y96049D03*
G01X67007Y96049D03*
G01X68608Y96049D03*
G01X61646Y91049D03*
G01X60045Y91049D03*
G01X58445Y91049D03*
G01X58445Y96049D03*
G01X60045Y96049D03*
G01X61646Y96049D03*
G01X54684Y91049D03*
G01X53083Y91049D03*
G01X51484Y91049D03*
G01X51484Y96049D03*
G01X53083Y96049D03*
G01X54684Y96049D03*
G01X19874Y91049D03*
G01X18273Y91049D03*
G01X16674Y91049D03*
G01X16674Y96049D03*
G01X18273Y96049D03*
G01X19874Y96049D03*
G01X12912Y91049D03*
G01X11311Y91049D03*
G01X9711Y91049D03*
G01X9711Y96049D03*
G01X11311Y96049D03*
G01X12912Y96049D03*
G01X47722Y91049D03*
G01X46121Y91049D03*
G01X44521Y91049D03*
G01X44521Y96049D03*
G01X46121Y96049D03*
G01X47722Y96049D03*
G01X26836Y91049D03*
G01X25235Y91049D03*
G01X23635Y91049D03*
G01X23635Y96049D03*
G01X25235Y96049D03*
G01X26836Y96049D03*
G01X40760Y91049D03*
G01X39159Y91049D03*
G01X37559Y91049D03*
G01X37559Y96049D03*
G01X39159Y96049D03*
G01X40760Y96049D03*
G01X33798Y91049D03*
G01X32197Y91049D03*
G01X30598Y91049D03*
G01X30598Y96049D03*
G01X32197Y96049D03*
G01X33798Y96049D03*
G54D17*
G01X65974Y89000D03*
G01X65125Y89000D03*
G01X31174Y89000D03*
G01X30325Y89000D03*
G01X38074Y89000D03*
G01X37225Y89000D03*
G01X93774Y89000D03*
G01X92925Y89000D03*
G01X3274Y89000D03*
G01X2425Y89000D03*
G01X45074Y89000D03*
G01X44225Y89000D03*
G01X24174Y89000D03*
G01X23325Y89000D03*
G01X86874Y89000D03*
G01X86025Y89000D03*
G01X52074Y89000D03*
G01X51225Y89000D03*
G01X17174Y89000D03*
G01X16325Y89000D03*
G01X10274Y89000D03*
G01X9425Y89000D03*
G01X59074Y89000D03*
G01X58225Y89000D03*
G01X79874Y89000D03*
G01X79025Y89000D03*
G01X72874Y89000D03*
G01X72025Y89000D03*
G01X61874Y89000D03*
G01X61025Y89000D03*
G01X41074Y89000D03*
G01X40225Y89000D03*
G01X75974Y89000D03*
G01X75125Y89000D03*
G01X68974Y89000D03*
G01X68125Y89000D03*
G01X6274Y89000D03*
G01X5425Y89000D03*
G01X82774Y89000D03*
G01X81925Y89000D03*
G01X20174Y89000D03*
G01X19325Y89000D03*
G01X13274Y89000D03*
G01X12425Y89000D03*
G01X89774Y89000D03*
G01X88925Y89000D03*
G01X27174Y89000D03*
G01X26325Y89000D03*
G01X47974Y89000D03*
G01X47125Y89000D03*
G01X96774Y89000D03*
G01X95925Y89000D03*
G01X34174Y89000D03*
G01X33325Y89000D03*
G01X54874Y89000D03*
G01X54025Y89000D03*
G54D16*
G01X5950Y81577D03*
G01X4350Y81577D03*
G01X2750Y81577D03*
G01X2750Y86577D03*
G01X4350Y86577D03*
G01X5950Y86577D03*
G54D17*
G01X3274Y79500D03*
G01X2425Y79500D03*
G01X6274Y79500D03*
G01X5425Y79500D03*
G54D16*
G01X89494Y81577D03*
G01X87893Y81577D03*
G01X86293Y81577D03*
G01X86293Y86577D03*
G01X87893Y86577D03*
G01X89494Y86577D03*
G01X82532Y81577D03*
G01X80931Y81577D03*
G01X79332Y81577D03*
G01X79332Y86577D03*
G01X80931Y86577D03*
G01X82532Y86577D03*
G01X75570Y81577D03*
G01X73969Y81577D03*
G01X72369Y81577D03*
G01X72369Y86577D03*
G01X73969Y86577D03*
G01X75570Y86577D03*
G01X68608Y81577D03*
G01X67007Y81577D03*
G01X65408Y81577D03*
G01X65408Y86577D03*
G01X67007Y86577D03*
G01X68608Y86577D03*
G01X96456Y81577D03*
G01X94855Y81577D03*
G01X93256Y81577D03*
G01X93256Y86577D03*
G01X94855Y86577D03*
G01X96456Y86577D03*
G01X61646Y81577D03*
G01X60045Y81577D03*
G01X58445Y81577D03*
G01X58445Y86577D03*
G01X60045Y86577D03*
G01X61646Y86577D03*
G01X54684Y81577D03*
G01X53083Y81577D03*
G01X51484Y81577D03*
G01X51484Y86577D03*
G01X53083Y86577D03*
G01X54684Y86577D03*
G01X47722Y81577D03*
G01X46121Y81577D03*
G01X44521Y81577D03*
G01X44521Y86577D03*
G01X46121Y86577D03*
G01X47722Y86577D03*
G01X40760Y81577D03*
G01X39159Y81577D03*
G01X37559Y81577D03*
G01X37559Y86577D03*
G01X39159Y86577D03*
G01X40760Y86577D03*
G01X26836Y81577D03*
G01X25235Y81577D03*
G01X23635Y81577D03*
G01X23635Y86577D03*
G01X25235Y86577D03*
G01X26836Y86577D03*
G01X33798Y81577D03*
G01X32197Y81577D03*
G01X30598Y81577D03*
G01X30598Y86577D03*
G01X32197Y86577D03*
G01X33798Y86577D03*
G54D17*
G01X59074Y79500D03*
G01X58225Y79500D03*
G01X86874Y79500D03*
G01X86025Y79500D03*
G01X52074Y79500D03*
G01X51225Y79500D03*
G01X72874Y79500D03*
G01X72025Y79500D03*
G01X45074Y79500D03*
G01X44225Y79500D03*
G01X65974Y79500D03*
G01X65125Y79500D03*
G01X17174Y79500D03*
G01X16325Y79500D03*
G01X38074Y79500D03*
G01X37225Y79500D03*
G01X93774Y79500D03*
G01X92925Y79500D03*
G01X79874Y79500D03*
G01X79025Y79500D03*
G01X24174Y79500D03*
G01X23325Y79500D03*
G01X31174Y79500D03*
G01X30325Y79500D03*
G01X27174Y79500D03*
G01X26325Y79500D03*
G01X20174Y79500D03*
G01X19325Y79500D03*
G01X41074Y79500D03*
G01X40225Y79500D03*
G01X47974Y79500D03*
G01X47125Y79500D03*
G01X54874Y79500D03*
G01X54025Y79500D03*
G01X61874Y79500D03*
G01X61025Y79500D03*
G01X34174Y79500D03*
G01X33325Y79500D03*
G01X68974Y79500D03*
G01X68125Y79500D03*
G01X75974Y79500D03*
G01X75125Y79500D03*
G01X82774Y79500D03*
G01X81925Y79500D03*
G01X89774Y79500D03*
G01X88925Y79500D03*
G01X96774Y79500D03*
G01X95925Y79500D03*
G54D16*
G01X12912Y81577D03*
G01X11311Y81577D03*
G01X9711Y81577D03*
G01X9711Y86577D03*
G01X11311Y86577D03*
G01X12912Y86577D03*
G54D17*
G01X10274Y79500D03*
G01X9425Y79500D03*
G01X13274Y79500D03*
G01X12425Y79500D03*
G54D16*
G01X33798Y62632D03*
G01X32197Y62632D03*
G01X30598Y62632D03*
G01X30598Y67632D03*
G01X32197Y67632D03*
G01X33798Y67632D03*
G01X89494Y62632D03*
G01X87893Y62632D03*
G01X86293Y62632D03*
G01X86293Y67632D03*
G01X87893Y67632D03*
G01X89494Y67632D03*
G01X82532Y62632D03*
G01X80931Y62632D03*
G01X79332Y62632D03*
G01X79332Y67632D03*
G01X80931Y67632D03*
G01X82532Y67632D03*
G01X75570Y62632D03*
G01X73969Y62632D03*
G01X72369Y62632D03*
G01X72369Y67632D03*
G01X73969Y67632D03*
G01X75570Y67632D03*
G01X68608Y62632D03*
G01X67007Y62632D03*
G01X65408Y62632D03*
G01X65408Y67632D03*
G01X67007Y67632D03*
G01X68608Y67632D03*
G01X61646Y62632D03*
G01X60045Y62632D03*
G01X58445Y62632D03*
G01X58445Y67632D03*
G01X60045Y67632D03*
G01X61646Y67632D03*
G01X54684Y62632D03*
G01X53083Y62632D03*
G01X51484Y62632D03*
G01X51484Y67632D03*
G01X53083Y67632D03*
G01X54684Y67632D03*
G01X47722Y62632D03*
G01X46121Y62632D03*
G36*
G01X44021Y61832D02*
G01X44021Y63433D01*
G01X45022Y63433D01*
G01X45022Y61832D01*
G01X44021Y61832D01*
G37*
G36*
G01X44021Y66832D02*
G01X44021Y68433D01*
G01X45022Y68433D01*
G01X45022Y66832D01*
G01X44021Y66832D01*
G37*
G01X46121Y67632D03*
G01X47722Y67632D03*
G01X40760Y62632D03*
G01X39159Y62632D03*
G01X37559Y62632D03*
G01X37559Y67632D03*
G01X39159Y67632D03*
G01X40760Y67632D03*
G01X96456Y62632D03*
G01X94855Y62632D03*
G01X93256Y62632D03*
G01X93256Y67632D03*
G01X94855Y67632D03*
G01X96456Y67632D03*
G01X26836Y62632D03*
G01X25235Y62632D03*
G01X23635Y62632D03*
G01X23635Y67632D03*
G01X25235Y67632D03*
G01X26836Y67632D03*
G01X19874Y62632D03*
G01X18273Y62632D03*
G01X16674Y62632D03*
G01X16674Y67632D03*
G01X18273Y67632D03*
G01X19874Y67632D03*
G01X12912Y62632D03*
G01X11311Y62632D03*
G01X9711Y62632D03*
G01X9711Y67632D03*
G01X11311Y67632D03*
G01X12912Y67632D03*
G01X5950Y62632D03*
G01X4350Y62632D03*
G01X2750Y62632D03*
G01X2750Y67632D03*
G01X4350Y67632D03*
G01X5950Y67632D03*
G01X96456Y72105D03*
G01X94855Y72105D03*
G01X93256Y72105D03*
G01X93256Y77105D03*
G01X94855Y77105D03*
G01X96456Y77105D03*
G01X5950Y72105D03*
G01X4350Y72105D03*
G01X2750Y72105D03*
G01X2750Y77105D03*
G01X4350Y77105D03*
G01X5950Y77105D03*
G01X12912Y72105D03*
G01X11311Y72105D03*
G01X9711Y72105D03*
G01X9711Y77105D03*
G01X11311Y77105D03*
G01X12912Y77105D03*
G01X19874Y72105D03*
G01X18273Y72105D03*
G01X16674Y72105D03*
G01X16674Y77105D03*
G01X18273Y77105D03*
G01X19874Y77105D03*
G01X89494Y72105D03*
G01X87893Y72105D03*
G01X86293Y72105D03*
G01X86293Y77105D03*
G01X87893Y77105D03*
G01X89494Y77105D03*
G01X26836Y72105D03*
G01X25235Y72105D03*
G01X23635Y72105D03*
G01X23635Y77105D03*
G01X25235Y77105D03*
G01X26836Y77105D03*
G01X33798Y72105D03*
G01X32197Y72105D03*
G01X30598Y72105D03*
G01X30598Y77105D03*
G01X32197Y77105D03*
G01X33798Y77105D03*
G01X82532Y72105D03*
G01X80931Y72105D03*
G01X79332Y72105D03*
G01X79332Y77105D03*
G01X80931Y77105D03*
G01X82532Y77105D03*
G01X40760Y72105D03*
G01X39159Y72105D03*
G01X37559Y72105D03*
G01X37559Y77105D03*
G01X39159Y77105D03*
G01X40760Y77105D03*
G01X47722Y72105D03*
G01X46121Y72105D03*
G36*
G01X44021Y71304D02*
G01X44021Y72905D01*
G01X45022Y72905D01*
G01X45022Y71304D01*
G01X44021Y71304D01*
G37*
G36*
G01X44021Y76304D02*
G01X44021Y77905D01*
G01X45022Y77905D01*
G01X45022Y76304D01*
G01X44021Y76304D01*
G37*
G01X46121Y77105D03*
G01X47722Y77105D03*
G01X75570Y72105D03*
G01X73969Y72105D03*
G01X72369Y72105D03*
G01X72369Y77105D03*
G01X73969Y77105D03*
G01X75570Y77105D03*
G01X54684Y72105D03*
G01X53083Y72105D03*
G01X51484Y72105D03*
G01X51484Y77105D03*
G01X53083Y77105D03*
G01X54684Y77105D03*
G01X61646Y72105D03*
G01X60045Y72105D03*
G01X58445Y72105D03*
G01X58445Y77105D03*
G01X60045Y77105D03*
G01X61646Y77105D03*
G01X68608Y72105D03*
G01X67007Y72105D03*
G01X65408Y72105D03*
G01X65408Y77105D03*
G01X67007Y77105D03*
G01X68608Y77105D03*
G54D17*
G01X79874Y60599D03*
G01X79025Y60599D03*
G01X24174Y60599D03*
G01X23325Y60599D03*
G01X59074Y60599D03*
G01X58225Y60599D03*
G01X17174Y60599D03*
G01X16325Y60599D03*
G01X86874Y60599D03*
G01X86025Y60599D03*
G01X10274Y60599D03*
G01X9425Y60599D03*
G01X52074Y60599D03*
G01X51225Y60599D03*
G01X3274Y60599D03*
G01X2425Y60599D03*
G01X72874Y60599D03*
G01X72025Y60599D03*
G01X93774Y70099D03*
G01X92925Y70099D03*
G01X3174Y70099D03*
G01X2325Y70099D03*
G01X45074Y60599D03*
G01X44225Y60599D03*
G01X10274Y70099D03*
G01X9425Y70099D03*
G01X86874Y70099D03*
G01X86025Y70099D03*
G01X17174Y70099D03*
G01X16325Y70099D03*
G01X24174Y70099D03*
G01X23325Y70099D03*
G01X79874Y70099D03*
G01X79025Y70099D03*
G01X31174Y70099D03*
G01X30325Y70099D03*
G01X38074Y60599D03*
G01X37225Y60599D03*
G01X65974Y60599D03*
G01X65125Y60599D03*
G01X38074Y70099D03*
G01X37225Y70099D03*
G01X72874Y70099D03*
G01X72025Y70099D03*
G01X45074Y70099D03*
G01X44225Y70099D03*
G01X93774Y60599D03*
G01X92925Y60599D03*
G01X52074Y70099D03*
G01X51225Y70099D03*
G01X65974Y70099D03*
G01X65125Y70099D03*
G01X59074Y70099D03*
G01X58225Y70099D03*
G01X31174Y60599D03*
G01X30325Y60599D03*
G01X61874Y70099D03*
G01X61025Y70099D03*
G01X68974Y70099D03*
G01X68125Y70099D03*
G01X47974Y70099D03*
G01X47125Y70099D03*
G01X41074Y70099D03*
G01X40225Y70099D03*
G01X75974Y70099D03*
G01X75125Y70099D03*
G01X34174Y70099D03*
G01X33325Y70099D03*
G01X27174Y70099D03*
G01X26325Y70099D03*
G01X82774Y70099D03*
G01X81925Y70099D03*
G01X20174Y70099D03*
G01X19325Y70099D03*
G01X13274Y70099D03*
G01X12425Y70099D03*
G01X89774Y70099D03*
G01X88925Y70099D03*
G01X6274Y70099D03*
G01X5425Y70099D03*
G01X96774Y70099D03*
G01X95925Y70099D03*
G01X6274Y60599D03*
G01X5425Y60599D03*
G01X13274Y60599D03*
G01X12425Y60599D03*
G01X20174Y60599D03*
G01X19325Y60599D03*
G01X27174Y60599D03*
G01X26325Y60599D03*
G01X54874Y70099D03*
G01X54025Y70099D03*
G01X34174Y60599D03*
G01X33325Y60599D03*
G01X41074Y60599D03*
G01X40225Y60599D03*
G01X47974Y60599D03*
G01X47125Y60599D03*
G01X54874Y60599D03*
G01X54025Y60599D03*
G01X61874Y60599D03*
G01X61025Y60599D03*
G01X68974Y60599D03*
G01X68125Y60599D03*
G01X75974Y60599D03*
G01X75125Y60599D03*
G01X82774Y60599D03*
G01X81925Y60599D03*
G01X89774Y60599D03*
G01X88925Y60599D03*
G01X96774Y60599D03*
G01X95925Y60599D03*
G54D16*
G01X5950Y34216D03*
G01X4350Y34216D03*
G01X2750Y34216D03*
G01X2750Y39216D03*
G01X4350Y39216D03*
G01X5950Y39216D03*
G01X96456Y43689D03*
G01X94855Y43689D03*
G01X93256Y43689D03*
G01X93256Y48689D03*
G01X94855Y48689D03*
G01X96456Y48689D03*
G01X89494Y43689D03*
G01X87893Y43689D03*
G01X86293Y43689D03*
G01X86293Y48689D03*
G01X87893Y48689D03*
G01X89494Y48689D03*
G01X82532Y43689D03*
G01X80932Y43689D03*
G01X79332Y43689D03*
G01X79332Y48689D03*
G01X80932Y48689D03*
G01X82532Y48689D03*
G01X75570Y43689D03*
G01X73969Y43689D03*
G01X72369Y43689D03*
G01X72369Y48689D03*
G01X73969Y48689D03*
G01X75570Y48689D03*
G01X68608Y43689D03*
G01X67007Y43689D03*
G01X65408Y43689D03*
G01X65408Y48689D03*
G01X67007Y48689D03*
G01X68608Y48689D03*
G01X61646Y43689D03*
G01X60045Y43689D03*
G01X58445Y43689D03*
G01X58445Y48689D03*
G01X60045Y48689D03*
G01X61646Y48689D03*
G01X54684Y43689D03*
G01X53083Y43689D03*
G01X51484Y43689D03*
G01X51484Y48689D03*
G01X53083Y48689D03*
G01X54684Y48689D03*
G01X47722Y43689D03*
G01X46121Y43689D03*
G36*
G01X44021Y42888D02*
G01X44021Y44489D01*
G01X45022Y44489D01*
G01X45022Y42888D01*
G01X44021Y42888D01*
G37*
G36*
G01X44021Y47888D02*
G01X44021Y49489D01*
G01X45022Y49489D01*
G01X45022Y47888D01*
G01X44021Y47888D01*
G37*
G01X46121Y48689D03*
G01X47722Y48689D03*
G01X40760Y43689D03*
G01X39159Y43689D03*
G01X37559Y43689D03*
G01X37559Y48689D03*
G01X39159Y48689D03*
G01X40760Y48689D03*
G01X33798Y43689D03*
G01X32197Y43689D03*
G01X30598Y43689D03*
G01X30598Y48689D03*
G01X32197Y48689D03*
G01X33798Y48689D03*
G01X26836Y43689D03*
G01X25235Y43689D03*
G01X23635Y43689D03*
G01X23635Y48689D03*
G01X25235Y48689D03*
G01X26836Y48689D03*
G01X19874Y43689D03*
G01X18273Y43689D03*
G01X16674Y43689D03*
G01X16674Y48689D03*
G01X18273Y48689D03*
G01X19874Y48689D03*
G01X12912Y43689D03*
G01X11311Y43689D03*
G01X9711Y43689D03*
G01X9711Y48689D03*
G01X11311Y48689D03*
G01X12912Y48689D03*
G01X5950Y43689D03*
G01X4350Y43689D03*
G01X2750Y43689D03*
G01X2750Y48689D03*
G01X4350Y48689D03*
G01X5950Y48689D03*
G01X96456Y53160D03*
G01X94855Y53160D03*
G01X93256Y53160D03*
G01X93256Y58160D03*
G01X94855Y58160D03*
G01X96456Y58160D03*
G01X89494Y53160D03*
G01X87893Y53160D03*
G01X86293Y53160D03*
G01X86293Y58160D03*
G01X87893Y58160D03*
G01X89494Y58160D03*
G01X82532Y53160D03*
G01X80932Y53160D03*
G01X79332Y53160D03*
G01X79332Y58160D03*
G01X80932Y58160D03*
G01X82532Y58160D03*
G01X75570Y53160D03*
G01X73969Y53160D03*
G01X72369Y53160D03*
G01X72369Y58160D03*
G01X73969Y58160D03*
G01X75570Y58160D03*
G01X68608Y53160D03*
G01X67007Y53160D03*
G01X65408Y53160D03*
G01X65408Y58160D03*
G01X67007Y58160D03*
G01X68608Y58160D03*
G01X61646Y53160D03*
G01X60045Y53160D03*
G01X58445Y53160D03*
G01X58445Y58160D03*
G01X60045Y58160D03*
G01X61646Y58160D03*
G01X54684Y53160D03*
G01X53083Y53160D03*
G01X51484Y53160D03*
G01X51484Y58160D03*
G01X53083Y58160D03*
G01X54684Y58160D03*
G01X47722Y53160D03*
G01X46121Y53160D03*
G36*
G01X44021Y52360D02*
G01X44021Y53961D01*
G01X45022Y53961D01*
G01X45022Y52360D01*
G01X44021Y52360D01*
G37*
G36*
G01X44021Y57360D02*
G01X44021Y58961D01*
G01X45022Y58961D01*
G01X45022Y57360D01*
G01X44021Y57360D01*
G37*
G01X46121Y58160D03*
G01X47722Y58160D03*
G01X40760Y53160D03*
G01X39159Y53160D03*
G01X37559Y53160D03*
G01X37559Y58160D03*
G01X39159Y58160D03*
G01X40760Y58160D03*
G01X33798Y53160D03*
G01X32197Y53160D03*
G01X30598Y53160D03*
G01X30598Y58160D03*
G01X32197Y58160D03*
G01X33798Y58160D03*
G01X26836Y53160D03*
G01X25235Y53160D03*
G01X23635Y53160D03*
G01X23635Y58160D03*
G01X25235Y58160D03*
G01X26836Y58160D03*
G01X19874Y53160D03*
G01X18273Y53160D03*
G01X16674Y53160D03*
G01X16674Y58160D03*
G01X18273Y58160D03*
G01X19874Y58160D03*
G01X12912Y53160D03*
G01X11311Y53160D03*
G01X9711Y53160D03*
G01X9711Y58160D03*
G01X11311Y58160D03*
G01X12912Y58160D03*
G01X5950Y53160D03*
G01X4350Y53160D03*
G01X2750Y53160D03*
G01X2750Y58160D03*
G01X4350Y58160D03*
G01X5950Y58160D03*
G54D17*
G01X3274Y51100D03*
G01X2425Y51100D03*
G01X10274Y51100D03*
G01X9425Y51100D03*
G01X17174Y51100D03*
G01X16325Y51100D03*
G01X24174Y51100D03*
G01X23325Y51100D03*
G01X31174Y51100D03*
G01X30325Y51100D03*
G01X38074Y51100D03*
G01X37225Y51100D03*
G01X45074Y51100D03*
G01X44225Y51100D03*
G01X52074Y51100D03*
G01X51225Y51100D03*
G01X59074Y51100D03*
G01X58225Y51100D03*
G01X65974Y51100D03*
G01X65125Y51100D03*
G01X72874Y51100D03*
G01X72025Y51100D03*
G01X79874Y51100D03*
G01X79025Y51100D03*
G01X86874Y51100D03*
G01X86025Y51100D03*
G01X93774Y51100D03*
G01X92925Y51100D03*
G01X3274Y41599D03*
G01X2425Y41599D03*
G01X10274Y41599D03*
G01X9425Y41599D03*
G01X17174Y41599D03*
G01X16325Y41599D03*
G01X24174Y41599D03*
G01X23325Y41599D03*
G01X31174Y41599D03*
G01X30325Y41599D03*
G01X38074Y41599D03*
G01X37225Y41599D03*
G01X45074Y41599D03*
G01X44225Y41599D03*
G01X52074Y41599D03*
G01X51225Y41599D03*
G01X59074Y41599D03*
G01X58225Y41599D03*
G01X65974Y41599D03*
G01X65125Y41599D03*
G01X72874Y41599D03*
G01X72025Y41599D03*
G01X79874Y41599D03*
G01X79025Y41599D03*
G01X86874Y41599D03*
G01X86025Y41599D03*
G01X93774Y41599D03*
G01X92925Y41599D03*
G01X3274Y32100D03*
G01X2425Y32100D03*
G01X6274Y51100D03*
G01X5425Y51100D03*
G01X13274Y51100D03*
G01X12425Y51100D03*
G01X20174Y51100D03*
G01X19325Y51100D03*
G01X27174Y51100D03*
G01X26325Y51100D03*
G01X34174Y51100D03*
G01X33325Y51100D03*
G01X41074Y51100D03*
G01X40225Y51100D03*
G01X47974Y51100D03*
G01X47125Y51100D03*
G01X54874Y51100D03*
G01X54025Y51100D03*
G01X61874Y51100D03*
G01X61025Y51100D03*
G01X68974Y51100D03*
G01X68125Y51100D03*
G01X75974Y51100D03*
G01X75125Y51100D03*
G01X82774Y51100D03*
G01X81925Y51100D03*
G01X89774Y51100D03*
G01X88925Y51100D03*
G01X96774Y51100D03*
G01X95925Y51100D03*
G01X6274Y41599D03*
G01X5425Y41599D03*
G01X13274Y41599D03*
G01X12425Y41599D03*
G01X20174Y41599D03*
G01X19325Y41599D03*
G01X27174Y41599D03*
G01X26325Y41599D03*
G01X34174Y41599D03*
G01X33325Y41599D03*
G01X41074Y41599D03*
G01X40225Y41599D03*
G01X47974Y41599D03*
G01X47125Y41599D03*
G01X54874Y41599D03*
G01X54025Y41599D03*
G01X61874Y41599D03*
G01X61025Y41599D03*
G01X68974Y41599D03*
G01X68125Y41599D03*
G01X75974Y41599D03*
G01X75125Y41599D03*
G01X82774Y41599D03*
G01X81925Y41599D03*
G01X89774Y41599D03*
G01X88925Y41599D03*
G01X96774Y41599D03*
G01X95925Y41599D03*
G01X6274Y32100D03*
G01X5425Y32100D03*
G54D16*
G01X33798Y15272D03*
G01X32197Y15272D03*
G01X30598Y15272D03*
G01X30598Y20272D03*
G01X32197Y20272D03*
G01X33798Y20272D03*
G01X89494Y5800D03*
G01X87893Y5800D03*
G01X86293Y5800D03*
G01X86293Y10799D03*
G01X87893Y10799D03*
G01X89494Y10799D03*
G01X82532Y5800D03*
G01X80932Y5800D03*
G01X79332Y5800D03*
G01X79332Y10799D03*
G01X80932Y10799D03*
G01X82532Y10799D03*
G01X75570Y5800D03*
G01X73969Y5800D03*
G01X72369Y5800D03*
G01X72369Y10799D03*
G01X73969Y10799D03*
G01X75570Y10799D03*
G01X68608Y5800D03*
G01X67007Y5800D03*
G01X65408Y5800D03*
G01X65408Y10799D03*
G01X67007Y10799D03*
G01X68608Y10799D03*
G01X61646Y5800D03*
G01X60045Y5800D03*
G01X58445Y5800D03*
G01X58445Y10799D03*
G01X60045Y10799D03*
G01X61646Y10799D03*
G01X54684Y5800D03*
G01X53083Y5800D03*
G01X51484Y5800D03*
G01X51484Y10799D03*
G01X53083Y10799D03*
G01X54684Y10799D03*
G01X47722Y5800D03*
G01X46121Y5800D03*
G36*
G01X44021Y4999D02*
G01X44021Y6600D01*
G01X45022Y6600D01*
G01X45022Y4999D01*
G01X44021Y4999D01*
G37*
G36*
G01X44021Y9999D02*
G01X44021Y11600D01*
G01X45022Y11600D01*
G01X45022Y9999D01*
G01X44021Y9999D01*
G37*
G01X46121Y10799D03*
G01X47722Y10799D03*
G01X40760Y5800D03*
G01X39159Y5800D03*
G01X37559Y5800D03*
G01X37559Y10799D03*
G01X39159Y10799D03*
G01X40760Y10799D03*
G01X33798Y5800D03*
G01X32197Y5800D03*
G01X30598Y5800D03*
G01X30598Y10799D03*
G01X32197Y10799D03*
G01X33798Y10799D03*
G01X26836Y5800D03*
G01X25235Y5800D03*
G01X23635Y5800D03*
G01X23635Y10799D03*
G01X25235Y10799D03*
G01X26836Y10799D03*
G01X19874Y5800D03*
G01X18273Y5800D03*
G01X16674Y5800D03*
G01X16674Y10799D03*
G01X18273Y10799D03*
G01X19874Y10799D03*
G01X12912Y5800D03*
G01X11311Y5800D03*
G01X9711Y5800D03*
G01X9711Y10799D03*
G01X11311Y10799D03*
G01X12912Y10799D03*
G01X5950Y5800D03*
G01X4350Y5800D03*
G01X2750Y5800D03*
G01X2750Y10799D03*
G01X4350Y10799D03*
G01X5950Y10799D03*
G01X96456Y15272D03*
G01X94855Y15272D03*
G01X93256Y15272D03*
G01X93256Y20272D03*
G01X94855Y20272D03*
G01X96456Y20272D03*
G01X89494Y15272D03*
G01X87893Y15272D03*
G01X86293Y15272D03*
G01X86293Y20272D03*
G01X87893Y20272D03*
G01X89494Y20272D03*
G01X82532Y15272D03*
G01X80932Y15272D03*
G01X79332Y15272D03*
G01X79332Y20272D03*
G01X80932Y20272D03*
G01X82532Y20272D03*
G01X75570Y15272D03*
G01X73969Y15272D03*
G01X72369Y15272D03*
G01X72369Y20272D03*
G01X73969Y20272D03*
G01X75570Y20272D03*
G01X68608Y15272D03*
G01X67007Y15272D03*
G01X65408Y15272D03*
G01X65408Y20272D03*
G01X67007Y20272D03*
G01X68608Y20272D03*
G01X61646Y15272D03*
G01X60045Y15272D03*
G01X58445Y15272D03*
G01X58445Y20272D03*
G01X60045Y20272D03*
G01X61646Y20272D03*
G01X54684Y15272D03*
G01X53083Y15272D03*
G01X51484Y15272D03*
G01X51484Y20272D03*
G01X53083Y20272D03*
G01X54684Y20272D03*
G01X47722Y15272D03*
G01X46121Y15272D03*
G36*
G01X44021Y14471D02*
G01X44021Y16072D01*
G01X45022Y16072D01*
G01X45022Y14471D01*
G01X44021Y14471D01*
G37*
G36*
G01X44021Y19471D02*
G01X44021Y21072D01*
G01X45022Y21072D01*
G01X45022Y19471D01*
G01X44021Y19471D01*
G37*
G01X46121Y20272D03*
G01X47722Y20272D03*
G01X40760Y15272D03*
G01X39159Y15272D03*
G01X37559Y15272D03*
G01X37559Y20272D03*
G01X39159Y20272D03*
G01X40760Y20272D03*
G01X96456Y5800D03*
G01X94855Y5800D03*
G01X93256Y5800D03*
G01X93256Y10799D03*
G01X94855Y10799D03*
G01X96456Y10799D03*
G01X26836Y15272D03*
G01X25235Y15272D03*
G01X23635Y15272D03*
G01X23635Y20272D03*
G01X25235Y20272D03*
G01X26836Y20272D03*
G01X19874Y15272D03*
G01X18273Y15272D03*
G01X16674Y15272D03*
G01X16674Y20272D03*
G01X18273Y20272D03*
G01X19874Y20272D03*
G01X12912Y15272D03*
G01X11311Y15272D03*
G01X9711Y15272D03*
G01X9711Y20272D03*
G01X11311Y20272D03*
G01X12912Y20272D03*
G01X5950Y15272D03*
G01X4350Y15272D03*
G01X2750Y15272D03*
G01X2750Y20272D03*
G01X4350Y20272D03*
G01X5950Y20272D03*
G01X96456Y24743D03*
G01X94855Y24743D03*
G01X93256Y24743D03*
G01X93256Y29743D03*
G01X94855Y29743D03*
G01X96456Y29743D03*
G01X89494Y24743D03*
G01X87893Y24743D03*
G01X86293Y24743D03*
G01X86293Y29743D03*
G01X87893Y29743D03*
G01X89494Y29743D03*
G01X82532Y24743D03*
G01X80932Y24743D03*
G01X79332Y24743D03*
G01X79332Y29743D03*
G01X80932Y29743D03*
G01X82532Y29743D03*
G01X75570Y24743D03*
G01X73969Y24743D03*
G01X72369Y24743D03*
G01X72369Y29743D03*
G01X73969Y29743D03*
G01X75570Y29743D03*
G01X68608Y24743D03*
G01X67007Y24743D03*
G01X65408Y24743D03*
G01X65408Y29743D03*
G01X67007Y29743D03*
G01X68608Y29743D03*
G01X61646Y24743D03*
G01X60045Y24743D03*
G01X58445Y24743D03*
G01X58445Y29743D03*
G01X60045Y29743D03*
G01X61646Y29743D03*
G01X54684Y24743D03*
G01X53083Y24743D03*
G01X51484Y24743D03*
G01X51484Y29743D03*
G01X53083Y29743D03*
G01X54684Y29743D03*
G01X47722Y24743D03*
G01X46121Y24743D03*
G36*
G01X44021Y23943D02*
G01X44021Y25544D01*
G01X45022Y25544D01*
G01X45022Y23943D01*
G01X44021Y23943D01*
G37*
G36*
G01X44021Y28943D02*
G01X44021Y30544D01*
G01X45022Y30544D01*
G01X45022Y28943D01*
G01X44021Y28943D01*
G37*
G01X46121Y29743D03*
G01X47722Y29743D03*
G01X40760Y24743D03*
G01X39159Y24743D03*
G01X37559Y24743D03*
G01X37559Y29743D03*
G01X39159Y29743D03*
G01X40760Y29743D03*
G01X33798Y24743D03*
G01X32197Y24743D03*
G01X30598Y24743D03*
G01X30598Y29743D03*
G01X32197Y29743D03*
G01X33798Y29743D03*
G01X26836Y24743D03*
G01X25235Y24743D03*
G01X23635Y24743D03*
G01X23635Y29743D03*
G01X25235Y29743D03*
G01X26836Y29743D03*
G01X19874Y24743D03*
G01X18273Y24743D03*
G01X16674Y24743D03*
G01X16674Y29743D03*
G01X18273Y29743D03*
G01X19874Y29743D03*
G01X12912Y24743D03*
G01X11311Y24743D03*
G01X9711Y24743D03*
G01X9711Y29743D03*
G01X11311Y29743D03*
G01X12912Y29743D03*
G01X5950Y24743D03*
G01X4350Y24743D03*
G01X2750Y24743D03*
G01X2750Y29743D03*
G01X4350Y29743D03*
G01X5950Y29743D03*
G01X96456Y34216D03*
G01X94855Y34216D03*
G01X93256Y34216D03*
G01X93256Y39216D03*
G01X94855Y39216D03*
G01X96456Y39216D03*
G01X12912Y34216D03*
G01X11311Y34216D03*
G01X9711Y34216D03*
G01X9711Y39216D03*
G01X11311Y39216D03*
G01X12912Y39216D03*
G01X19874Y34216D03*
G01X18273Y34216D03*
G01X16674Y34216D03*
G01X16674Y39216D03*
G01X18273Y39216D03*
G01X19874Y39216D03*
G01X89494Y34216D03*
G01X87893Y34216D03*
G01X86293Y34216D03*
G01X86293Y39216D03*
G01X87893Y39216D03*
G01X89494Y39216D03*
G01X26836Y34216D03*
G01X25235Y34216D03*
G01X23635Y34216D03*
G01X23635Y39216D03*
G01X25235Y39216D03*
G01X26836Y39216D03*
G01X33798Y34216D03*
G01X32197Y34216D03*
G01X30598Y34216D03*
G01X30598Y39216D03*
G01X32197Y39216D03*
G01X33798Y39216D03*
G01X82532Y34216D03*
G01X80932Y34216D03*
G01X79332Y34216D03*
G01X79332Y39216D03*
G01X80932Y39216D03*
G01X82532Y39216D03*
G01X40760Y34216D03*
G01X39159Y34216D03*
G01X37559Y34216D03*
G01X37559Y39216D03*
G01X39159Y39216D03*
G01X40760Y39216D03*
G01X47722Y34216D03*
G01X46121Y34216D03*
G36*
G01X44021Y33416D02*
G01X44021Y35017D01*
G01X45022Y35017D01*
G01X45022Y33416D01*
G01X44021Y33416D01*
G37*
G36*
G01X44021Y38416D02*
G01X44021Y40017D01*
G01X45022Y40017D01*
G01X45022Y38416D01*
G01X44021Y38416D01*
G37*
G01X46121Y39216D03*
G01X47722Y39216D03*
G01X75570Y34216D03*
G01X73969Y34216D03*
G01X72369Y34216D03*
G01X72369Y39216D03*
G01X73969Y39216D03*
G01X75570Y39216D03*
G01X54684Y34216D03*
G01X53083Y34216D03*
G01X51484Y34216D03*
G01X51484Y39216D03*
G01X53083Y39216D03*
G01X54684Y39216D03*
G01X61646Y34216D03*
G01X60045Y34216D03*
G01X58445Y34216D03*
G01X58445Y39216D03*
G01X60045Y39216D03*
G01X61646Y39216D03*
G01X68608Y34216D03*
G01X67007Y34216D03*
G01X65408Y34216D03*
G01X65408Y39216D03*
G01X67007Y39216D03*
G01X68608Y39216D03*
G54D17*
G01X86874Y3700D03*
G01X86025Y3700D03*
G01X24174Y13199D03*
G01X23325Y13199D03*
G01X10274Y3700D03*
G01X9425Y3700D03*
G01X17174Y13199D03*
G01X16325Y13199D03*
G01X52074Y3700D03*
G01X51225Y3700D03*
G01X10274Y13199D03*
G01X9425Y13199D03*
G01X3274Y3700D03*
G01X2425Y3700D03*
G01X3274Y13199D03*
G01X2425Y13199D03*
G01X72874Y3700D03*
G01X72025Y3700D03*
G01X93774Y22599D03*
G01X92925Y22599D03*
G01X93774Y13199D03*
G01X92925Y13199D03*
G01X86874Y22599D03*
G01X86025Y22599D03*
G01X79874Y22599D03*
G01X79025Y22599D03*
G01X45074Y3700D03*
G01X44225Y3700D03*
G01X86874Y13199D03*
G01X86025Y13199D03*
G01X72874Y22599D03*
G01X72025Y22599D03*
G01X65974Y22599D03*
G01X65125Y22599D03*
G01X79874Y13199D03*
G01X79025Y13199D03*
G01X59074Y22599D03*
G01X58225Y22599D03*
G01X52074Y22599D03*
G01X51225Y22599D03*
G01X38074Y3700D03*
G01X37225Y3700D03*
G01X72874Y13199D03*
G01X72025Y13199D03*
G01X65974Y3700D03*
G01X65125Y3700D03*
G01X45074Y22599D03*
G01X44225Y22599D03*
G01X38074Y22599D03*
G01X37225Y22599D03*
G01X65974Y13199D03*
G01X65125Y13199D03*
G01X93774Y3700D03*
G01X92925Y3700D03*
G01X31174Y22599D03*
G01X30325Y22599D03*
G01X31174Y3700D03*
G01X30325Y3700D03*
G01X24174Y22599D03*
G01X23325Y22599D03*
G01X59074Y13199D03*
G01X58225Y13199D03*
G01X79874Y3700D03*
G01X79025Y3700D03*
G01X17174Y22599D03*
G01X16325Y22599D03*
G01X10274Y22599D03*
G01X9425Y22599D03*
G01X52074Y13199D03*
G01X51225Y13199D03*
G01X3274Y22599D03*
G01X2425Y22599D03*
G01X24174Y3700D03*
G01X23325Y3700D03*
G01X93774Y32100D03*
G01X92925Y32100D03*
G01X45074Y13199D03*
G01X44225Y13199D03*
G01X59074Y3700D03*
G01X58225Y3700D03*
G01X10274Y32100D03*
G01X9425Y32100D03*
G01X86874Y32100D03*
G01X86025Y32100D03*
G01X17174Y32100D03*
G01X16325Y32100D03*
G01X24174Y32100D03*
G01X23325Y32100D03*
G01X79874Y32100D03*
G01X79025Y32100D03*
G01X31174Y32100D03*
G01X30325Y32100D03*
G01X38074Y13199D03*
G01X37225Y13199D03*
G01X38074Y32100D03*
G01X37225Y32100D03*
G01X72874Y32100D03*
G01X72025Y32100D03*
G01X45074Y32100D03*
G01X44225Y32100D03*
G01X17174Y3700D03*
G01X16325Y3700D03*
G01X52074Y32100D03*
G01X51225Y32100D03*
G01X65974Y32100D03*
G01X65125Y32100D03*
G01X59074Y32100D03*
G01X58225Y32100D03*
G01X31174Y13199D03*
G01X30325Y13199D03*
G01X61874Y32100D03*
G01X61025Y32100D03*
G01X68974Y32100D03*
G01X68125Y32100D03*
G01X47974Y32100D03*
G01X47125Y32100D03*
G01X41074Y32100D03*
G01X40225Y32100D03*
G01X75974Y32100D03*
G01X75125Y32100D03*
G01X34174Y32100D03*
G01X33325Y32100D03*
G01X27174Y32100D03*
G01X26325Y32100D03*
G01X82774Y32100D03*
G01X81925Y32100D03*
G01X20174Y32100D03*
G01X19325Y32100D03*
G01X13274Y32100D03*
G01X12425Y32100D03*
G01X89774Y32100D03*
G01X88925Y32100D03*
G01X96774Y32100D03*
G01X95925Y32100D03*
G01X6274Y22599D03*
G01X5425Y22599D03*
G01X13274Y22599D03*
G01X12425Y22599D03*
G01X20174Y22599D03*
G01X19325Y22599D03*
G01X27174Y22599D03*
G01X26325Y22599D03*
G01X34174Y22599D03*
G01X33325Y22599D03*
G01X41074Y22599D03*
G01X40225Y22599D03*
G01X47974Y22599D03*
G01X47125Y22599D03*
G01X54874Y22599D03*
G01X54025Y22599D03*
G01X61874Y22599D03*
G01X61025Y22599D03*
G01X68974Y22599D03*
G01X68125Y22599D03*
G01X75974Y22599D03*
G01X75125Y22599D03*
G01X82774Y22599D03*
G01X81925Y22599D03*
G01X89774Y22599D03*
G01X88925Y22599D03*
G01X96774Y22599D03*
G01X95925Y22599D03*
G01X6274Y13199D03*
G01X5425Y13199D03*
G01X13274Y13199D03*
G01X12425Y13199D03*
G01X20174Y13199D03*
G01X19325Y13199D03*
G01X27174Y13199D03*
G01X26325Y13199D03*
G01X54874Y32100D03*
G01X54025Y32100D03*
G01X34174Y13199D03*
G01X33325Y13199D03*
G01X41074Y13199D03*
G01X40225Y13199D03*
G01X47974Y13199D03*
G01X47125Y13199D03*
G01X54874Y13199D03*
G01X54025Y13199D03*
G01X61874Y13199D03*
G01X61025Y13199D03*
G01X68974Y13199D03*
G01X68125Y13199D03*
G01X75974Y13199D03*
G01X75125Y13199D03*
G01X82774Y13199D03*
G01X81925Y13199D03*
G01X89774Y13199D03*
G01X88925Y13199D03*
G01X96774Y13199D03*
G01X95925Y13199D03*
G01X6274Y3700D03*
G01X5425Y3700D03*
G01X13274Y3700D03*
G01X12425Y3700D03*
G01X20174Y3700D03*
G01X19325Y3700D03*
G01X27174Y3700D03*
G01X26325Y3700D03*
G01X34174Y3700D03*
G01X33325Y3700D03*
G01X41074Y3700D03*
G01X40225Y3700D03*
G01X47974Y3700D03*
G01X47125Y3700D03*
G01X54874Y3700D03*
G01X54025Y3700D03*
G01X61874Y3700D03*
G01X61025Y3700D03*
G01X68974Y3700D03*
G01X68125Y3700D03*
G01X75974Y3700D03*
G01X75125Y3700D03*
G01X82774Y3700D03*
G01X81925Y3700D03*
G01X89774Y3700D03*
G01X88925Y3700D03*
G01X96774Y3700D03*
G01X95925Y3700D03*
G54D16*
G01X19874Y81577D03*
G01X18273Y81577D03*
G01X16674Y81577D03*
G01X16674Y86577D03*
G01X18273Y86577D03*
G01X19874Y86577D03*
M00*
M02*
