G04 Layer: BottomLayer*
G04 EasyEDA v6.3.22, 2020-01-04T19:44:14+01:00*
G04 f50fd1600d684b49919d2234b325bca6,43c3eb671339413baca6572c6aa340f4,10*
G04 Gerber Generator version 0.2*
G04 Scale: 100 percent, Rotated: No, Reflected: No *
G04 Dimensions in millimeters *
G04 leading zeros omitted , absolute positions ,3 integer and 3 decimal *
%FSLAX33Y33*%
%MOMM*%
G90*
G71D02*

%ADD10C,0.254000*%
%ADD12C,0.502006*%
%ADD14C,0.799998*%
%ADD15C,0.999998*%
%ADD18R,4.318000X1.778000*%

%LPD*%
G36*
G01X97500Y99743D02*
G01X2499Y99743D01*
G01X2432Y99742D01*
G01X2364Y99739D01*
G01X2296Y99734D01*
G01X2229Y99727D01*
G01X2162Y99717D01*
G01X2095Y99706D01*
G01X2029Y99693D01*
G01X1963Y99678D01*
G01X1897Y99661D01*
G01X1832Y99641D01*
G01X1768Y99620D01*
G01X1704Y99597D01*
G01X1641Y99572D01*
G01X1579Y99545D01*
G01X1517Y99517D01*
G01X1457Y99486D01*
G01X1397Y99454D01*
G01X1339Y99419D01*
G01X1281Y99383D01*
G01X1225Y99346D01*
G01X1170Y99307D01*
G01X1116Y99266D01*
G01X1063Y99223D01*
G01X1012Y99179D01*
G01X962Y99133D01*
G01X913Y99086D01*
G01X866Y99037D01*
G01X820Y98987D01*
G01X776Y98936D01*
G01X733Y98883D01*
G01X693Y98829D01*
G01X653Y98774D01*
G01X616Y98718D01*
G01X580Y98660D01*
G01X545Y98602D01*
G01X513Y98542D01*
G01X482Y98482D01*
G01X454Y98420D01*
G01X427Y98358D01*
G01X402Y98295D01*
G01X379Y98231D01*
G01X358Y98167D01*
G01X338Y98102D01*
G01X321Y98036D01*
G01X306Y97970D01*
G01X293Y97904D01*
G01X282Y97837D01*
G01X272Y97770D01*
G01X265Y97703D01*
G01X260Y97635D01*
G01X257Y97567D01*
G01X256Y97500D01*
G01X256Y2499D01*
G01X257Y2432D01*
G01X257Y2430D01*
G01X260Y2364D01*
G01X260Y2360D01*
G01X262Y2335D01*
G01X265Y2297D01*
G01X266Y2294D01*
G01X266Y2291D01*
G01X269Y2264D01*
G01X272Y2229D01*
G01X273Y2225D01*
G01X273Y2222D01*
G01X277Y2195D01*
G01X282Y2162D01*
G01X282Y2157D01*
G01X283Y2153D01*
G01X287Y2127D01*
G01X293Y2095D01*
G01X294Y2090D01*
G01X295Y2084D01*
G01X306Y2029D01*
G01X307Y2022D01*
G01X309Y2016D01*
G01X315Y1991D01*
G01X321Y1963D01*
G01X323Y1955D01*
G01X325Y1948D01*
G01X331Y1924D01*
G01X338Y1897D01*
G01X341Y1889D01*
G01X343Y1881D01*
G01X350Y1858D01*
G01X358Y1832D01*
G01X361Y1823D01*
G01X363Y1815D01*
G01X371Y1792D01*
G01X379Y1768D01*
G01X382Y1758D01*
G01X385Y1749D01*
G01X393Y1727D01*
G01X402Y1704D01*
G01X406Y1694D01*
G01X410Y1683D01*
G01X418Y1663D01*
G01X427Y1641D01*
G01X432Y1630D01*
G01X436Y1619D01*
G01X445Y1600D01*
G01X454Y1579D01*
G01X464Y1555D01*
G01X473Y1537D01*
G01X482Y1518D01*
G01X489Y1505D01*
G01X495Y1493D01*
G01X504Y1476D01*
G01X513Y1457D01*
G01X527Y1431D01*
G01X536Y1415D01*
G01X545Y1398D01*
G01X561Y1370D01*
G01X570Y1355D01*
G01X579Y1339D01*
G01X606Y1297D01*
G01X615Y1282D01*
G01X635Y1252D01*
G01X644Y1239D01*
G01X653Y1225D01*
G01X664Y1210D01*
G01X674Y1195D01*
G01X683Y1183D01*
G01X692Y1170D01*
G01X704Y1154D01*
G01X716Y1139D01*
G01X724Y1128D01*
G01X733Y1116D01*
G01X759Y1084D01*
G01X767Y1074D01*
G01X776Y1063D01*
G01X790Y1047D01*
G01X803Y1031D01*
G01X812Y1022D01*
G01X820Y1012D01*
G01X835Y995D01*
G01X850Y979D01*
G01X858Y971D01*
G01X866Y962D01*
G01X882Y945D01*
G01X898Y929D01*
G01X905Y921D01*
G01X913Y913D01*
G01X931Y896D01*
G01X961Y866D01*
G01X981Y849D01*
G01X998Y832D01*
G01X1000Y831D01*
G01X1011Y821D01*
G01X1063Y776D01*
G01X1116Y734D01*
G01X1170Y693D01*
G01X1225Y653D01*
G01X1281Y616D01*
G01X1294Y609D01*
G01X1307Y604D01*
G01X1322Y601D01*
G01X1336Y599D01*
G01X1794Y599D01*
G01X1808Y601D01*
G01X1822Y604D01*
G01X1836Y609D01*
G01X1849Y616D01*
G01X1860Y624D01*
G01X1870Y635D01*
G01X1879Y646D01*
G01X1886Y659D01*
G01X1891Y672D01*
G01X1894Y687D01*
G01X1895Y701D01*
G01X1894Y716D01*
G01X1891Y730D01*
G01X1886Y744D01*
G01X1879Y756D01*
G01X1870Y768D01*
G01X1860Y778D01*
G01X1848Y787D01*
G01X1835Y794D01*
G01X1821Y799D01*
G01X1782Y811D01*
G01X1743Y825D01*
G01X1705Y842D01*
G01X1668Y860D01*
G01X1631Y880D01*
G01X1596Y901D01*
G01X1562Y925D01*
G01X1529Y950D01*
G01X1497Y976D01*
G01X1479Y994D01*
G01X1462Y1009D01*
G01X1449Y1023D01*
G01X1433Y1040D01*
G01X1420Y1055D01*
G01X1405Y1072D01*
G01X1393Y1088D01*
G01X1379Y1106D01*
G01X1368Y1122D01*
G01X1355Y1141D01*
G01X1344Y1157D01*
G01X1333Y1177D01*
G01X1323Y1194D01*
G01X1312Y1214D01*
G01X1303Y1231D01*
G01X1293Y1252D01*
G01X1285Y1270D01*
G01X1277Y1291D01*
G01X1269Y1309D01*
G01X1262Y1331D01*
G01X1256Y1349D01*
G01X1249Y1371D01*
G01X1244Y1390D01*
G01X1238Y1413D01*
G01X1234Y1431D01*
G01X1227Y1473D01*
G01X1223Y1498D01*
G01X1221Y1515D01*
G01X1218Y1557D01*
G01X1217Y1599D01*
G01X1218Y1642D01*
G01X1221Y1684D01*
G01X1227Y1726D01*
G01X1234Y1767D01*
G01X1244Y1808D01*
G01X1255Y1849D01*
G01X1269Y1889D01*
G01X1284Y1928D01*
G01X1302Y1966D01*
G01X1322Y2004D01*
G01X1343Y2040D01*
G01X1366Y2075D01*
G01X1391Y2109D01*
G01X1418Y2142D01*
G01X1446Y2173D01*
G01X1476Y2203D01*
G01X1507Y2231D01*
G01X1540Y2258D01*
G01X1574Y2283D01*
G01X1609Y2306D01*
G01X1645Y2327D01*
G01X1683Y2347D01*
G01X1721Y2365D01*
G01X1760Y2380D01*
G01X1800Y2394D01*
G01X1841Y2405D01*
G01X1882Y2415D01*
G01X1923Y2422D01*
G01X1965Y2428D01*
G01X2007Y2431D01*
G01X2050Y2432D01*
G01X2092Y2431D01*
G01X2134Y2428D01*
G01X2176Y2422D01*
G01X2217Y2415D01*
G01X2258Y2405D01*
G01X2299Y2394D01*
G01X2339Y2380D01*
G01X2378Y2365D01*
G01X2416Y2347D01*
G01X2454Y2327D01*
G01X2490Y2306D01*
G01X2525Y2283D01*
G01X2559Y2258D01*
G01X2592Y2231D01*
G01X2623Y2203D01*
G01X2653Y2173D01*
G01X2681Y2142D01*
G01X2708Y2109D01*
G01X2733Y2075D01*
G01X2756Y2040D01*
G01X2777Y2004D01*
G01X2797Y1966D01*
G01X2815Y1928D01*
G01X2830Y1889D01*
G01X2844Y1849D01*
G01X2855Y1808D01*
G01X2865Y1767D01*
G01X2872Y1726D01*
G01X2878Y1684D01*
G01X2881Y1642D01*
G01X2882Y1599D01*
G01X2881Y1557D01*
G01X2878Y1515D01*
G01X2876Y1498D01*
G01X2872Y1473D01*
G01X2869Y1455D01*
G01X2865Y1432D01*
G01X2861Y1413D01*
G01X2855Y1390D01*
G01X2850Y1372D01*
G01X2844Y1350D01*
G01X2837Y1331D01*
G01X2830Y1310D01*
G01X2823Y1291D01*
G01X2814Y1271D01*
G01X2806Y1252D01*
G01X2787Y1214D01*
G01X2777Y1195D01*
G01X2767Y1177D01*
G01X2755Y1158D01*
G01X2744Y1141D01*
G01X2732Y1123D01*
G01X2720Y1107D01*
G01X2707Y1089D01*
G01X2694Y1073D01*
G01X2680Y1056D01*
G01X2667Y1041D01*
G01X2652Y1025D01*
G01X2622Y995D01*
G01X2602Y976D01*
G01X2570Y950D01*
G01X2537Y925D01*
G01X2503Y901D01*
G01X2468Y880D01*
G01X2431Y860D01*
G01X2394Y842D01*
G01X2356Y825D01*
G01X2317Y811D01*
G01X2278Y799D01*
G01X2264Y794D01*
G01X2251Y787D01*
G01X2239Y778D01*
G01X2229Y768D01*
G01X2220Y756D01*
G01X2213Y744D01*
G01X2208Y730D01*
G01X2205Y716D01*
G01X2204Y701D01*
G01X2205Y687D01*
G01X2208Y672D01*
G01X2213Y659D01*
G01X2220Y646D01*
G01X2229Y635D01*
G01X2239Y624D01*
G01X2250Y616D01*
G01X2263Y609D01*
G01X2277Y604D01*
G01X2291Y601D01*
G01X2305Y599D01*
G01X98663Y599D01*
G01X98677Y601D01*
G01X98692Y604D01*
G01X98705Y609D01*
G01X98718Y616D01*
G01X98774Y653D01*
G01X98829Y693D01*
G01X98883Y734D01*
G01X98936Y776D01*
G01X98988Y821D01*
G01X99038Y866D01*
G01X99086Y913D01*
G01X99133Y962D01*
G01X99179Y1012D01*
G01X99191Y1026D01*
G01X99193Y1028D01*
G01X99207Y1045D01*
G01X99223Y1063D01*
G01X99231Y1073D01*
G01X99238Y1081D01*
G01X99251Y1098D01*
G01X99266Y1116D01*
G01X99274Y1127D01*
G01X99281Y1136D01*
G01X99293Y1153D01*
G01X99307Y1170D01*
G01X99315Y1182D01*
G01X99323Y1192D01*
G01X99334Y1208D01*
G01X99346Y1225D01*
G01X99354Y1238D01*
G01X99363Y1250D01*
G01X99373Y1265D01*
G01X99384Y1282D01*
G01X99392Y1295D01*
G01X99401Y1308D01*
G01X99410Y1323D01*
G01X99420Y1339D01*
G01X99428Y1354D01*
G01X99437Y1368D01*
G01X99445Y1382D01*
G01X99454Y1398D01*
G01X99462Y1414D01*
G01X99471Y1429D01*
G01X99478Y1443D01*
G01X99486Y1457D01*
G01X99495Y1474D01*
G01X99517Y1518D01*
G01X99525Y1536D01*
G01X99534Y1553D01*
G01X99539Y1566D01*
G01X99545Y1579D01*
G01X99554Y1599D01*
G01X99562Y1617D01*
G01X99572Y1641D01*
G01X99581Y1662D01*
G01X99589Y1682D01*
G01X99605Y1726D01*
G01X99613Y1747D01*
G01X99616Y1757D01*
G01X99620Y1768D01*
G01X99638Y1822D01*
G01X99641Y1832D01*
G01X99649Y1857D01*
G01X99656Y1880D01*
G01X99658Y1888D01*
G01X99661Y1897D01*
G01X99668Y1924D01*
G01X99674Y1947D01*
G01X99678Y1963D01*
G01X99684Y1991D01*
G01X99690Y2015D01*
G01X99691Y2022D01*
G01X99693Y2029D01*
G01X99699Y2058D01*
G01X99704Y2083D01*
G01X99706Y2095D01*
G01X99711Y2126D01*
G01X99716Y2152D01*
G01X99717Y2157D01*
G01X99717Y2162D01*
G01X99722Y2195D01*
G01X99726Y2221D01*
G01X99726Y2225D01*
G01X99727Y2229D01*
G01X99730Y2264D01*
G01X99733Y2290D01*
G01X99733Y2293D01*
G01X99734Y2297D01*
G01X99737Y2335D01*
G01X99739Y2360D01*
G01X99739Y2364D01*
G01X99742Y2430D01*
G01X99742Y2432D01*
G01X99743Y2499D01*
G01X99743Y97500D01*
G01X99742Y97567D01*
G01X99739Y97635D01*
G01X99734Y97703D01*
G01X99727Y97770D01*
G01X99717Y97837D01*
G01X99706Y97904D01*
G01X99693Y97970D01*
G01X99678Y98036D01*
G01X99661Y98102D01*
G01X99641Y98167D01*
G01X99620Y98231D01*
G01X99597Y98295D01*
G01X99572Y98358D01*
G01X99545Y98420D01*
G01X99517Y98482D01*
G01X99486Y98542D01*
G01X99454Y98602D01*
G01X99419Y98660D01*
G01X99383Y98718D01*
G01X99346Y98774D01*
G01X99307Y98829D01*
G01X99266Y98883D01*
G01X99223Y98936D01*
G01X99179Y98987D01*
G01X99133Y99037D01*
G01X99086Y99086D01*
G01X99037Y99133D01*
G01X98987Y99179D01*
G01X98936Y99223D01*
G01X98883Y99266D01*
G01X98829Y99307D01*
G01X98774Y99346D01*
G01X98718Y99383D01*
G01X98660Y99419D01*
G01X98602Y99454D01*
G01X98542Y99486D01*
G01X98482Y99517D01*
G01X98420Y99545D01*
G01X98358Y99572D01*
G01X98295Y99597D01*
G01X98231Y99620D01*
G01X98167Y99641D01*
G01X98102Y99661D01*
G01X98036Y99678D01*
G01X97970Y99693D01*
G01X97904Y99706D01*
G01X97837Y99717D01*
G01X97770Y99727D01*
G01X97703Y99734D01*
G01X97635Y99739D01*
G01X97567Y99742D01*
G01X97500Y99743D01*
G37*

%LPC*%
G36*
G01X57089Y31655D02*
G01X57050Y31656D01*
G01X57010Y31655D01*
G01X56970Y31652D01*
G01X56931Y31647D01*
G01X56892Y31640D01*
G01X56854Y31630D01*
G01X56816Y31619D01*
G01X56778Y31606D01*
G01X56742Y31591D01*
G01X56706Y31574D01*
G01X56671Y31555D01*
G01X56637Y31534D01*
G01X56605Y31512D01*
G01X56573Y31487D01*
G01X56543Y31462D01*
G01X56515Y31434D01*
G01X55545Y30465D01*
G01X55533Y30454D01*
G01X55519Y30446D01*
G01X55504Y30440D01*
G01X55489Y30436D01*
G01X55473Y30435D01*
G01X55457Y30436D01*
G01X55441Y30440D01*
G01X55426Y30446D01*
G01X55404Y30457D01*
G01X55381Y30465D01*
G01X55357Y30470D01*
G01X55333Y30474D01*
G01X55309Y30475D01*
G01X50986Y30475D01*
G01X50970Y30476D01*
G01X50955Y30480D01*
G01X50940Y30486D01*
G01X50926Y30494D01*
G01X50914Y30505D01*
G01X50864Y30555D01*
G01X50854Y30567D01*
G01X50846Y30580D01*
G01X50840Y30595D01*
G01X50836Y30611D01*
G01X50835Y30626D01*
G01X50836Y30641D01*
G01X50839Y30655D01*
G01X50844Y30669D01*
G01X50851Y30681D01*
G01X50859Y30693D01*
G01X50870Y30703D01*
G01X50881Y30712D01*
G01X50894Y30719D01*
G01X50908Y30724D01*
G01X50922Y30727D01*
G01X50936Y30728D01*
G01X50952Y30727D01*
G01X50991Y30724D01*
G01X52007Y30724D01*
G01X52007Y31361D01*
G01X50734Y31361D01*
G01X50734Y30980D01*
G01X50737Y30942D01*
G01X50738Y30926D01*
G01X50737Y30912D01*
G01X50734Y30897D01*
G01X50729Y30884D01*
G01X50722Y30871D01*
G01X50713Y30860D01*
G01X50703Y30849D01*
G01X50691Y30841D01*
G01X50679Y30834D01*
G01X50665Y30829D01*
G01X50651Y30826D01*
G01X50637Y30824D01*
G01X50621Y30826D01*
G01X50605Y30829D01*
G01X50590Y30836D01*
G01X50577Y30844D01*
G01X50565Y30854D01*
G01X50084Y31334D01*
G01X50056Y31362D01*
G01X50026Y31387D01*
G01X49994Y31412D01*
G01X49962Y31434D01*
G01X49928Y31455D01*
G01X49893Y31474D01*
G01X49857Y31491D01*
G01X49821Y31506D01*
G01X49783Y31519D01*
G01X49745Y31530D01*
G01X49707Y31540D01*
G01X49668Y31547D01*
G01X49629Y31552D01*
G01X49589Y31555D01*
G01X49550Y31556D01*
G01X49510Y31555D01*
G01X49470Y31552D01*
G01X49431Y31547D01*
G01X49392Y31540D01*
G01X49354Y31530D01*
G01X49316Y31519D01*
G01X49278Y31506D01*
G01X49242Y31491D01*
G01X49206Y31474D01*
G01X49171Y31455D01*
G01X49137Y31434D01*
G01X49105Y31412D01*
G01X49073Y31387D01*
G01X49043Y31362D01*
G01X48987Y31306D01*
G01X48962Y31276D01*
G01X48937Y31244D01*
G01X48915Y31212D01*
G01X48894Y31178D01*
G01X48875Y31143D01*
G01X48858Y31107D01*
G01X48843Y31071D01*
G01X48830Y31033D01*
G01X48819Y30995D01*
G01X48810Y30957D01*
G01X48802Y30918D01*
G01X48797Y30879D01*
G01X48794Y30839D01*
G01X48793Y30800D01*
G01X48794Y30760D01*
G01X48797Y30720D01*
G01X48802Y30681D01*
G01X48810Y30642D01*
G01X48819Y30604D01*
G01X48830Y30566D01*
G01X48843Y30528D01*
G01X48858Y30492D01*
G01X48875Y30456D01*
G01X48894Y30421D01*
G01X48915Y30387D01*
G01X48937Y30355D01*
G01X48962Y30323D01*
G01X48987Y30293D01*
G01X49015Y30265D01*
G01X50485Y28794D01*
G01X50514Y28767D01*
G01X50544Y28741D01*
G01X50576Y28717D01*
G01X50609Y28694D01*
G01X50643Y28673D01*
G01X50678Y28654D01*
G01X50692Y28646D01*
G01X50704Y28636D01*
G01X50714Y28623D01*
G01X50723Y28610D01*
G01X50729Y28595D01*
G01X50733Y28580D01*
G01X50734Y28564D01*
G01X50734Y28441D01*
G01X50735Y28417D01*
G01X50738Y28393D01*
G01X50744Y28370D01*
G01X50751Y28348D01*
G01X50761Y28326D01*
G01X50772Y28305D01*
G01X50786Y28286D01*
G01X50801Y28268D01*
G01X50818Y28251D01*
G01X50836Y28236D01*
G01X50855Y28222D01*
G01X50876Y28211D01*
G01X50898Y28201D01*
G01X50920Y28194D01*
G01X50943Y28188D01*
G01X50967Y28185D01*
G01X50991Y28184D01*
G01X52192Y28184D01*
G01X52207Y28183D01*
G01X52223Y28179D01*
G01X52237Y28173D01*
G01X52251Y28165D01*
G01X52263Y28155D01*
G01X52273Y28143D01*
G01X52281Y28130D01*
G01X52288Y28115D01*
G01X52292Y28100D01*
G01X52293Y28084D01*
G01X52295Y28042D01*
G01X52300Y27999D01*
G01X52307Y27957D01*
G01X52316Y27915D01*
G01X52327Y27874D01*
G01X52341Y27833D01*
G01X52358Y27793D01*
G01X52376Y27755D01*
G01X52397Y27717D01*
G01X52404Y27701D01*
G01X52409Y27684D01*
G01X52411Y27666D01*
G01X52410Y27651D01*
G01X52406Y27637D01*
G01X52401Y27624D01*
G01X52394Y27611D01*
G01X52386Y27599D01*
G01X52376Y27589D01*
G01X52364Y27580D01*
G01X52351Y27573D01*
G01X52338Y27568D01*
G01X52323Y27565D01*
G01X52309Y27564D01*
G01X9862Y27564D01*
G01X9828Y27563D01*
G01X9795Y27560D01*
G01X9762Y27555D01*
G01X9730Y27547D01*
G01X9698Y27537D01*
G01X9667Y27526D01*
G01X9637Y27512D01*
G01X9608Y27496D01*
G01X9580Y27479D01*
G01X9553Y27459D01*
G01X9527Y27438D01*
G01X9503Y27416D01*
G01X2391Y20304D01*
G01X2368Y20279D01*
G01X2347Y20254D01*
G01X2328Y20227D01*
G01X2310Y20199D01*
G01X2294Y20169D01*
G01X2281Y20139D01*
G01X2269Y20108D01*
G01X2259Y20076D01*
G01X2252Y20044D01*
G01X2246Y20011D01*
G01X2243Y19978D01*
G01X2242Y19945D01*
G01X2242Y18951D01*
G01X2241Y18934D01*
G01X2237Y18919D01*
G01X2231Y18904D01*
G01X2222Y18890D01*
G01X2200Y18859D01*
G01X2180Y18827D01*
G01X2162Y18793D01*
G01X2146Y18759D01*
G01X2133Y18723D01*
G01X2121Y18687D01*
G01X2111Y18650D01*
G01X2103Y18613D01*
G01X2098Y18576D01*
G01X2094Y18538D01*
G01X2093Y18500D01*
G01X2094Y18463D01*
G01X2097Y18426D01*
G01X2103Y18390D01*
G01X2110Y18354D01*
G01X2119Y18318D01*
G01X2130Y18283D01*
G01X2143Y18248D01*
G01X2158Y18215D01*
G01X2175Y18182D01*
G01X2194Y18150D01*
G01X2214Y18120D01*
G01X2237Y18090D01*
G01X2260Y18062D01*
G01X2286Y18035D01*
G01X2312Y18010D01*
G01X2340Y17986D01*
G01X2370Y17964D01*
G01X2401Y17944D01*
G01X2432Y17925D01*
G01X2465Y17908D01*
G01X2499Y17893D01*
G01X2533Y17880D01*
G01X2568Y17869D01*
G01X2604Y17860D01*
G01X2640Y17852D01*
G01X2676Y17847D01*
G01X2713Y17844D01*
G01X2750Y17843D01*
G01X2787Y17844D01*
G01X2823Y17847D01*
G01X2860Y17852D01*
G01X2896Y17860D01*
G01X2932Y17869D01*
G01X2967Y17880D01*
G01X3001Y17893D01*
G01X3035Y17908D01*
G01X3067Y17925D01*
G01X3099Y17944D01*
G01X3130Y17964D01*
G01X3159Y17986D01*
G01X3187Y18010D01*
G01X3214Y18035D01*
G01X3239Y18062D01*
G01X3263Y18090D01*
G01X3285Y18120D01*
G01X3306Y18150D01*
G01X3324Y18182D01*
G01X3341Y18215D01*
G01X3356Y18248D01*
G01X3370Y18283D01*
G01X3381Y18318D01*
G01X3390Y18354D01*
G01X3397Y18390D01*
G01X3402Y18426D01*
G01X3405Y18463D01*
G01X3406Y18500D01*
G01X3405Y18538D01*
G01X3402Y18576D01*
G01X3396Y18613D01*
G01X3389Y18651D01*
G01X3379Y18687D01*
G01X3367Y18724D01*
G01X3353Y18759D01*
G01X3337Y18794D01*
G01X3319Y18827D01*
G01X3299Y18860D01*
G01X3277Y18891D01*
G01X3268Y18905D01*
G01X3262Y18920D01*
G01X3258Y18935D01*
G01X3257Y18951D01*
G01X3257Y19692D01*
G01X3258Y19708D01*
G01X3262Y19724D01*
G01X3268Y19739D01*
G01X3276Y19752D01*
G01X3287Y19764D01*
G01X4800Y21278D01*
G01X5267Y21745D01*
G01X10042Y26519D01*
G01X10054Y26530D01*
G01X10068Y26538D01*
G01X10082Y26544D01*
G01X10098Y26548D01*
G01X10114Y26549D01*
G01X13336Y26549D01*
G01X13351Y26548D01*
G01X13365Y26545D01*
G01X13378Y26540D01*
G01X13391Y26533D01*
G01X13403Y26524D01*
G01X13413Y26514D01*
G01X13422Y26503D01*
G01X13429Y26490D01*
G01X13434Y26476D01*
G01X13437Y26462D01*
G01X13438Y26448D01*
G01X13437Y26432D01*
G01X13433Y26416D01*
G01X13427Y26402D01*
G01X13418Y26388D01*
G01X13408Y26376D01*
G01X8012Y20979D01*
G01X8000Y20969D01*
G01X7986Y20961D01*
G01X7971Y20955D01*
G01X7956Y20951D01*
G01X7940Y20950D01*
G01X7928Y20950D01*
G01X7889Y20954D01*
G01X7850Y20955D01*
G01X7813Y20954D01*
G01X7776Y20951D01*
G01X7740Y20946D01*
G01X7704Y20939D01*
G01X7668Y20929D01*
G01X7633Y20918D01*
G01X7598Y20905D01*
G01X7565Y20890D01*
G01X7532Y20873D01*
G01X7500Y20854D01*
G01X7470Y20834D01*
G01X7440Y20812D01*
G01X7412Y20788D01*
G01X7385Y20763D01*
G01X7360Y20736D01*
G01X7336Y20708D01*
G01X7314Y20678D01*
G01X7294Y20648D01*
G01X7275Y20616D01*
G01X7258Y20583D01*
G01X7243Y20550D01*
G01X7230Y20515D01*
G01X7219Y20480D01*
G01X7210Y20445D01*
G01X7202Y20408D01*
G01X7197Y20372D01*
G01X7194Y20335D01*
G01X7193Y20298D01*
G01X7194Y20260D01*
G01X7198Y20222D01*
G01X7203Y20183D01*
G01X7211Y20146D01*
G01X7221Y20108D01*
G01X7233Y20072D01*
G01X7248Y20036D01*
G01X7264Y20001D01*
G01X7283Y19967D01*
G01X7303Y19935D01*
G01X7325Y19903D01*
G01X7349Y19873D01*
G01X7375Y19845D01*
G01X7403Y19818D01*
G01X7432Y19792D01*
G01X7462Y19768D01*
G01X7477Y19755D01*
G01X7499Y19732D01*
G01X7523Y19711D01*
G01X7549Y19691D01*
G01X7575Y19673D01*
G01X7603Y19656D01*
G01X7632Y19641D01*
G01X7661Y19629D01*
G01X7691Y19618D01*
G01X7722Y19608D01*
G01X7754Y19601D01*
G01X7785Y19596D01*
G01X7818Y19593D01*
G01X7850Y19592D01*
G01X7883Y19593D01*
G01X7916Y19596D01*
G01X7949Y19602D01*
G01X7981Y19609D01*
G01X8013Y19619D01*
G01X8044Y19631D01*
G01X8074Y19644D01*
G01X8103Y19660D01*
G01X8132Y19678D01*
G01X8159Y19697D01*
G01X8184Y19718D01*
G01X8209Y19741D01*
G01X8228Y19761D01*
G01X8240Y19771D01*
G01X8271Y19795D01*
G01X8300Y19821D01*
G01X8327Y19848D01*
G01X8353Y19877D01*
G01X8378Y19908D01*
G01X8387Y19920D01*
G01X14030Y25562D01*
G01X14042Y25573D01*
G01X14056Y25581D01*
G01X14071Y25587D01*
G01X14086Y25591D01*
G01X14102Y25592D01*
G01X96382Y25592D01*
G01X96400Y25591D01*
G01X96417Y25586D01*
G01X96455Y25573D01*
G01X96493Y25562D01*
G01X96532Y25554D01*
G01X96571Y25548D01*
G01X96610Y25544D01*
G01X96650Y25543D01*
G01X96687Y25544D01*
G01X96723Y25547D01*
G01X96760Y25552D01*
G01X96796Y25560D01*
G01X96832Y25569D01*
G01X96867Y25580D01*
G01X96901Y25593D01*
G01X96935Y25608D01*
G01X96967Y25625D01*
G01X96999Y25644D01*
G01X97030Y25664D01*
G01X97059Y25686D01*
G01X97087Y25710D01*
G01X97114Y25735D01*
G01X97139Y25762D01*
G01X97163Y25790D01*
G01X97185Y25820D01*
G01X97206Y25850D01*
G01X97224Y25882D01*
G01X97241Y25915D01*
G01X97256Y25948D01*
G01X97269Y25983D01*
G01X97281Y26018D01*
G01X97290Y26054D01*
G01X97297Y26090D01*
G01X97302Y26126D01*
G01X97305Y26163D01*
G01X97306Y26200D01*
G01X97305Y26236D01*
G01X97302Y26273D01*
G01X97297Y26310D01*
G01X97290Y26346D01*
G01X97281Y26381D01*
G01X97269Y26416D01*
G01X97256Y26451D01*
G01X97241Y26485D01*
G01X97224Y26517D01*
G01X97206Y26549D01*
G01X97185Y26580D01*
G01X97163Y26609D01*
G01X97139Y26637D01*
G01X97114Y26664D01*
G01X97087Y26689D01*
G01X97059Y26713D01*
G01X97030Y26735D01*
G01X96999Y26756D01*
G01X96967Y26774D01*
G01X96935Y26791D01*
G01X96901Y26806D01*
G01X96867Y26819D01*
G01X96832Y26831D01*
G01X96796Y26840D01*
G01X96760Y26847D01*
G01X96723Y26852D01*
G01X96687Y26855D01*
G01X96650Y26856D01*
G01X96598Y26854D01*
G01X96590Y26854D01*
G01X96576Y26855D01*
G01X96561Y26858D01*
G01X96548Y26863D01*
G01X96535Y26870D01*
G01X96524Y26879D01*
G01X96513Y26889D01*
G01X96505Y26901D01*
G01X96498Y26913D01*
G01X96493Y26927D01*
G01X96489Y26941D01*
G01X96488Y26955D01*
G01X96490Y26976D01*
G01X96496Y26995D01*
G01X96510Y27030D01*
G01X96521Y27065D01*
G01X96531Y27101D01*
G01X96538Y27138D01*
G01X96544Y27175D01*
G01X96547Y27212D01*
G01X96548Y27250D01*
G01X96547Y27286D01*
G01X96544Y27323D01*
G01X96539Y27360D01*
G01X96531Y27396D01*
G01X96522Y27431D01*
G01X96511Y27467D01*
G01X96498Y27501D01*
G01X96483Y27535D01*
G01X96466Y27567D01*
G01X96447Y27599D01*
G01X96427Y27630D01*
G01X96405Y27659D01*
G01X96381Y27687D01*
G01X96356Y27714D01*
G01X96329Y27739D01*
G01X96301Y27763D01*
G01X96271Y27785D01*
G01X96241Y27806D01*
G01X96209Y27824D01*
G01X96176Y27841D01*
G01X96143Y27856D01*
G01X96108Y27869D01*
G01X96073Y27881D01*
G01X96037Y27890D01*
G01X96001Y27897D01*
G01X95965Y27902D01*
G01X95928Y27905D01*
G01X95891Y27906D01*
G01X95853Y27905D01*
G01X95815Y27902D01*
G01X95777Y27896D01*
G01X95740Y27889D01*
G01X95703Y27879D01*
G01X95667Y27867D01*
G01X95631Y27852D01*
G01X95597Y27836D01*
G01X95563Y27818D01*
G01X95530Y27798D01*
G01X95499Y27776D01*
G01X95469Y27752D01*
G01X95441Y27727D01*
G01X95414Y27700D01*
G01X95388Y27671D01*
G01X95365Y27641D01*
G01X95343Y27610D01*
G01X95334Y27599D01*
G01X95324Y27589D01*
G01X95312Y27580D01*
G01X95300Y27573D01*
G01X95286Y27568D01*
G01X95272Y27565D01*
G01X95258Y27564D01*
G01X57190Y27564D01*
G01X57176Y27565D01*
G01X57161Y27568D01*
G01X57148Y27573D01*
G01X57135Y27580D01*
G01X57124Y27589D01*
G01X57113Y27599D01*
G01X57105Y27611D01*
G01X57098Y27624D01*
G01X57093Y27637D01*
G01X57089Y27651D01*
G01X57088Y27666D01*
G01X57090Y27684D01*
G01X57095Y27701D01*
G01X57102Y27717D01*
G01X57122Y27752D01*
G01X57139Y27788D01*
G01X57155Y27825D01*
G01X57168Y27863D01*
G01X57180Y27901D01*
G01X57189Y27940D01*
G01X57197Y27980D01*
G01X57202Y28020D01*
G01X57205Y28059D01*
G01X57206Y28100D01*
G01X57205Y28139D01*
G01X57202Y28179D01*
G01X57197Y28218D01*
G01X57190Y28257D01*
G01X57180Y28295D01*
G01X57169Y28333D01*
G01X57156Y28371D01*
G01X57141Y28407D01*
G01X57124Y28443D01*
G01X57105Y28478D01*
G01X57084Y28512D01*
G01X57062Y28544D01*
G01X57037Y28576D01*
G01X57012Y28606D01*
G01X56984Y28634D01*
G01X56491Y29128D01*
G01X56481Y29140D01*
G01X56473Y29153D01*
G01X56466Y29168D01*
G01X56463Y29184D01*
G01X56462Y29200D01*
G01X56463Y29215D01*
G01X56466Y29231D01*
G01X56473Y29246D01*
G01X56481Y29259D01*
G01X56491Y29271D01*
G01X57584Y30365D01*
G01X57612Y30393D01*
G01X57637Y30423D01*
G01X57662Y30455D01*
G01X57684Y30487D01*
G01X57705Y30521D01*
G01X57724Y30556D01*
G01X57741Y30592D01*
G01X57756Y30628D01*
G01X57769Y30666D01*
G01X57780Y30704D01*
G01X57790Y30742D01*
G01X57797Y30781D01*
G01X57802Y30820D01*
G01X57805Y30860D01*
G01X57806Y30900D01*
G01X57805Y30939D01*
G01X57802Y30979D01*
G01X57797Y31018D01*
G01X57790Y31057D01*
G01X57780Y31095D01*
G01X57769Y31133D01*
G01X57756Y31171D01*
G01X57741Y31207D01*
G01X57724Y31243D01*
G01X57705Y31278D01*
G01X57684Y31312D01*
G01X57662Y31344D01*
G01X57637Y31376D01*
G01X57612Y31406D01*
G01X57556Y31462D01*
G01X57526Y31487D01*
G01X57494Y31512D01*
G01X57462Y31534D01*
G01X57428Y31555D01*
G01X57393Y31574D01*
G01X57357Y31591D01*
G01X57321Y31606D01*
G01X57283Y31619D01*
G01X57245Y31630D01*
G01X57207Y31640D01*
G01X57168Y31647D01*
G01X57129Y31652D01*
G01X57089Y31655D01*
G37*
G36*
G01X95928Y56305D02*
G01X95891Y56306D01*
G01X95853Y56305D01*
G01X95815Y56302D01*
G01X95777Y56296D01*
G01X95740Y56288D01*
G01X95703Y56279D01*
G01X95667Y56267D01*
G01X95631Y56252D01*
G01X95596Y56236D01*
G01X95563Y56218D01*
G01X95530Y56198D01*
G01X95499Y56176D01*
G01X95469Y56152D01*
G01X95440Y56127D01*
G01X95413Y56100D01*
G01X95388Y56071D01*
G01X95364Y56041D01*
G01X95342Y56010D01*
G01X95334Y55999D01*
G01X95324Y55988D01*
G01X95312Y55980D01*
G01X95299Y55973D01*
G01X95286Y55968D01*
G01X95272Y55965D01*
G01X95258Y55964D01*
G01X9861Y55964D01*
G01X9828Y55963D01*
G01X9795Y55960D01*
G01X9762Y55954D01*
G01X9730Y55947D01*
G01X9698Y55937D01*
G01X9667Y55925D01*
G01X9637Y55912D01*
G01X9608Y55896D01*
G01X9579Y55879D01*
G01X9552Y55859D01*
G01X9527Y55838D01*
G01X9502Y55815D01*
G01X2391Y48704D01*
G01X2368Y48679D01*
G01X2347Y48654D01*
G01X2328Y48627D01*
G01X2310Y48598D01*
G01X2294Y48569D01*
G01X2281Y48539D01*
G01X2269Y48508D01*
G01X2259Y48476D01*
G01X2252Y48444D01*
G01X2246Y48411D01*
G01X2243Y48378D01*
G01X2242Y48345D01*
G01X2242Y47351D01*
G01X2241Y47335D01*
G01X2237Y47319D01*
G01X2231Y47304D01*
G01X2222Y47290D01*
G01X2200Y47259D01*
G01X2180Y47227D01*
G01X2162Y47193D01*
G01X2146Y47159D01*
G01X2132Y47123D01*
G01X2120Y47087D01*
G01X2111Y47050D01*
G01X2103Y47013D01*
G01X2097Y46975D01*
G01X2094Y46937D01*
G01X2093Y46899D01*
G01X2094Y46863D01*
G01X2097Y46826D01*
G01X2102Y46789D01*
G01X2109Y46753D01*
G01X2119Y46718D01*
G01X2130Y46683D01*
G01X2143Y46648D01*
G01X2158Y46615D01*
G01X2175Y46582D01*
G01X2194Y46550D01*
G01X2214Y46519D01*
G01X2236Y46490D01*
G01X2260Y46462D01*
G01X2285Y46435D01*
G01X2312Y46410D01*
G01X2340Y46386D01*
G01X2370Y46364D01*
G01X2400Y46343D01*
G01X2432Y46325D01*
G01X2465Y46308D01*
G01X2498Y46293D01*
G01X2533Y46280D01*
G01X2568Y46269D01*
G01X2603Y46259D01*
G01X2640Y46252D01*
G01X2676Y46247D01*
G01X2713Y46244D01*
G01X2750Y46243D01*
G01X2786Y46244D01*
G01X2823Y46247D01*
G01X2860Y46252D01*
G01X2896Y46259D01*
G01X2931Y46269D01*
G01X2966Y46280D01*
G01X3001Y46293D01*
G01X3034Y46308D01*
G01X3067Y46325D01*
G01X3099Y46343D01*
G01X3129Y46364D01*
G01X3159Y46386D01*
G01X3187Y46410D01*
G01X3214Y46435D01*
G01X3239Y46462D01*
G01X3263Y46490D01*
G01X3285Y46519D01*
G01X3305Y46550D01*
G01X3324Y46582D01*
G01X3341Y46615D01*
G01X3356Y46648D01*
G01X3369Y46683D01*
G01X3380Y46718D01*
G01X3390Y46753D01*
G01X3397Y46789D01*
G01X3402Y46826D01*
G01X3405Y46863D01*
G01X3406Y46899D01*
G01X3405Y46937D01*
G01X3402Y46975D01*
G01X3396Y47013D01*
G01X3389Y47050D01*
G01X3379Y47087D01*
G01X3367Y47123D01*
G01X3353Y47159D01*
G01X3337Y47193D01*
G01X3319Y47227D01*
G01X3299Y47259D01*
G01X3277Y47290D01*
G01X3268Y47304D01*
G01X3262Y47319D01*
G01X3258Y47335D01*
G01X3257Y47351D01*
G01X3257Y48092D01*
G01X3258Y48108D01*
G01X3262Y48124D01*
G01X3268Y48139D01*
G01X3276Y48152D01*
G01X3287Y48164D01*
G01X10042Y54919D01*
G01X10054Y54930D01*
G01X10068Y54938D01*
G01X10082Y54944D01*
G01X10098Y54948D01*
G01X10114Y54949D01*
G01X13336Y54949D01*
G01X13350Y54948D01*
G01X13365Y54945D01*
G01X13378Y54940D01*
G01X13391Y54933D01*
G01X13402Y54924D01*
G01X13413Y54914D01*
G01X13421Y54902D01*
G01X13428Y54890D01*
G01X13433Y54876D01*
G01X13436Y54862D01*
G01X13438Y54847D01*
G01X13436Y54832D01*
G01X13433Y54816D01*
G01X13426Y54801D01*
G01X13418Y54788D01*
G01X13408Y54776D01*
G01X8012Y49380D01*
G01X8000Y49370D01*
G01X7987Y49362D01*
G01X7972Y49356D01*
G01X7957Y49352D01*
G01X7941Y49351D01*
G01X7928Y49351D01*
G01X7889Y49355D01*
G01X7850Y49356D01*
G01X7813Y49355D01*
G01X7776Y49352D01*
G01X7740Y49347D01*
G01X7704Y49340D01*
G01X7668Y49330D01*
G01X7633Y49319D01*
G01X7598Y49306D01*
G01X7565Y49291D01*
G01X7532Y49274D01*
G01X7500Y49255D01*
G01X7470Y49235D01*
G01X7440Y49213D01*
G01X7412Y49189D01*
G01X7385Y49164D01*
G01X7360Y49137D01*
G01X7336Y49109D01*
G01X7314Y49079D01*
G01X7294Y49049D01*
G01X7275Y49017D01*
G01X7258Y48984D01*
G01X7243Y48951D01*
G01X7230Y48916D01*
G01X7219Y48881D01*
G01X7210Y48846D01*
G01X7202Y48809D01*
G01X7197Y48773D01*
G01X7194Y48736D01*
G01X7193Y48699D01*
G01X7194Y48661D01*
G01X7198Y48623D01*
G01X7203Y48585D01*
G01X7211Y48548D01*
G01X7221Y48511D01*
G01X7233Y48474D01*
G01X7247Y48439D01*
G01X7263Y48404D01*
G01X7281Y48371D01*
G01X7302Y48338D01*
G01X7324Y48307D01*
G01X7347Y48277D01*
G01X7373Y48248D01*
G01X7400Y48221D01*
G01X7429Y48196D01*
G01X7459Y48172D01*
G01X7474Y48159D01*
G01X7496Y48135D01*
G01X7520Y48113D01*
G01X7546Y48093D01*
G01X7572Y48074D01*
G01X7600Y48057D01*
G01X7629Y48042D01*
G01X7659Y48029D01*
G01X7689Y48018D01*
G01X7721Y48009D01*
G01X7752Y48001D01*
G01X7785Y47996D01*
G01X7817Y47993D01*
G01X7849Y47992D01*
G01X7883Y47993D01*
G01X7916Y47996D01*
G01X7949Y48002D01*
G01X7981Y48009D01*
G01X8013Y48019D01*
G01X8044Y48031D01*
G01X8074Y48044D01*
G01X8103Y48060D01*
G01X8131Y48078D01*
G01X8158Y48097D01*
G01X8184Y48118D01*
G01X8232Y48164D01*
G01X8243Y48174D01*
G01X8272Y48197D01*
G01X8300Y48222D01*
G01X8327Y48249D01*
G01X8352Y48277D01*
G01X8375Y48306D01*
G01X8385Y48317D01*
G01X14030Y53962D01*
G01X14042Y53973D01*
G01X14056Y53981D01*
G01X14070Y53987D01*
G01X14086Y53991D01*
G01X14102Y53992D01*
G01X96381Y53992D01*
G01X96399Y53990D01*
G01X96417Y53985D01*
G01X96454Y53973D01*
G01X96493Y53962D01*
G01X96531Y53954D01*
G01X96571Y53948D01*
G01X96610Y53944D01*
G01X96650Y53943D01*
G01X96686Y53944D01*
G01X96723Y53947D01*
G01X96760Y53952D01*
G01X96796Y53959D01*
G01X96831Y53969D01*
G01X96866Y53980D01*
G01X96901Y53993D01*
G01X96934Y54008D01*
G01X96967Y54025D01*
G01X96999Y54043D01*
G01X97029Y54064D01*
G01X97059Y54086D01*
G01X97087Y54110D01*
G01X97114Y54135D01*
G01X97139Y54162D01*
G01X97163Y54190D01*
G01X97185Y54219D01*
G01X97205Y54250D01*
G01X97224Y54282D01*
G01X97241Y54315D01*
G01X97256Y54348D01*
G01X97269Y54383D01*
G01X97280Y54418D01*
G01X97290Y54453D01*
G01X97297Y54489D01*
G01X97302Y54526D01*
G01X97305Y54563D01*
G01X97306Y54599D01*
G01X97305Y54636D01*
G01X97302Y54673D01*
G01X97297Y54709D01*
G01X97290Y54745D01*
G01X97280Y54781D01*
G01X97269Y54816D01*
G01X97256Y54851D01*
G01X97241Y54884D01*
G01X97224Y54917D01*
G01X97205Y54949D01*
G01X97185Y54979D01*
G01X97163Y55009D01*
G01X97139Y55037D01*
G01X97114Y55064D01*
G01X97087Y55089D01*
G01X97059Y55113D01*
G01X97029Y55135D01*
G01X96999Y55155D01*
G01X96967Y55174D01*
G01X96934Y55191D01*
G01X96901Y55206D01*
G01X96866Y55219D01*
G01X96831Y55230D01*
G01X96796Y55239D01*
G01X96760Y55247D01*
G01X96723Y55252D01*
G01X96686Y55255D01*
G01X96650Y55256D01*
G01X96598Y55254D01*
G01X96590Y55254D01*
G01X96576Y55255D01*
G01X96561Y55258D01*
G01X96548Y55263D01*
G01X96535Y55270D01*
G01X96523Y55278D01*
G01X96513Y55289D01*
G01X96504Y55300D01*
G01X96498Y55313D01*
G01X96492Y55327D01*
G01X96489Y55341D01*
G01X96488Y55355D01*
G01X96490Y55375D01*
G01X96496Y55395D01*
G01X96510Y55430D01*
G01X96521Y55465D01*
G01X96531Y55501D01*
G01X96538Y55538D01*
G01X96544Y55575D01*
G01X96547Y55612D01*
G01X96548Y55650D01*
G01X96547Y55686D01*
G01X96544Y55723D01*
G01X96539Y55760D01*
G01X96531Y55796D01*
G01X96522Y55831D01*
G01X96511Y55867D01*
G01X96498Y55901D01*
G01X96483Y55935D01*
G01X96466Y55967D01*
G01X96447Y55999D01*
G01X96427Y56030D01*
G01X96405Y56059D01*
G01X96381Y56087D01*
G01X96356Y56114D01*
G01X96329Y56139D01*
G01X96301Y56163D01*
G01X96271Y56185D01*
G01X96241Y56206D01*
G01X96209Y56224D01*
G01X96176Y56241D01*
G01X96143Y56256D01*
G01X96108Y56269D01*
G01X96073Y56281D01*
G01X96037Y56290D01*
G01X96001Y56297D01*
G01X95965Y56302D01*
G01X95928Y56305D01*
G37*
G36*
G01X95928Y18405D02*
G01X95891Y18406D01*
G01X95853Y18405D01*
G01X95815Y18402D01*
G01X95777Y18396D01*
G01X95740Y18388D01*
G01X95703Y18379D01*
G01X95667Y18366D01*
G01X95631Y18352D01*
G01X95597Y18336D01*
G01X95563Y18318D01*
G01X95530Y18298D01*
G01X95499Y18276D01*
G01X95469Y18252D01*
G01X95441Y18227D01*
G01X95414Y18200D01*
G01X95388Y18171D01*
G01X95365Y18141D01*
G01X95343Y18110D01*
G01X95334Y18099D01*
G01X95324Y18089D01*
G01X95312Y18080D01*
G01X95300Y18073D01*
G01X95286Y18068D01*
G01X95272Y18065D01*
G01X95258Y18064D01*
G01X9862Y18064D01*
G01X9828Y18063D01*
G01X9795Y18060D01*
G01X9762Y18055D01*
G01X9730Y18047D01*
G01X9698Y18037D01*
G01X9667Y18026D01*
G01X9637Y18012D01*
G01X9608Y17996D01*
G01X9580Y17979D01*
G01X9553Y17959D01*
G01X9527Y17938D01*
G01X9503Y17916D01*
G01X2391Y10804D01*
G01X2368Y10779D01*
G01X2347Y10754D01*
G01X2328Y10727D01*
G01X2310Y10699D01*
G01X2294Y10669D01*
G01X2281Y10639D01*
G01X2269Y10608D01*
G01X2259Y10576D01*
G01X2252Y10544D01*
G01X2246Y10511D01*
G01X2243Y10478D01*
G01X2242Y10445D01*
G01X2242Y9451D01*
G01X2241Y9435D01*
G01X2237Y9419D01*
G01X2231Y9404D01*
G01X2222Y9390D01*
G01X2200Y9359D01*
G01X2180Y9327D01*
G01X2162Y9293D01*
G01X2146Y9259D01*
G01X2133Y9223D01*
G01X2121Y9187D01*
G01X2111Y9151D01*
G01X2103Y9113D01*
G01X2098Y9076D01*
G01X2094Y9038D01*
G01X2093Y9000D01*
G01X2094Y8963D01*
G01X2097Y8926D01*
G01X2103Y8890D01*
G01X2110Y8854D01*
G01X2119Y8818D01*
G01X2130Y8783D01*
G01X2143Y8749D01*
G01X2158Y8715D01*
G01X2175Y8682D01*
G01X2194Y8650D01*
G01X2214Y8620D01*
G01X2237Y8590D01*
G01X2260Y8562D01*
G01X2312Y8510D01*
G01X2340Y8486D01*
G01X2370Y8464D01*
G01X2401Y8444D01*
G01X2432Y8425D01*
G01X2465Y8408D01*
G01X2499Y8393D01*
G01X2533Y8380D01*
G01X2568Y8369D01*
G01X2604Y8360D01*
G01X2640Y8353D01*
G01X2676Y8347D01*
G01X2713Y8344D01*
G01X2750Y8343D01*
G01X2787Y8344D01*
G01X2823Y8347D01*
G01X2860Y8353D01*
G01X2896Y8360D01*
G01X2932Y8369D01*
G01X2967Y8380D01*
G01X3001Y8393D01*
G01X3035Y8408D01*
G01X3067Y8425D01*
G01X3099Y8444D01*
G01X3130Y8464D01*
G01X3159Y8486D01*
G01X3187Y8510D01*
G01X3214Y8536D01*
G01X3239Y8562D01*
G01X3263Y8590D01*
G01X3285Y8620D01*
G01X3306Y8650D01*
G01X3324Y8682D01*
G01X3341Y8715D01*
G01X3356Y8749D01*
G01X3370Y8783D01*
G01X3381Y8818D01*
G01X3390Y8854D01*
G01X3397Y8890D01*
G01X3402Y8926D01*
G01X3405Y8963D01*
G01X3406Y9000D01*
G01X3405Y9038D01*
G01X3402Y9076D01*
G01X3396Y9114D01*
G01X3389Y9151D01*
G01X3379Y9188D01*
G01X3367Y9224D01*
G01X3353Y9259D01*
G01X3337Y9294D01*
G01X3319Y9327D01*
G01X3299Y9360D01*
G01X3277Y9391D01*
G01X3268Y9405D01*
G01X3262Y9420D01*
G01X3258Y9435D01*
G01X3257Y9452D01*
G01X3257Y10192D01*
G01X3258Y10208D01*
G01X3262Y10224D01*
G01X3268Y10239D01*
G01X3276Y10252D01*
G01X3287Y10264D01*
G01X4800Y11778D01*
G01X5267Y12245D01*
G01X10042Y17019D01*
G01X10054Y17030D01*
G01X10068Y17038D01*
G01X10082Y17044D01*
G01X10098Y17048D01*
G01X10114Y17049D01*
G01X13336Y17049D01*
G01X13351Y17048D01*
G01X13365Y17045D01*
G01X13378Y17040D01*
G01X13391Y17033D01*
G01X13403Y17024D01*
G01X13413Y17014D01*
G01X13422Y17003D01*
G01X13429Y16990D01*
G01X13434Y16976D01*
G01X13437Y16962D01*
G01X13438Y16948D01*
G01X13437Y16932D01*
G01X13433Y16916D01*
G01X13427Y16901D01*
G01X13418Y16888D01*
G01X13408Y16876D01*
G01X8012Y11480D01*
G01X8000Y11470D01*
G01X7987Y11462D01*
G01X7972Y11455D01*
G01X7956Y11452D01*
G01X7941Y11450D01*
G01X7928Y11451D01*
G01X7889Y11455D01*
G01X7850Y11456D01*
G01X7813Y11455D01*
G01X7776Y11452D01*
G01X7740Y11447D01*
G01X7704Y11439D01*
G01X7668Y11430D01*
G01X7633Y11419D01*
G01X7598Y11406D01*
G01X7565Y11391D01*
G01X7532Y11374D01*
G01X7500Y11355D01*
G01X7470Y11335D01*
G01X7440Y11313D01*
G01X7412Y11289D01*
G01X7385Y11264D01*
G01X7360Y11237D01*
G01X7336Y11209D01*
G01X7314Y11179D01*
G01X7294Y11149D01*
G01X7275Y11117D01*
G01X7258Y11084D01*
G01X7243Y11051D01*
G01X7230Y11016D01*
G01X7219Y10981D01*
G01X7210Y10945D01*
G01X7202Y10909D01*
G01X7197Y10873D01*
G01X7194Y10836D01*
G01X7193Y10799D01*
G01X7194Y10761D01*
G01X7198Y10723D01*
G01X7203Y10685D01*
G01X7211Y10647D01*
G01X7221Y10610D01*
G01X7233Y10574D01*
G01X7247Y10538D01*
G01X7264Y10503D01*
G01X7282Y10470D01*
G01X7302Y10437D01*
G01X7324Y10406D01*
G01X7348Y10376D01*
G01X7374Y10347D01*
G01X7401Y10320D01*
G01X7430Y10295D01*
G01X7460Y10271D01*
G01X7475Y10258D01*
G01X7497Y10234D01*
G01X7521Y10213D01*
G01X7547Y10192D01*
G01X7573Y10174D01*
G01X7601Y10157D01*
G01X7630Y10142D01*
G01X7660Y10129D01*
G01X7690Y10118D01*
G01X7721Y10109D01*
G01X7753Y10101D01*
G01X7785Y10096D01*
G01X7817Y10093D01*
G01X7850Y10092D01*
G01X7883Y10093D01*
G01X7916Y10096D01*
G01X7949Y10102D01*
G01X7981Y10109D01*
G01X8013Y10119D01*
G01X8044Y10131D01*
G01X8074Y10144D01*
G01X8103Y10160D01*
G01X8132Y10178D01*
G01X8159Y10197D01*
G01X8184Y10218D01*
G01X8209Y10241D01*
G01X8232Y10264D01*
G01X8243Y10274D01*
G01X8272Y10297D01*
G01X8300Y10322D01*
G01X8327Y10349D01*
G01X8352Y10377D01*
G01X8375Y10406D01*
G01X8385Y10417D01*
G01X14030Y16062D01*
G01X14042Y16073D01*
G01X14056Y16081D01*
G01X14071Y16087D01*
G01X14086Y16091D01*
G01X14102Y16092D01*
G01X96381Y16092D01*
G01X96400Y16090D01*
G01X96417Y16086D01*
G01X96455Y16073D01*
G01X96493Y16062D01*
G01X96532Y16054D01*
G01X96571Y16048D01*
G01X96610Y16044D01*
G01X96650Y16043D01*
G01X96687Y16044D01*
G01X96723Y16047D01*
G01X96760Y16052D01*
G01X96796Y16059D01*
G01X96832Y16069D01*
G01X96867Y16080D01*
G01X96901Y16093D01*
G01X96935Y16108D01*
G01X96967Y16125D01*
G01X96999Y16144D01*
G01X97030Y16164D01*
G01X97059Y16186D01*
G01X97087Y16210D01*
G01X97114Y16235D01*
G01X97139Y16262D01*
G01X97163Y16290D01*
G01X97185Y16320D01*
G01X97206Y16350D01*
G01X97224Y16382D01*
G01X97241Y16415D01*
G01X97256Y16448D01*
G01X97269Y16483D01*
G01X97281Y16518D01*
G01X97290Y16553D01*
G01X97297Y16590D01*
G01X97302Y16626D01*
G01X97305Y16663D01*
G01X97306Y16700D01*
G01X97305Y16736D01*
G01X97302Y16773D01*
G01X97297Y16810D01*
G01X97290Y16846D01*
G01X97281Y16881D01*
G01X97269Y16916D01*
G01X97256Y16951D01*
G01X97241Y16984D01*
G01X97224Y17017D01*
G01X97206Y17049D01*
G01X97185Y17079D01*
G01X97163Y17109D01*
G01X97139Y17137D01*
G01X97114Y17164D01*
G01X97087Y17189D01*
G01X97059Y17213D01*
G01X97030Y17235D01*
G01X96999Y17255D01*
G01X96967Y17274D01*
G01X96935Y17291D01*
G01X96901Y17306D01*
G01X96867Y17319D01*
G01X96832Y17330D01*
G01X96796Y17340D01*
G01X96760Y17347D01*
G01X96723Y17352D01*
G01X96687Y17355D01*
G01X96650Y17356D01*
G01X96598Y17354D01*
G01X96590Y17354D01*
G01X96576Y17355D01*
G01X96561Y17358D01*
G01X96548Y17363D01*
G01X96535Y17370D01*
G01X96524Y17379D01*
G01X96513Y17389D01*
G01X96505Y17400D01*
G01X96498Y17413D01*
G01X96493Y17427D01*
G01X96489Y17441D01*
G01X96488Y17455D01*
G01X96490Y17475D01*
G01X96496Y17495D01*
G01X96510Y17530D01*
G01X96521Y17565D01*
G01X96531Y17601D01*
G01X96538Y17638D01*
G01X96544Y17675D01*
G01X96547Y17712D01*
G01X96548Y17750D01*
G01X96547Y17786D01*
G01X96544Y17823D01*
G01X96539Y17860D01*
G01X96531Y17896D01*
G01X96522Y17931D01*
G01X96511Y17966D01*
G01X96498Y18001D01*
G01X96483Y18034D01*
G01X96466Y18067D01*
G01X96447Y18099D01*
G01X96427Y18129D01*
G01X96405Y18159D01*
G01X96381Y18187D01*
G01X96356Y18214D01*
G01X96329Y18239D01*
G01X96301Y18263D01*
G01X96271Y18285D01*
G01X96241Y18305D01*
G01X96209Y18324D01*
G01X96176Y18341D01*
G01X96143Y18356D01*
G01X96108Y18369D01*
G01X96073Y18380D01*
G01X96037Y18390D01*
G01X96001Y18397D01*
G01X95965Y18402D01*
G01X95928Y18405D01*
G37*
G36*
G01X95928Y75205D02*
G01X95891Y75206D01*
G01X95853Y75205D01*
G01X95814Y75202D01*
G01X95776Y75196D01*
G01X95739Y75188D01*
G01X95701Y75178D01*
G01X95665Y75166D01*
G01X95629Y75152D01*
G01X95594Y75135D01*
G01X95560Y75117D01*
G01X95527Y75096D01*
G01X95496Y75074D01*
G01X95466Y75050D01*
G01X95437Y75024D01*
G01X95398Y74985D01*
G01X95384Y74976D01*
G01X95369Y74970D01*
G01X95352Y74965D01*
G01X95336Y74964D01*
G01X9861Y74964D01*
G01X9828Y74963D01*
G01X9795Y74960D01*
G01X9762Y74954D01*
G01X9730Y74947D01*
G01X9698Y74937D01*
G01X9667Y74925D01*
G01X9637Y74912D01*
G01X9608Y74896D01*
G01X9579Y74879D01*
G01X9552Y74859D01*
G01X9527Y74838D01*
G01X9502Y74815D01*
G01X2391Y67704D01*
G01X2368Y67679D01*
G01X2347Y67654D01*
G01X2328Y67627D01*
G01X2310Y67599D01*
G01X2294Y67569D01*
G01X2281Y67539D01*
G01X2269Y67508D01*
G01X2259Y67476D01*
G01X2252Y67444D01*
G01X2246Y67411D01*
G01X2243Y67378D01*
G01X2242Y67345D01*
G01X2242Y66351D01*
G01X2241Y66335D01*
G01X2237Y66319D01*
G01X2231Y66304D01*
G01X2222Y66290D01*
G01X2200Y66259D01*
G01X2180Y66227D01*
G01X2162Y66193D01*
G01X2146Y66159D01*
G01X2132Y66123D01*
G01X2120Y66087D01*
G01X2111Y66050D01*
G01X2103Y66013D01*
G01X2097Y65976D01*
G01X2094Y65938D01*
G01X2093Y65900D01*
G01X2094Y65863D01*
G01X2097Y65826D01*
G01X2102Y65790D01*
G01X2109Y65754D01*
G01X2119Y65718D01*
G01X2130Y65683D01*
G01X2143Y65648D01*
G01X2158Y65615D01*
G01X2175Y65582D01*
G01X2194Y65550D01*
G01X2214Y65520D01*
G01X2236Y65490D01*
G01X2260Y65462D01*
G01X2285Y65435D01*
G01X2312Y65410D01*
G01X2340Y65386D01*
G01X2370Y65364D01*
G01X2400Y65344D01*
G01X2432Y65325D01*
G01X2465Y65308D01*
G01X2498Y65293D01*
G01X2533Y65280D01*
G01X2568Y65269D01*
G01X2603Y65260D01*
G01X2640Y65252D01*
G01X2676Y65247D01*
G01X2713Y65244D01*
G01X2750Y65243D01*
G01X2786Y65244D01*
G01X2823Y65247D01*
G01X2860Y65252D01*
G01X2896Y65260D01*
G01X2931Y65269D01*
G01X2966Y65280D01*
G01X3001Y65293D01*
G01X3034Y65308D01*
G01X3067Y65325D01*
G01X3099Y65344D01*
G01X3129Y65364D01*
G01X3159Y65386D01*
G01X3187Y65410D01*
G01X3214Y65435D01*
G01X3239Y65462D01*
G01X3263Y65490D01*
G01X3285Y65520D01*
G01X3305Y65550D01*
G01X3324Y65582D01*
G01X3341Y65615D01*
G01X3356Y65648D01*
G01X3369Y65683D01*
G01X3380Y65718D01*
G01X3390Y65754D01*
G01X3397Y65790D01*
G01X3402Y65826D01*
G01X3405Y65863D01*
G01X3406Y65900D01*
G01X3405Y65938D01*
G01X3402Y65976D01*
G01X3396Y66013D01*
G01X3389Y66051D01*
G01X3379Y66087D01*
G01X3367Y66123D01*
G01X3353Y66159D01*
G01X3337Y66193D01*
G01X3319Y66227D01*
G01X3299Y66259D01*
G01X3277Y66291D01*
G01X3268Y66304D01*
G01X3262Y66319D01*
G01X3258Y66335D01*
G01X3257Y66351D01*
G01X3257Y67092D01*
G01X3258Y67108D01*
G01X3262Y67124D01*
G01X3268Y67139D01*
G01X3276Y67152D01*
G01X3287Y67164D01*
G01X10042Y73919D01*
G01X10054Y73930D01*
G01X10068Y73938D01*
G01X10082Y73944D01*
G01X10098Y73948D01*
G01X10114Y73949D01*
G01X13336Y73949D01*
G01X13350Y73948D01*
G01X13365Y73945D01*
G01X13378Y73940D01*
G01X13391Y73933D01*
G01X13402Y73924D01*
G01X13413Y73914D01*
G01X13421Y73902D01*
G01X13428Y73890D01*
G01X13433Y73876D01*
G01X13436Y73862D01*
G01X13438Y73847D01*
G01X13436Y73832D01*
G01X13433Y73816D01*
G01X13426Y73801D01*
G01X13418Y73788D01*
G01X13408Y73776D01*
G01X7918Y68286D01*
G01X7906Y68276D01*
G01X7893Y68267D01*
G01X7878Y68261D01*
G01X7862Y68257D01*
G01X7847Y68256D01*
G01X7810Y68255D01*
G01X7773Y68252D01*
G01X7737Y68246D01*
G01X7701Y68239D01*
G01X7666Y68230D01*
G01X7631Y68219D01*
G01X7596Y68205D01*
G01X7563Y68190D01*
G01X7530Y68173D01*
G01X7499Y68155D01*
G01X7468Y68134D01*
G01X7439Y68112D01*
G01X7411Y68088D01*
G01X7384Y68063D01*
G01X7359Y68036D01*
G01X7336Y68008D01*
G01X7314Y67979D01*
G01X7293Y67948D01*
G01X7275Y67916D01*
G01X7258Y67884D01*
G01X7243Y67850D01*
G01X7230Y67816D01*
G01X7219Y67781D01*
G01X7209Y67745D01*
G01X7202Y67709D01*
G01X7197Y67673D01*
G01X7194Y67636D01*
G01X7193Y67600D01*
G01X7194Y67563D01*
G01X7197Y67526D01*
G01X7202Y67490D01*
G01X7210Y67454D01*
G01X7219Y67418D01*
G01X7230Y67383D01*
G01X7243Y67348D01*
G01X7258Y67315D01*
G01X7275Y67282D01*
G01X7294Y67250D01*
G01X7314Y67220D01*
G01X7336Y67190D01*
G01X7360Y67162D01*
G01X7385Y67135D01*
G01X7412Y67110D01*
G01X7440Y67086D01*
G01X7470Y67064D01*
G01X7500Y67044D01*
G01X7532Y67025D01*
G01X7565Y67008D01*
G01X7598Y66993D01*
G01X7633Y66980D01*
G01X7668Y66969D01*
G01X7704Y66960D01*
G01X7740Y66952D01*
G01X7776Y66947D01*
G01X7813Y66944D01*
G01X7850Y66943D01*
G01X7887Y66944D01*
G01X7924Y66947D01*
G01X7960Y66953D01*
G01X7997Y66960D01*
G01X8033Y66969D01*
G01X8068Y66981D01*
G01X8103Y66994D01*
G01X8137Y67009D01*
G01X8169Y67026D01*
G01X8201Y67045D01*
G01X8232Y67066D01*
G01X8262Y67089D01*
G01X8290Y67113D01*
G01X8317Y67138D01*
G01X8342Y67165D01*
G01X8366Y67194D01*
G01X8388Y67224D01*
G01X8408Y67255D01*
G01X8427Y67287D01*
G01X8444Y67320D01*
G01X8459Y67354D01*
G01X8471Y67389D01*
G01X8477Y67403D01*
G01X8486Y67416D01*
G01X8496Y67428D01*
G01X14030Y72962D01*
G01X14042Y72973D01*
G01X14056Y72981D01*
G01X14070Y72987D01*
G01X14086Y72991D01*
G01X14102Y72992D01*
G01X96382Y72992D01*
G01X96400Y72990D01*
G01X96417Y72985D01*
G01X96455Y72973D01*
G01X96493Y72962D01*
G01X96532Y72954D01*
G01X96571Y72948D01*
G01X96610Y72944D01*
G01X96650Y72943D01*
G01X96686Y72944D01*
G01X96723Y72947D01*
G01X96760Y72952D01*
G01X96796Y72960D01*
G01X96831Y72969D01*
G01X96866Y72980D01*
G01X96901Y72993D01*
G01X96934Y73008D01*
G01X96967Y73025D01*
G01X96999Y73044D01*
G01X97029Y73064D01*
G01X97059Y73086D01*
G01X97087Y73110D01*
G01X97114Y73135D01*
G01X97139Y73162D01*
G01X97163Y73190D01*
G01X97185Y73220D01*
G01X97205Y73250D01*
G01X97224Y73282D01*
G01X97241Y73315D01*
G01X97256Y73348D01*
G01X97269Y73383D01*
G01X97280Y73418D01*
G01X97290Y73454D01*
G01X97297Y73490D01*
G01X97302Y73526D01*
G01X97305Y73563D01*
G01X97306Y73600D01*
G01X97305Y73636D01*
G01X97302Y73673D01*
G01X97297Y73710D01*
G01X97290Y73746D01*
G01X97280Y73781D01*
G01X97269Y73816D01*
G01X97256Y73851D01*
G01X97241Y73884D01*
G01X97224Y73917D01*
G01X97205Y73949D01*
G01X97185Y73980D01*
G01X97163Y74009D01*
G01X97139Y74037D01*
G01X97114Y74064D01*
G01X97087Y74089D01*
G01X97059Y74113D01*
G01X97029Y74135D01*
G01X96999Y74156D01*
G01X96967Y74174D01*
G01X96934Y74191D01*
G01X96901Y74206D01*
G01X96866Y74219D01*
G01X96831Y74230D01*
G01X96796Y74240D01*
G01X96760Y74247D01*
G01X96723Y74252D01*
G01X96686Y74255D01*
G01X96650Y74256D01*
G01X96625Y74256D01*
G01X96610Y74257D01*
G01X96596Y74260D01*
G01X96582Y74265D01*
G01X96570Y74272D01*
G01X96558Y74281D01*
G01X96548Y74291D01*
G01X96539Y74302D01*
G01X96532Y74315D01*
G01X96527Y74329D01*
G01X96524Y74343D01*
G01X96523Y74357D01*
G01X96526Y74383D01*
G01X96536Y74424D01*
G01X96542Y74466D01*
G01X96547Y74508D01*
G01X96548Y74550D01*
G01X96547Y74587D01*
G01X96544Y74623D01*
G01X96539Y74660D01*
G01X96531Y74696D01*
G01X96522Y74732D01*
G01X96511Y74767D01*
G01X96498Y74801D01*
G01X96483Y74835D01*
G01X96466Y74867D01*
G01X96447Y74899D01*
G01X96427Y74930D01*
G01X96405Y74959D01*
G01X96381Y74987D01*
G01X96356Y75014D01*
G01X96329Y75039D01*
G01X96301Y75063D01*
G01X96271Y75085D01*
G01X96241Y75106D01*
G01X96209Y75124D01*
G01X96176Y75141D01*
G01X96143Y75156D01*
G01X96108Y75170D01*
G01X96073Y75181D01*
G01X96037Y75190D01*
G01X96001Y75197D01*
G01X95965Y75202D01*
G01X95928Y75205D01*
G37*
G36*
G01X95828Y65705D02*
G01X95791Y65706D01*
G01X95753Y65705D01*
G01X95714Y65702D01*
G01X95676Y65696D01*
G01X95638Y65688D01*
G01X95601Y65678D01*
G01X95565Y65666D01*
G01X95529Y65652D01*
G01X95494Y65635D01*
G01X95460Y65617D01*
G01X95427Y65596D01*
G01X95396Y65574D01*
G01X95366Y65550D01*
G01X95337Y65524D01*
G01X95298Y65485D01*
G01X95284Y65476D01*
G01X95269Y65470D01*
G01X95252Y65465D01*
G01X95236Y65464D01*
G01X9861Y65464D01*
G01X9828Y65463D01*
G01X9795Y65460D01*
G01X9762Y65454D01*
G01X9730Y65447D01*
G01X9698Y65437D01*
G01X9667Y65425D01*
G01X9637Y65412D01*
G01X9608Y65396D01*
G01X9579Y65379D01*
G01X9552Y65359D01*
G01X9527Y65338D01*
G01X9502Y65315D01*
G01X2391Y58204D01*
G01X2368Y58179D01*
G01X2347Y58154D01*
G01X2328Y58127D01*
G01X2310Y58098D01*
G01X2294Y58069D01*
G01X2281Y58039D01*
G01X2269Y58008D01*
G01X2259Y57976D01*
G01X2252Y57944D01*
G01X2246Y57911D01*
G01X2243Y57878D01*
G01X2242Y57845D01*
G01X2242Y56851D01*
G01X2241Y56835D01*
G01X2237Y56819D01*
G01X2231Y56804D01*
G01X2222Y56790D01*
G01X2200Y56759D01*
G01X2180Y56727D01*
G01X2162Y56693D01*
G01X2146Y56659D01*
G01X2132Y56623D01*
G01X2120Y56587D01*
G01X2111Y56550D01*
G01X2103Y56513D01*
G01X2097Y56475D01*
G01X2094Y56438D01*
G01X2093Y56399D01*
G01X2094Y56363D01*
G01X2097Y56326D01*
G01X2102Y56290D01*
G01X2109Y56253D01*
G01X2119Y56218D01*
G01X2130Y56183D01*
G01X2143Y56148D01*
G01X2158Y56115D01*
G01X2175Y56082D01*
G01X2194Y56050D01*
G01X2214Y56020D01*
G01X2236Y55990D01*
G01X2260Y55962D01*
G01X2285Y55935D01*
G01X2312Y55910D01*
G01X2340Y55886D01*
G01X2370Y55864D01*
G01X2400Y55844D01*
G01X2432Y55825D01*
G01X2465Y55808D01*
G01X2498Y55793D01*
G01X2533Y55780D01*
G01X2568Y55769D01*
G01X2603Y55759D01*
G01X2640Y55752D01*
G01X2676Y55747D01*
G01X2713Y55744D01*
G01X2750Y55743D01*
G01X2786Y55744D01*
G01X2823Y55747D01*
G01X2860Y55752D01*
G01X2896Y55759D01*
G01X2931Y55769D01*
G01X2966Y55780D01*
G01X3001Y55793D01*
G01X3034Y55808D01*
G01X3067Y55825D01*
G01X3099Y55844D01*
G01X3129Y55864D01*
G01X3159Y55886D01*
G01X3187Y55910D01*
G01X3214Y55935D01*
G01X3239Y55962D01*
G01X3263Y55990D01*
G01X3285Y56020D01*
G01X3305Y56050D01*
G01X3324Y56082D01*
G01X3341Y56115D01*
G01X3356Y56148D01*
G01X3369Y56183D01*
G01X3380Y56218D01*
G01X3390Y56253D01*
G01X3397Y56290D01*
G01X3402Y56326D01*
G01X3405Y56363D01*
G01X3406Y56399D01*
G01X3405Y56438D01*
G01X3402Y56475D01*
G01X3396Y56513D01*
G01X3389Y56550D01*
G01X3379Y56587D01*
G01X3367Y56623D01*
G01X3353Y56659D01*
G01X3337Y56693D01*
G01X3319Y56727D01*
G01X3299Y56759D01*
G01X3277Y56790D01*
G01X3268Y56804D01*
G01X3262Y56819D01*
G01X3258Y56835D01*
G01X3257Y56851D01*
G01X3257Y57592D01*
G01X3258Y57608D01*
G01X3262Y57624D01*
G01X3268Y57639D01*
G01X3276Y57652D01*
G01X3287Y57664D01*
G01X10042Y64419D01*
G01X10054Y64430D01*
G01X10068Y64438D01*
G01X10082Y64444D01*
G01X10098Y64448D01*
G01X10114Y64449D01*
G01X13333Y64449D01*
G01X13347Y64448D01*
G01X13362Y64445D01*
G01X13375Y64440D01*
G01X13388Y64433D01*
G01X13399Y64424D01*
G01X13410Y64414D01*
G01X13418Y64402D01*
G01X13425Y64390D01*
G01X13430Y64376D01*
G01X13433Y64362D01*
G01X13435Y64347D01*
G01X13433Y64331D01*
G01X13429Y64315D01*
G01X13423Y64300D01*
G01X13414Y64287D01*
G01X13404Y64274D01*
G01X7821Y58878D01*
G01X7809Y58868D01*
G01X7795Y58860D01*
G01X7780Y58854D01*
G01X7764Y58851D01*
G01X7727Y58845D01*
G01X7690Y58836D01*
G01X7653Y58826D01*
G01X7618Y58814D01*
G01X7583Y58799D01*
G01X7549Y58783D01*
G01X7515Y58765D01*
G01X7483Y58745D01*
G01X7453Y58723D01*
G01X7423Y58699D01*
G01X7395Y58673D01*
G01X7369Y58647D01*
G01X7344Y58618D01*
G01X7321Y58588D01*
G01X7299Y58557D01*
G01X7279Y58525D01*
G01X7262Y58492D01*
G01X7246Y58457D01*
G01X7232Y58422D01*
G01X7220Y58386D01*
G01X7210Y58350D01*
G01X7203Y58312D01*
G01X7197Y58275D01*
G01X7194Y58237D01*
G01X7193Y58200D01*
G01X7194Y58163D01*
G01X7197Y58126D01*
G01X7202Y58090D01*
G01X7210Y58053D01*
G01X7219Y58018D01*
G01X7230Y57983D01*
G01X7243Y57948D01*
G01X7258Y57915D01*
G01X7275Y57882D01*
G01X7294Y57850D01*
G01X7314Y57820D01*
G01X7336Y57790D01*
G01X7360Y57762D01*
G01X7385Y57735D01*
G01X7412Y57710D01*
G01X7440Y57686D01*
G01X7470Y57664D01*
G01X7500Y57644D01*
G01X7532Y57625D01*
G01X7565Y57608D01*
G01X7598Y57593D01*
G01X7633Y57580D01*
G01X7668Y57569D01*
G01X7704Y57560D01*
G01X7740Y57552D01*
G01X7776Y57547D01*
G01X7813Y57544D01*
G01X7850Y57543D01*
G01X7887Y57544D01*
G01X7923Y57547D01*
G01X7960Y57552D01*
G01X7996Y57560D01*
G01X8032Y57569D01*
G01X8067Y57580D01*
G01X8102Y57593D01*
G01X8135Y57608D01*
G01X8168Y57625D01*
G01X8200Y57644D01*
G01X8230Y57665D01*
G01X8260Y57687D01*
G01X8288Y57711D01*
G01X8315Y57736D01*
G01X8340Y57763D01*
G01X8364Y57791D01*
G01X8386Y57821D01*
G01X8406Y57852D01*
G01X8425Y57884D01*
G01X8442Y57917D01*
G01X8457Y57950D01*
G01X8470Y57985D01*
G01X8481Y58020D01*
G01X8490Y58056D01*
G01X8497Y58092D01*
G01X8501Y58108D01*
G01X8508Y58123D01*
G01X8516Y58136D01*
G01X8527Y58148D01*
G01X14025Y63463D01*
G01X14037Y63473D01*
G01X14051Y63481D01*
G01X14065Y63487D01*
G01X14080Y63491D01*
G01X14096Y63492D01*
G01X96381Y63492D01*
G01X96400Y63490D01*
G01X96417Y63485D01*
G01X96455Y63473D01*
G01X96493Y63462D01*
G01X96531Y63454D01*
G01X96571Y63448D01*
G01X96610Y63444D01*
G01X96650Y63443D01*
G01X96686Y63444D01*
G01X96723Y63447D01*
G01X96760Y63452D01*
G01X96796Y63459D01*
G01X96831Y63469D01*
G01X96866Y63480D01*
G01X96901Y63493D01*
G01X96934Y63508D01*
G01X96967Y63525D01*
G01X96999Y63544D01*
G01X97029Y63564D01*
G01X97059Y63586D01*
G01X97087Y63610D01*
G01X97114Y63635D01*
G01X97139Y63662D01*
G01X97163Y63690D01*
G01X97185Y63720D01*
G01X97205Y63750D01*
G01X97224Y63782D01*
G01X97241Y63815D01*
G01X97256Y63848D01*
G01X97269Y63883D01*
G01X97280Y63918D01*
G01X97290Y63953D01*
G01X97297Y63990D01*
G01X97302Y64026D01*
G01X97305Y64063D01*
G01X97306Y64099D01*
G01X97305Y64136D01*
G01X97302Y64173D01*
G01X97297Y64209D01*
G01X97290Y64246D01*
G01X97280Y64281D01*
G01X97269Y64316D01*
G01X97256Y64351D01*
G01X97241Y64384D01*
G01X97224Y64417D01*
G01X97205Y64449D01*
G01X97185Y64479D01*
G01X97163Y64509D01*
G01X97139Y64537D01*
G01X97114Y64564D01*
G01X97087Y64589D01*
G01X97059Y64613D01*
G01X97029Y64635D01*
G01X96999Y64655D01*
G01X96967Y64674D01*
G01X96934Y64691D01*
G01X96901Y64706D01*
G01X96866Y64719D01*
G01X96831Y64730D01*
G01X96796Y64740D01*
G01X96760Y64747D01*
G01X96723Y64752D01*
G01X96686Y64755D01*
G01X96650Y64756D01*
G01X96613Y64755D01*
G01X96576Y64752D01*
G01X96539Y64747D01*
G01X96522Y64745D01*
G01X96507Y64746D01*
G01X96493Y64749D01*
G01X96480Y64754D01*
G01X96467Y64761D01*
G01X96455Y64770D01*
G01X96445Y64780D01*
G01X96436Y64792D01*
G01X96429Y64805D01*
G01X96424Y64818D01*
G01X96421Y64832D01*
G01X96420Y64847D01*
G01X96424Y64874D01*
G01X96434Y64917D01*
G01X96442Y64961D01*
G01X96446Y65005D01*
G01X96448Y65050D01*
G01X96447Y65087D01*
G01X96444Y65123D01*
G01X96439Y65160D01*
G01X96431Y65196D01*
G01X96422Y65231D01*
G01X96411Y65267D01*
G01X96398Y65301D01*
G01X96383Y65335D01*
G01X96366Y65367D01*
G01X96347Y65399D01*
G01X96327Y65430D01*
G01X96305Y65459D01*
G01X96281Y65487D01*
G01X96256Y65514D01*
G01X96229Y65539D01*
G01X96201Y65563D01*
G01X96171Y65585D01*
G01X96141Y65606D01*
G01X96109Y65624D01*
G01X96076Y65641D01*
G01X96043Y65656D01*
G01X96008Y65669D01*
G01X95973Y65681D01*
G01X95937Y65690D01*
G01X95901Y65697D01*
G01X95865Y65702D01*
G01X95828Y65705D01*
G37*
G36*
G01X95928Y46805D02*
G01X95891Y46806D01*
G01X95853Y46805D01*
G01X95814Y46802D01*
G01X95776Y46796D01*
G01X95739Y46788D01*
G01X95701Y46778D01*
G01X95665Y46766D01*
G01X95629Y46752D01*
G01X95594Y46735D01*
G01X95560Y46717D01*
G01X95528Y46696D01*
G01X95496Y46674D01*
G01X95466Y46650D01*
G01X95437Y46624D01*
G01X95398Y46585D01*
G01X95384Y46576D01*
G01X95369Y46570D01*
G01X95352Y46566D01*
G01X95336Y46564D01*
G01X9861Y46564D01*
G01X9828Y46563D01*
G01X9795Y46560D01*
G01X9762Y46554D01*
G01X9730Y46547D01*
G01X9698Y46537D01*
G01X9667Y46526D01*
G01X9637Y46512D01*
G01X9608Y46496D01*
G01X9579Y46479D01*
G01X9552Y46459D01*
G01X9527Y46438D01*
G01X9502Y46415D01*
G01X2390Y39303D01*
G01X2368Y39279D01*
G01X2347Y39254D01*
G01X2327Y39227D01*
G01X2310Y39198D01*
G01X2294Y39169D01*
G01X2280Y39139D01*
G01X2269Y39108D01*
G01X2259Y39076D01*
G01X2252Y39044D01*
G01X2246Y39011D01*
G01X2243Y38978D01*
G01X2242Y38945D01*
G01X2242Y37951D01*
G01X2240Y37934D01*
G01X2237Y37919D01*
G01X2230Y37904D01*
G01X2222Y37890D01*
G01X2200Y37859D01*
G01X2180Y37827D01*
G01X2162Y37793D01*
G01X2146Y37759D01*
G01X2132Y37723D01*
G01X2120Y37687D01*
G01X2111Y37650D01*
G01X2103Y37613D01*
G01X2097Y37575D01*
G01X2094Y37538D01*
G01X2093Y37500D01*
G01X2094Y37463D01*
G01X2097Y37426D01*
G01X2102Y37390D01*
G01X2109Y37354D01*
G01X2119Y37318D01*
G01X2130Y37283D01*
G01X2143Y37248D01*
G01X2158Y37215D01*
G01X2175Y37182D01*
G01X2194Y37150D01*
G01X2214Y37120D01*
G01X2236Y37090D01*
G01X2260Y37062D01*
G01X2285Y37035D01*
G01X2312Y37010D01*
G01X2340Y36986D01*
G01X2370Y36964D01*
G01X2400Y36944D01*
G01X2432Y36925D01*
G01X2465Y36908D01*
G01X2498Y36893D01*
G01X2533Y36880D01*
G01X2568Y36869D01*
G01X2603Y36860D01*
G01X2640Y36852D01*
G01X2676Y36847D01*
G01X2713Y36844D01*
G01X2750Y36843D01*
G01X2786Y36844D01*
G01X2823Y36847D01*
G01X2860Y36852D01*
G01X2896Y36860D01*
G01X2931Y36869D01*
G01X2966Y36880D01*
G01X3001Y36893D01*
G01X3034Y36908D01*
G01X3067Y36925D01*
G01X3099Y36944D01*
G01X3129Y36964D01*
G01X3159Y36986D01*
G01X3187Y37010D01*
G01X3214Y37035D01*
G01X3239Y37062D01*
G01X3263Y37090D01*
G01X3285Y37120D01*
G01X3305Y37150D01*
G01X3324Y37182D01*
G01X3341Y37215D01*
G01X3356Y37248D01*
G01X3369Y37283D01*
G01X3380Y37318D01*
G01X3390Y37354D01*
G01X3397Y37390D01*
G01X3402Y37426D01*
G01X3405Y37463D01*
G01X3406Y37500D01*
G01X3405Y37538D01*
G01X3402Y37576D01*
G01X3396Y37613D01*
G01X3388Y37651D01*
G01X3379Y37687D01*
G01X3367Y37724D01*
G01X3353Y37759D01*
G01X3337Y37794D01*
G01X3319Y37827D01*
G01X3299Y37860D01*
G01X3277Y37891D01*
G01X3268Y37904D01*
G01X3262Y37919D01*
G01X3258Y37935D01*
G01X3257Y37951D01*
G01X3257Y38692D01*
G01X3258Y38708D01*
G01X3262Y38724D01*
G01X3268Y38738D01*
G01X3276Y38752D01*
G01X3287Y38764D01*
G01X4800Y40277D01*
G01X5267Y40745D01*
G01X10042Y45519D01*
G01X10054Y45530D01*
G01X10067Y45538D01*
G01X10082Y45544D01*
G01X10098Y45548D01*
G01X10114Y45549D01*
G01X13336Y45549D01*
G01X13350Y45548D01*
G01X13365Y45545D01*
G01X13378Y45540D01*
G01X13391Y45533D01*
G01X13403Y45524D01*
G01X13413Y45514D01*
G01X13421Y45502D01*
G01X13428Y45490D01*
G01X13433Y45476D01*
G01X13437Y45462D01*
G01X13438Y45447D01*
G01X13436Y45432D01*
G01X13433Y45416D01*
G01X13427Y45401D01*
G01X13418Y45388D01*
G01X13408Y45376D01*
G01X7918Y39886D01*
G01X7906Y39876D01*
G01X7893Y39867D01*
G01X7878Y39861D01*
G01X7863Y39857D01*
G01X7847Y39856D01*
G01X7810Y39855D01*
G01X7773Y39852D01*
G01X7737Y39846D01*
G01X7701Y39839D01*
G01X7666Y39830D01*
G01X7631Y39819D01*
G01X7596Y39805D01*
G01X7563Y39790D01*
G01X7530Y39773D01*
G01X7499Y39755D01*
G01X7468Y39734D01*
G01X7439Y39712D01*
G01X7411Y39688D01*
G01X7384Y39663D01*
G01X7359Y39636D01*
G01X7336Y39608D01*
G01X7314Y39579D01*
G01X7293Y39548D01*
G01X7275Y39516D01*
G01X7258Y39484D01*
G01X7243Y39450D01*
G01X7230Y39416D01*
G01X7219Y39381D01*
G01X7209Y39345D01*
G01X7202Y39309D01*
G01X7197Y39273D01*
G01X7194Y39236D01*
G01X7193Y39200D01*
G01X7194Y39163D01*
G01X7197Y39126D01*
G01X7202Y39090D01*
G01X7210Y39054D01*
G01X7219Y39018D01*
G01X7230Y38983D01*
G01X7243Y38948D01*
G01X7258Y38915D01*
G01X7275Y38882D01*
G01X7294Y38850D01*
G01X7314Y38820D01*
G01X7336Y38790D01*
G01X7360Y38762D01*
G01X7385Y38735D01*
G01X7412Y38710D01*
G01X7440Y38686D01*
G01X7470Y38664D01*
G01X7500Y38644D01*
G01X7532Y38625D01*
G01X7565Y38608D01*
G01X7598Y38593D01*
G01X7633Y38580D01*
G01X7668Y38569D01*
G01X7704Y38560D01*
G01X7740Y38552D01*
G01X7776Y38547D01*
G01X7813Y38544D01*
G01X7850Y38543D01*
G01X7887Y38544D01*
G01X7924Y38547D01*
G01X7960Y38553D01*
G01X7997Y38560D01*
G01X8033Y38569D01*
G01X8068Y38581D01*
G01X8103Y38594D01*
G01X8137Y38609D01*
G01X8169Y38626D01*
G01X8201Y38645D01*
G01X8232Y38666D01*
G01X8262Y38688D01*
G01X8290Y38713D01*
G01X8317Y38738D01*
G01X8342Y38765D01*
G01X8366Y38794D01*
G01X8388Y38824D01*
G01X8408Y38855D01*
G01X8427Y38887D01*
G01X8444Y38920D01*
G01X8458Y38954D01*
G01X8471Y38989D01*
G01X8477Y39003D01*
G01X8486Y39016D01*
G01X8496Y39028D01*
G01X14030Y44562D01*
G01X14042Y44573D01*
G01X14056Y44581D01*
G01X14070Y44587D01*
G01X14086Y44591D01*
G01X14102Y44592D01*
G01X96382Y44592D01*
G01X96400Y44590D01*
G01X96418Y44585D01*
G01X96455Y44573D01*
G01X96493Y44562D01*
G01X96532Y44554D01*
G01X96571Y44548D01*
G01X96610Y44544D01*
G01X96650Y44543D01*
G01X96686Y44544D01*
G01X96723Y44547D01*
G01X96760Y44552D01*
G01X96796Y44560D01*
G01X96831Y44569D01*
G01X96866Y44580D01*
G01X96901Y44593D01*
G01X96934Y44608D01*
G01X96967Y44625D01*
G01X96999Y44644D01*
G01X97029Y44664D01*
G01X97059Y44686D01*
G01X97087Y44710D01*
G01X97114Y44735D01*
G01X97139Y44762D01*
G01X97163Y44790D01*
G01X97185Y44820D01*
G01X97205Y44850D01*
G01X97224Y44882D01*
G01X97241Y44915D01*
G01X97256Y44948D01*
G01X97269Y44983D01*
G01X97280Y45018D01*
G01X97290Y45054D01*
G01X97297Y45090D01*
G01X97302Y45126D01*
G01X97305Y45163D01*
G01X97306Y45200D01*
G01X97305Y45236D01*
G01X97302Y45273D01*
G01X97297Y45310D01*
G01X97290Y45346D01*
G01X97280Y45381D01*
G01X97269Y45416D01*
G01X97256Y45451D01*
G01X97241Y45484D01*
G01X97224Y45517D01*
G01X97205Y45549D01*
G01X97185Y45580D01*
G01X97163Y45609D01*
G01X97139Y45637D01*
G01X97114Y45664D01*
G01X97087Y45689D01*
G01X97059Y45713D01*
G01X97029Y45735D01*
G01X96999Y45756D01*
G01X96967Y45774D01*
G01X96934Y45791D01*
G01X96901Y45806D01*
G01X96866Y45819D01*
G01X96831Y45830D01*
G01X96796Y45840D01*
G01X96760Y45847D01*
G01X96723Y45852D01*
G01X96686Y45855D01*
G01X96650Y45856D01*
G01X96625Y45856D01*
G01X96610Y45857D01*
G01X96596Y45860D01*
G01X96582Y45865D01*
G01X96570Y45872D01*
G01X96558Y45881D01*
G01X96548Y45891D01*
G01X96539Y45902D01*
G01X96532Y45915D01*
G01X96527Y45929D01*
G01X96524Y45943D01*
G01X96523Y45957D01*
G01X96526Y45983D01*
G01X96536Y46024D01*
G01X96542Y46066D01*
G01X96547Y46108D01*
G01X96548Y46150D01*
G01X96547Y46187D01*
G01X96544Y46223D01*
G01X96539Y46260D01*
G01X96531Y46296D01*
G01X96522Y46332D01*
G01X96511Y46367D01*
G01X96498Y46401D01*
G01X96483Y46435D01*
G01X96466Y46467D01*
G01X96447Y46499D01*
G01X96427Y46530D01*
G01X96405Y46559D01*
G01X96381Y46587D01*
G01X96356Y46614D01*
G01X96329Y46639D01*
G01X96301Y46663D01*
G01X96271Y46685D01*
G01X96241Y46706D01*
G01X96209Y46724D01*
G01X96176Y46741D01*
G01X96143Y46756D01*
G01X96108Y46770D01*
G01X96073Y46781D01*
G01X96037Y46790D01*
G01X96001Y46797D01*
G01X95965Y46802D01*
G01X95928Y46805D01*
G37*
G36*
G01X95928Y84705D02*
G01X95891Y84706D01*
G01X95853Y84705D01*
G01X95814Y84702D01*
G01X95776Y84696D01*
G01X95739Y84688D01*
G01X95701Y84678D01*
G01X95665Y84666D01*
G01X95629Y84652D01*
G01X95594Y84635D01*
G01X95560Y84617D01*
G01X95528Y84596D01*
G01X95496Y84574D01*
G01X95466Y84550D01*
G01X95437Y84524D01*
G01X95398Y84485D01*
G01X95384Y84476D01*
G01X95369Y84470D01*
G01X95353Y84465D01*
G01X95336Y84464D01*
G01X9861Y84464D01*
G01X9828Y84463D01*
G01X9795Y84460D01*
G01X9762Y84454D01*
G01X9730Y84447D01*
G01X9698Y84437D01*
G01X9667Y84425D01*
G01X9637Y84412D01*
G01X9608Y84396D01*
G01X9579Y84379D01*
G01X9552Y84359D01*
G01X9527Y84338D01*
G01X9502Y84315D01*
G01X2391Y77204D01*
G01X2368Y77179D01*
G01X2347Y77154D01*
G01X2328Y77127D01*
G01X2310Y77099D01*
G01X2294Y77069D01*
G01X2281Y77039D01*
G01X2269Y77008D01*
G01X2259Y76976D01*
G01X2252Y76944D01*
G01X2246Y76911D01*
G01X2243Y76878D01*
G01X2242Y76845D01*
G01X2242Y75851D01*
G01X2241Y75835D01*
G01X2237Y75819D01*
G01X2231Y75804D01*
G01X2222Y75790D01*
G01X2200Y75759D01*
G01X2180Y75727D01*
G01X2162Y75693D01*
G01X2146Y75659D01*
G01X2132Y75623D01*
G01X2120Y75587D01*
G01X2111Y75550D01*
G01X2103Y75513D01*
G01X2097Y75475D01*
G01X2094Y75437D01*
G01X2093Y75399D01*
G01X2094Y75363D01*
G01X2097Y75326D01*
G01X2102Y75289D01*
G01X2109Y75253D01*
G01X2119Y75218D01*
G01X2130Y75183D01*
G01X2143Y75148D01*
G01X2158Y75115D01*
G01X2175Y75082D01*
G01X2194Y75050D01*
G01X2214Y75020D01*
G01X2236Y74990D01*
G01X2260Y74962D01*
G01X2285Y74935D01*
G01X2312Y74910D01*
G01X2340Y74886D01*
G01X2370Y74864D01*
G01X2400Y74844D01*
G01X2432Y74825D01*
G01X2465Y74808D01*
G01X2498Y74793D01*
G01X2533Y74780D01*
G01X2568Y74769D01*
G01X2603Y74759D01*
G01X2640Y74752D01*
G01X2676Y74747D01*
G01X2713Y74744D01*
G01X2750Y74743D01*
G01X2786Y74744D01*
G01X2823Y74747D01*
G01X2860Y74752D01*
G01X2896Y74759D01*
G01X2931Y74769D01*
G01X2966Y74780D01*
G01X3001Y74793D01*
G01X3034Y74808D01*
G01X3067Y74825D01*
G01X3099Y74844D01*
G01X3129Y74864D01*
G01X3159Y74886D01*
G01X3187Y74910D01*
G01X3214Y74935D01*
G01X3239Y74962D01*
G01X3263Y74990D01*
G01X3285Y75020D01*
G01X3305Y75050D01*
G01X3324Y75082D01*
G01X3341Y75115D01*
G01X3356Y75148D01*
G01X3369Y75183D01*
G01X3380Y75218D01*
G01X3390Y75253D01*
G01X3397Y75289D01*
G01X3402Y75326D01*
G01X3405Y75363D01*
G01X3406Y75399D01*
G01X3405Y75437D01*
G01X3402Y75475D01*
G01X3396Y75513D01*
G01X3389Y75550D01*
G01X3379Y75587D01*
G01X3367Y75623D01*
G01X3353Y75659D01*
G01X3337Y75693D01*
G01X3319Y75727D01*
G01X3299Y75759D01*
G01X3277Y75790D01*
G01X3268Y75804D01*
G01X3262Y75819D01*
G01X3258Y75835D01*
G01X3257Y75851D01*
G01X3257Y76592D01*
G01X3258Y76608D01*
G01X3262Y76624D01*
G01X3268Y76639D01*
G01X3276Y76652D01*
G01X3287Y76664D01*
G01X10042Y83419D01*
G01X10054Y83430D01*
G01X10068Y83438D01*
G01X10082Y83444D01*
G01X10098Y83448D01*
G01X10114Y83449D01*
G01X13336Y83449D01*
G01X13350Y83448D01*
G01X13365Y83445D01*
G01X13378Y83440D01*
G01X13391Y83433D01*
G01X13402Y83424D01*
G01X13413Y83414D01*
G01X13421Y83402D01*
G01X13428Y83390D01*
G01X13433Y83376D01*
G01X13436Y83362D01*
G01X13438Y83347D01*
G01X13436Y83332D01*
G01X13433Y83316D01*
G01X13426Y83301D01*
G01X13418Y83288D01*
G01X13408Y83276D01*
G01X7923Y77791D01*
G01X7911Y77780D01*
G01X7897Y77772D01*
G01X7883Y77766D01*
G01X7867Y77762D01*
G01X7851Y77761D01*
G01X7850Y77761D01*
G01X7813Y77760D01*
G01X7776Y77757D01*
G01X7740Y77752D01*
G01X7704Y77745D01*
G01X7668Y77735D01*
G01X7633Y77724D01*
G01X7598Y77711D01*
G01X7565Y77696D01*
G01X7532Y77679D01*
G01X7500Y77660D01*
G01X7470Y77640D01*
G01X7440Y77618D01*
G01X7412Y77594D01*
G01X7385Y77569D01*
G01X7360Y77542D01*
G01X7336Y77514D01*
G01X7314Y77484D01*
G01X7294Y77454D01*
G01X7275Y77422D01*
G01X7258Y77389D01*
G01X7243Y77356D01*
G01X7230Y77321D01*
G01X7219Y77286D01*
G01X7210Y77251D01*
G01X7202Y77215D01*
G01X7197Y77178D01*
G01X7194Y77141D01*
G01X7193Y77105D01*
G01X7194Y77068D01*
G01X7197Y77031D01*
G01X7202Y76995D01*
G01X7210Y76958D01*
G01X7219Y76923D01*
G01X7230Y76888D01*
G01X7243Y76853D01*
G01X7258Y76820D01*
G01X7275Y76787D01*
G01X7294Y76755D01*
G01X7314Y76725D01*
G01X7336Y76695D01*
G01X7360Y76667D01*
G01X7385Y76640D01*
G01X7412Y76615D01*
G01X7440Y76591D01*
G01X7470Y76569D01*
G01X7500Y76549D01*
G01X7532Y76530D01*
G01X7565Y76513D01*
G01X7598Y76498D01*
G01X7633Y76485D01*
G01X7668Y76474D01*
G01X7704Y76464D01*
G01X7740Y76457D01*
G01X7776Y76452D01*
G01X7813Y76449D01*
G01X7850Y76448D01*
G01X7886Y76449D01*
G01X7923Y76452D01*
G01X7960Y76457D01*
G01X7996Y76464D01*
G01X8031Y76474D01*
G01X8066Y76485D01*
G01X8101Y76498D01*
G01X8134Y76513D01*
G01X8167Y76530D01*
G01X8199Y76549D01*
G01X8229Y76569D01*
G01X8259Y76591D01*
G01X8287Y76615D01*
G01X8314Y76640D01*
G01X8339Y76667D01*
G01X8363Y76695D01*
G01X8385Y76724D01*
G01X8405Y76755D01*
G01X8424Y76787D01*
G01X8441Y76819D01*
G01X8456Y76853D01*
G01X8469Y76887D01*
G01X8475Y76901D01*
G01X8483Y76914D01*
G01X8493Y76925D01*
G01X14030Y82462D01*
G01X14042Y82473D01*
G01X14056Y82481D01*
G01X14070Y82487D01*
G01X14086Y82491D01*
G01X14102Y82492D01*
G01X96381Y82492D01*
G01X96399Y82490D01*
G01X96417Y82485D01*
G01X96455Y82473D01*
G01X96493Y82462D01*
G01X96531Y82454D01*
G01X96571Y82448D01*
G01X96610Y82444D01*
G01X96650Y82443D01*
G01X96686Y82444D01*
G01X96723Y82447D01*
G01X96760Y82452D01*
G01X96796Y82459D01*
G01X96831Y82469D01*
G01X96866Y82480D01*
G01X96901Y82493D01*
G01X96934Y82508D01*
G01X96967Y82525D01*
G01X96999Y82544D01*
G01X97029Y82564D01*
G01X97059Y82586D01*
G01X97087Y82610D01*
G01X97114Y82635D01*
G01X97139Y82662D01*
G01X97163Y82690D01*
G01X97185Y82720D01*
G01X97205Y82750D01*
G01X97224Y82782D01*
G01X97241Y82815D01*
G01X97256Y82848D01*
G01X97269Y82883D01*
G01X97280Y82918D01*
G01X97290Y82953D01*
G01X97297Y82989D01*
G01X97302Y83026D01*
G01X97305Y83063D01*
G01X97306Y83099D01*
G01X97305Y83136D01*
G01X97302Y83173D01*
G01X97297Y83209D01*
G01X97290Y83246D01*
G01X97280Y83281D01*
G01X97269Y83316D01*
G01X97256Y83351D01*
G01X97241Y83384D01*
G01X97224Y83417D01*
G01X97205Y83449D01*
G01X97185Y83479D01*
G01X97163Y83509D01*
G01X97139Y83537D01*
G01X97114Y83564D01*
G01X97087Y83589D01*
G01X97059Y83613D01*
G01X97029Y83635D01*
G01X96999Y83655D01*
G01X96967Y83674D01*
G01X96934Y83691D01*
G01X96901Y83706D01*
G01X96866Y83719D01*
G01X96831Y83730D01*
G01X96796Y83740D01*
G01X96760Y83747D01*
G01X96723Y83752D01*
G01X96686Y83755D01*
G01X96650Y83756D01*
G01X96625Y83756D01*
G01X96610Y83757D01*
G01X96596Y83760D01*
G01X96582Y83765D01*
G01X96570Y83772D01*
G01X96558Y83780D01*
G01X96548Y83791D01*
G01X96539Y83802D01*
G01X96532Y83815D01*
G01X96527Y83829D01*
G01X96524Y83843D01*
G01X96523Y83857D01*
G01X96526Y83883D01*
G01X96536Y83924D01*
G01X96542Y83966D01*
G01X96547Y84008D01*
G01X96548Y84050D01*
G01X96547Y84086D01*
G01X96544Y84123D01*
G01X96539Y84160D01*
G01X96531Y84196D01*
G01X96522Y84231D01*
G01X96511Y84267D01*
G01X96498Y84301D01*
G01X96483Y84335D01*
G01X96466Y84367D01*
G01X96447Y84399D01*
G01X96427Y84430D01*
G01X96405Y84459D01*
G01X96381Y84487D01*
G01X96356Y84514D01*
G01X96329Y84539D01*
G01X96301Y84563D01*
G01X96271Y84585D01*
G01X96241Y84606D01*
G01X96209Y84624D01*
G01X96176Y84641D01*
G01X96143Y84656D01*
G01X96108Y84669D01*
G01X96073Y84681D01*
G01X96037Y84690D01*
G01X96001Y84697D01*
G01X95965Y84702D01*
G01X95928Y84705D01*
G37*
G36*
G01X95928Y37305D02*
G01X95891Y37306D01*
G01X95853Y37305D01*
G01X95814Y37302D01*
G01X95776Y37296D01*
G01X95739Y37288D01*
G01X95701Y37278D01*
G01X95665Y37266D01*
G01X95629Y37252D01*
G01X95594Y37235D01*
G01X95560Y37217D01*
G01X95528Y37196D01*
G01X95496Y37174D01*
G01X95466Y37150D01*
G01X95438Y37124D01*
G01X95411Y37097D01*
G01X95398Y37086D01*
G01X95384Y37076D01*
G01X95369Y37070D01*
G01X95353Y37066D01*
G01X95336Y37064D01*
G01X9862Y37064D01*
G01X9828Y37063D01*
G01X9795Y37060D01*
G01X9762Y37055D01*
G01X9730Y37047D01*
G01X9698Y37037D01*
G01X9667Y37026D01*
G01X9637Y37012D01*
G01X9608Y36996D01*
G01X9580Y36979D01*
G01X9553Y36959D01*
G01X9527Y36938D01*
G01X9503Y36916D01*
G01X2391Y29804D01*
G01X2368Y29779D01*
G01X2347Y29754D01*
G01X2328Y29727D01*
G01X2310Y29699D01*
G01X2294Y29669D01*
G01X2281Y29639D01*
G01X2269Y29608D01*
G01X2259Y29576D01*
G01X2252Y29544D01*
G01X2246Y29511D01*
G01X2243Y29478D01*
G01X2242Y29445D01*
G01X2242Y28451D01*
G01X2241Y28435D01*
G01X2237Y28419D01*
G01X2231Y28404D01*
G01X2222Y28390D01*
G01X2200Y28359D01*
G01X2180Y28327D01*
G01X2162Y28293D01*
G01X2146Y28259D01*
G01X2133Y28223D01*
G01X2121Y28187D01*
G01X2111Y28150D01*
G01X2103Y28113D01*
G01X2098Y28076D01*
G01X2094Y28038D01*
G01X2093Y28000D01*
G01X2094Y27963D01*
G01X2097Y27926D01*
G01X2103Y27890D01*
G01X2110Y27854D01*
G01X2119Y27818D01*
G01X2130Y27783D01*
G01X2143Y27749D01*
G01X2158Y27715D01*
G01X2175Y27682D01*
G01X2194Y27650D01*
G01X2214Y27620D01*
G01X2237Y27590D01*
G01X2260Y27562D01*
G01X2312Y27510D01*
G01X2340Y27486D01*
G01X2370Y27464D01*
G01X2401Y27444D01*
G01X2432Y27425D01*
G01X2465Y27408D01*
G01X2499Y27393D01*
G01X2533Y27380D01*
G01X2568Y27369D01*
G01X2604Y27360D01*
G01X2640Y27352D01*
G01X2676Y27347D01*
G01X2713Y27344D01*
G01X2750Y27343D01*
G01X2787Y27344D01*
G01X2823Y27347D01*
G01X2860Y27352D01*
G01X2896Y27360D01*
G01X2932Y27369D01*
G01X2967Y27380D01*
G01X3001Y27393D01*
G01X3035Y27408D01*
G01X3067Y27425D01*
G01X3099Y27444D01*
G01X3130Y27464D01*
G01X3159Y27486D01*
G01X3187Y27510D01*
G01X3214Y27536D01*
G01X3239Y27562D01*
G01X3263Y27590D01*
G01X3285Y27620D01*
G01X3306Y27650D01*
G01X3324Y27682D01*
G01X3341Y27715D01*
G01X3356Y27749D01*
G01X3370Y27783D01*
G01X3381Y27818D01*
G01X3390Y27854D01*
G01X3397Y27890D01*
G01X3402Y27926D01*
G01X3405Y27963D01*
G01X3406Y28000D01*
G01X3405Y28038D01*
G01X3402Y28076D01*
G01X3396Y28113D01*
G01X3389Y28151D01*
G01X3379Y28188D01*
G01X3367Y28224D01*
G01X3353Y28259D01*
G01X3337Y28294D01*
G01X3319Y28327D01*
G01X3299Y28360D01*
G01X3277Y28391D01*
G01X3268Y28405D01*
G01X3262Y28420D01*
G01X3258Y28435D01*
G01X3257Y28452D01*
G01X3257Y29192D01*
G01X3258Y29208D01*
G01X3262Y29224D01*
G01X3268Y29239D01*
G01X3276Y29252D01*
G01X3287Y29264D01*
G01X4800Y30778D01*
G01X10042Y36020D01*
G01X10054Y36030D01*
G01X10068Y36038D01*
G01X10082Y36044D01*
G01X10098Y36048D01*
G01X10114Y36049D01*
G01X13336Y36049D01*
G01X13351Y36048D01*
G01X13365Y36045D01*
G01X13378Y36040D01*
G01X13391Y36033D01*
G01X13403Y36024D01*
G01X13413Y36014D01*
G01X13422Y36003D01*
G01X13429Y35990D01*
G01X13434Y35976D01*
G01X13437Y35962D01*
G01X13438Y35948D01*
G01X13437Y35932D01*
G01X13433Y35916D01*
G01X13427Y35902D01*
G01X13418Y35888D01*
G01X13408Y35876D01*
G01X8012Y30480D01*
G01X8000Y30470D01*
G01X7987Y30461D01*
G01X7972Y30455D01*
G01X7956Y30452D01*
G01X7941Y30450D01*
G01X7928Y30451D01*
G01X7889Y30455D01*
G01X7850Y30456D01*
G01X7813Y30455D01*
G01X7776Y30452D01*
G01X7740Y30447D01*
G01X7704Y30439D01*
G01X7668Y30430D01*
G01X7633Y30419D01*
G01X7598Y30406D01*
G01X7565Y30391D01*
G01X7532Y30374D01*
G01X7500Y30355D01*
G01X7470Y30335D01*
G01X7440Y30313D01*
G01X7412Y30289D01*
G01X7385Y30264D01*
G01X7360Y30237D01*
G01X7336Y30209D01*
G01X7314Y30179D01*
G01X7294Y30149D01*
G01X7275Y30117D01*
G01X7258Y30084D01*
G01X7243Y30051D01*
G01X7230Y30016D01*
G01X7219Y29981D01*
G01X7210Y29945D01*
G01X7202Y29909D01*
G01X7197Y29873D01*
G01X7194Y29836D01*
G01X7193Y29799D01*
G01X7194Y29761D01*
G01X7198Y29723D01*
G01X7203Y29685D01*
G01X7211Y29647D01*
G01X7221Y29610D01*
G01X7233Y29574D01*
G01X7247Y29538D01*
G01X7264Y29503D01*
G01X7282Y29470D01*
G01X7302Y29437D01*
G01X7324Y29406D01*
G01X7348Y29376D01*
G01X7374Y29347D01*
G01X7401Y29320D01*
G01X7430Y29295D01*
G01X7460Y29271D01*
G01X7475Y29258D01*
G01X7497Y29234D01*
G01X7547Y29192D01*
G01X7574Y29174D01*
G01X7601Y29157D01*
G01X7630Y29142D01*
G01X7660Y29129D01*
G01X7690Y29118D01*
G01X7721Y29109D01*
G01X7753Y29101D01*
G01X7785Y29096D01*
G01X7817Y29093D01*
G01X7850Y29092D01*
G01X7883Y29093D01*
G01X7916Y29097D01*
G01X7949Y29102D01*
G01X7981Y29109D01*
G01X8013Y29119D01*
G01X8044Y29131D01*
G01X8074Y29145D01*
G01X8103Y29160D01*
G01X8132Y29178D01*
G01X8159Y29197D01*
G01X8184Y29218D01*
G01X8209Y29241D01*
G01X8232Y29264D01*
G01X8243Y29273D01*
G01X8272Y29297D01*
G01X8300Y29322D01*
G01X8327Y29349D01*
G01X8352Y29377D01*
G01X8375Y29406D01*
G01X8385Y29417D01*
G01X14030Y35062D01*
G01X14042Y35073D01*
G01X14056Y35081D01*
G01X14071Y35087D01*
G01X14086Y35091D01*
G01X14102Y35092D01*
G01X96382Y35092D01*
G01X96400Y35091D01*
G01X96418Y35086D01*
G01X96455Y35073D01*
G01X96493Y35062D01*
G01X96532Y35054D01*
G01X96571Y35048D01*
G01X96610Y35044D01*
G01X96650Y35043D01*
G01X96687Y35044D01*
G01X96723Y35047D01*
G01X96760Y35052D01*
G01X96796Y35060D01*
G01X96832Y35069D01*
G01X96867Y35080D01*
G01X96901Y35093D01*
G01X96935Y35108D01*
G01X96967Y35125D01*
G01X96999Y35144D01*
G01X97030Y35164D01*
G01X97059Y35186D01*
G01X97087Y35210D01*
G01X97114Y35236D01*
G01X97139Y35262D01*
G01X97163Y35290D01*
G01X97185Y35320D01*
G01X97206Y35350D01*
G01X97224Y35382D01*
G01X97241Y35415D01*
G01X97256Y35449D01*
G01X97269Y35483D01*
G01X97281Y35518D01*
G01X97290Y35554D01*
G01X97297Y35590D01*
G01X97302Y35626D01*
G01X97305Y35663D01*
G01X97306Y35700D01*
G01X97305Y35737D01*
G01X97302Y35773D01*
G01X97297Y35810D01*
G01X97290Y35846D01*
G01X97281Y35882D01*
G01X97269Y35917D01*
G01X97256Y35951D01*
G01X97241Y35985D01*
G01X97224Y36017D01*
G01X97206Y36049D01*
G01X97185Y36080D01*
G01X97163Y36109D01*
G01X97139Y36137D01*
G01X97114Y36164D01*
G01X97087Y36189D01*
G01X97059Y36213D01*
G01X97030Y36235D01*
G01X96999Y36256D01*
G01X96967Y36274D01*
G01X96935Y36291D01*
G01X96901Y36306D01*
G01X96867Y36319D01*
G01X96832Y36331D01*
G01X96796Y36340D01*
G01X96760Y36347D01*
G01X96723Y36352D01*
G01X96687Y36355D01*
G01X96650Y36356D01*
G01X96625Y36356D01*
G01X96610Y36357D01*
G01X96596Y36360D01*
G01X96583Y36365D01*
G01X96570Y36372D01*
G01X96558Y36381D01*
G01X96548Y36391D01*
G01X96539Y36403D01*
G01X96532Y36415D01*
G01X96527Y36429D01*
G01X96524Y36443D01*
G01X96523Y36457D01*
G01X96526Y36483D01*
G01X96536Y36524D01*
G01X96543Y36566D01*
G01X96547Y36608D01*
G01X96548Y36650D01*
G01X96547Y36687D01*
G01X96544Y36723D01*
G01X96539Y36760D01*
G01X96531Y36796D01*
G01X96522Y36831D01*
G01X96511Y36867D01*
G01X96498Y36901D01*
G01X96483Y36935D01*
G01X96466Y36967D01*
G01X96447Y36999D01*
G01X96427Y37030D01*
G01X96405Y37059D01*
G01X96381Y37087D01*
G01X96356Y37114D01*
G01X96329Y37139D01*
G01X96301Y37163D01*
G01X96271Y37185D01*
G01X96241Y37206D01*
G01X96209Y37224D01*
G01X96176Y37241D01*
G01X96143Y37256D01*
G01X96108Y37269D01*
G01X96073Y37281D01*
G01X96037Y37290D01*
G01X96001Y37297D01*
G01X95965Y37302D01*
G01X95928Y37305D01*
G37*
G36*
G01X95886Y94255D02*
G01X95849Y94256D01*
G01X95813Y94255D01*
G01X95776Y94252D01*
G01X95740Y94247D01*
G01X95704Y94240D01*
G01X95668Y94231D01*
G01X95633Y94219D01*
G01X95599Y94206D01*
G01X95565Y94191D01*
G01X95533Y94175D01*
G01X95501Y94156D01*
G01X95470Y94136D01*
G01X95441Y94113D01*
G01X95413Y94090D01*
G01X95401Y94081D01*
G01X95388Y94074D01*
G01X95374Y94068D01*
G01X95360Y94065D01*
G01X95345Y94064D01*
G01X9861Y94064D01*
G01X9828Y94063D01*
G01X9795Y94060D01*
G01X9762Y94054D01*
G01X9730Y94047D01*
G01X9698Y94037D01*
G01X9667Y94025D01*
G01X9637Y94012D01*
G01X9608Y93996D01*
G01X9579Y93979D01*
G01X9552Y93959D01*
G01X9527Y93938D01*
G01X9502Y93915D01*
G01X2391Y86804D01*
G01X2368Y86779D01*
G01X2347Y86754D01*
G01X2328Y86727D01*
G01X2310Y86699D01*
G01X2294Y86669D01*
G01X2281Y86639D01*
G01X2269Y86608D01*
G01X2259Y86576D01*
G01X2252Y86544D01*
G01X2246Y86511D01*
G01X2243Y86478D01*
G01X2242Y86445D01*
G01X2242Y85451D01*
G01X2241Y85435D01*
G01X2237Y85419D01*
G01X2231Y85404D01*
G01X2222Y85390D01*
G01X2200Y85359D01*
G01X2180Y85327D01*
G01X2162Y85293D01*
G01X2146Y85259D01*
G01X2132Y85223D01*
G01X2120Y85187D01*
G01X2111Y85150D01*
G01X2103Y85113D01*
G01X2097Y85076D01*
G01X2094Y85038D01*
G01X2093Y85000D01*
G01X2094Y84963D01*
G01X2097Y84926D01*
G01X2102Y84890D01*
G01X2109Y84854D01*
G01X2119Y84818D01*
G01X2130Y84783D01*
G01X2143Y84748D01*
G01X2158Y84715D01*
G01X2175Y84682D01*
G01X2194Y84650D01*
G01X2214Y84620D01*
G01X2236Y84590D01*
G01X2260Y84562D01*
G01X2285Y84535D01*
G01X2312Y84510D01*
G01X2340Y84486D01*
G01X2370Y84464D01*
G01X2400Y84444D01*
G01X2432Y84425D01*
G01X2465Y84408D01*
G01X2498Y84393D01*
G01X2533Y84380D01*
G01X2568Y84369D01*
G01X2603Y84360D01*
G01X2640Y84352D01*
G01X2676Y84347D01*
G01X2713Y84344D01*
G01X2750Y84343D01*
G01X2786Y84344D01*
G01X2823Y84347D01*
G01X2860Y84352D01*
G01X2896Y84360D01*
G01X2931Y84369D01*
G01X2966Y84380D01*
G01X3001Y84393D01*
G01X3034Y84408D01*
G01X3067Y84425D01*
G01X3099Y84444D01*
G01X3129Y84464D01*
G01X3159Y84486D01*
G01X3187Y84510D01*
G01X3214Y84535D01*
G01X3239Y84562D01*
G01X3263Y84590D01*
G01X3285Y84620D01*
G01X3305Y84650D01*
G01X3324Y84682D01*
G01X3341Y84715D01*
G01X3356Y84748D01*
G01X3369Y84783D01*
G01X3380Y84818D01*
G01X3390Y84854D01*
G01X3397Y84890D01*
G01X3402Y84926D01*
G01X3405Y84963D01*
G01X3406Y85000D01*
G01X3405Y85038D01*
G01X3402Y85076D01*
G01X3396Y85113D01*
G01X3389Y85151D01*
G01X3379Y85187D01*
G01X3367Y85223D01*
G01X3353Y85259D01*
G01X3337Y85293D01*
G01X3319Y85327D01*
G01X3299Y85359D01*
G01X3277Y85391D01*
G01X3268Y85404D01*
G01X3262Y85419D01*
G01X3258Y85435D01*
G01X3257Y85451D01*
G01X3257Y86192D01*
G01X3258Y86208D01*
G01X3262Y86224D01*
G01X3268Y86239D01*
G01X3276Y86252D01*
G01X3287Y86264D01*
G01X10042Y93019D01*
G01X10054Y93030D01*
G01X10068Y93038D01*
G01X10082Y93044D01*
G01X10098Y93048D01*
G01X10114Y93049D01*
G01X13336Y93049D01*
G01X13350Y93048D01*
G01X13365Y93045D01*
G01X13378Y93040D01*
G01X13391Y93033D01*
G01X13402Y93024D01*
G01X13413Y93014D01*
G01X13421Y93002D01*
G01X13428Y92990D01*
G01X13433Y92976D01*
G01X13436Y92962D01*
G01X13438Y92947D01*
G01X13436Y92932D01*
G01X13433Y92916D01*
G01X13426Y92901D01*
G01X13418Y92888D01*
G01X13408Y92876D01*
G01X7810Y87278D01*
G01X7797Y87267D01*
G01X7784Y87259D01*
G01X7769Y87253D01*
G01X7753Y87249D01*
G01X7716Y87242D01*
G01X7680Y87234D01*
G01X7644Y87223D01*
G01X7609Y87210D01*
G01X7574Y87196D01*
G01X7541Y87179D01*
G01X7509Y87161D01*
G01X7477Y87140D01*
G01X7447Y87118D01*
G01X7418Y87094D01*
G01X7391Y87069D01*
G01X7365Y87042D01*
G01X7340Y87014D01*
G01X7318Y86984D01*
G01X7297Y86953D01*
G01X7277Y86921D01*
G01X7260Y86888D01*
G01X7245Y86854D01*
G01X7231Y86819D01*
G01X7219Y86784D01*
G01X7210Y86748D01*
G01X7203Y86711D01*
G01X7197Y86674D01*
G01X7194Y86637D01*
G01X7193Y86600D01*
G01X7194Y86563D01*
G01X7197Y86526D01*
G01X7202Y86490D01*
G01X7210Y86453D01*
G01X7219Y86418D01*
G01X7230Y86383D01*
G01X7243Y86348D01*
G01X7258Y86315D01*
G01X7275Y86282D01*
G01X7294Y86250D01*
G01X7314Y86220D01*
G01X7336Y86190D01*
G01X7360Y86162D01*
G01X7385Y86135D01*
G01X7412Y86110D01*
G01X7440Y86086D01*
G01X7470Y86064D01*
G01X7500Y86044D01*
G01X7532Y86025D01*
G01X7565Y86008D01*
G01X7598Y85993D01*
G01X7633Y85980D01*
G01X7668Y85969D01*
G01X7704Y85960D01*
G01X7740Y85952D01*
G01X7776Y85947D01*
G01X7813Y85944D01*
G01X7850Y85943D01*
G01X7887Y85944D01*
G01X7924Y85947D01*
G01X7961Y85953D01*
G01X7998Y85960D01*
G01X8034Y85969D01*
G01X8070Y85981D01*
G01X8104Y85994D01*
G01X8138Y86010D01*
G01X8171Y86027D01*
G01X8204Y86047D01*
G01X8234Y86068D01*
G01X8264Y86090D01*
G01X8292Y86115D01*
G01X8319Y86141D01*
G01X8345Y86168D01*
G01X8368Y86197D01*
G01X8390Y86227D01*
G01X8411Y86259D01*
G01X8429Y86291D01*
G01X8446Y86325D01*
G01X8460Y86359D01*
G01X8473Y86394D01*
G01X8484Y86430D01*
G01X8492Y86466D01*
G01X8499Y86503D01*
G01X8503Y86519D01*
G01X8509Y86534D01*
G01X8517Y86548D01*
G01X8528Y86560D01*
G01X14030Y92062D01*
G01X14042Y92073D01*
G01X14056Y92081D01*
G01X14070Y92087D01*
G01X14086Y92091D01*
G01X14102Y92092D01*
G01X96382Y92092D01*
G01X96400Y92090D01*
G01X96418Y92085D01*
G01X96455Y92073D01*
G01X96493Y92062D01*
G01X96532Y92054D01*
G01X96571Y92048D01*
G01X96610Y92044D01*
G01X96650Y92043D01*
G01X96686Y92044D01*
G01X96723Y92047D01*
G01X96760Y92052D01*
G01X96796Y92060D01*
G01X96831Y92069D01*
G01X96866Y92080D01*
G01X96901Y92093D01*
G01X96934Y92108D01*
G01X96967Y92125D01*
G01X96999Y92144D01*
G01X97029Y92164D01*
G01X97059Y92186D01*
G01X97087Y92210D01*
G01X97114Y92235D01*
G01X97139Y92262D01*
G01X97163Y92290D01*
G01X97185Y92320D01*
G01X97205Y92350D01*
G01X97224Y92382D01*
G01X97241Y92415D01*
G01X97256Y92448D01*
G01X97269Y92483D01*
G01X97280Y92518D01*
G01X97290Y92554D01*
G01X97297Y92590D01*
G01X97302Y92626D01*
G01X97305Y92663D01*
G01X97306Y92700D01*
G01X97305Y92736D01*
G01X97302Y92773D01*
G01X97297Y92810D01*
G01X97290Y92846D01*
G01X97280Y92881D01*
G01X97269Y92916D01*
G01X97256Y92951D01*
G01X97241Y92985D01*
G01X97224Y93017D01*
G01X97205Y93049D01*
G01X97185Y93080D01*
G01X97163Y93109D01*
G01X97139Y93137D01*
G01X97114Y93164D01*
G01X97087Y93189D01*
G01X97059Y93213D01*
G01X97029Y93235D01*
G01X96999Y93256D01*
G01X96967Y93274D01*
G01X96934Y93291D01*
G01X96901Y93306D01*
G01X96866Y93319D01*
G01X96831Y93331D01*
G01X96796Y93340D01*
G01X96760Y93347D01*
G01X96723Y93352D01*
G01X96686Y93355D01*
G01X96650Y93356D01*
G01X96601Y93354D01*
G01X96594Y93354D01*
G01X96579Y93355D01*
G01X96565Y93358D01*
G01X96552Y93363D01*
G01X96539Y93370D01*
G01X96527Y93379D01*
G01X96517Y93389D01*
G01X96508Y93401D01*
G01X96501Y93414D01*
G01X96496Y93427D01*
G01X96493Y93441D01*
G01X96492Y93456D01*
G01X96494Y93475D01*
G01X96501Y93516D01*
G01X96505Y93558D01*
G01X96506Y93600D01*
G01X96505Y93636D01*
G01X96502Y93673D01*
G01X96497Y93710D01*
G01X96490Y93746D01*
G01X96480Y93781D01*
G01X96469Y93816D01*
G01X96456Y93851D01*
G01X96441Y93884D01*
G01X96424Y93917D01*
G01X96405Y93949D01*
G01X96385Y93979D01*
G01X96363Y94009D01*
G01X96339Y94037D01*
G01X96314Y94064D01*
G01X96287Y94089D01*
G01X96259Y94113D01*
G01X96229Y94135D01*
G01X96199Y94155D01*
G01X96167Y94174D01*
G01X96134Y94191D01*
G01X96101Y94206D01*
G01X96066Y94219D01*
G01X96031Y94230D01*
G01X95996Y94240D01*
G01X95959Y94247D01*
G01X95923Y94252D01*
G01X95886Y94255D01*
G37*
G36*
G01X2489Y99055D02*
G01X2450Y99056D01*
G01X2410Y99055D01*
G01X2371Y99052D01*
G01X2331Y99047D01*
G01X2292Y99040D01*
G01X2254Y99030D01*
G01X2216Y99019D01*
G01X2178Y99006D01*
G01X2142Y98991D01*
G01X2106Y98974D01*
G01X2071Y98955D01*
G01X2038Y98934D01*
G01X2005Y98912D01*
G01X1973Y98888D01*
G01X1943Y98862D01*
G01X1915Y98835D01*
G01X1887Y98806D01*
G01X1862Y98776D01*
G01X1838Y98744D01*
G01X1815Y98712D01*
G01X1794Y98678D01*
G01X1776Y98643D01*
G01X1758Y98607D01*
G01X1743Y98571D01*
G01X1730Y98533D01*
G01X1719Y98495D01*
G01X1710Y98457D01*
G01X1702Y98418D01*
G01X1697Y98379D01*
G01X1694Y98339D01*
G01X1693Y98300D01*
G01X1694Y98258D01*
G01X1698Y98217D01*
G01X1703Y98176D01*
G01X1711Y98135D01*
G01X1721Y98095D01*
G01X1734Y98055D01*
G01X1748Y98016D01*
G01X1765Y97978D01*
G01X1783Y97941D01*
G01X1804Y97905D01*
G01X1827Y97870D01*
G01X1851Y97837D01*
G01X1877Y97805D01*
G01X1905Y97774D01*
G01X1915Y97762D01*
G01X1923Y97749D01*
G01X1929Y97734D01*
G01X1933Y97719D01*
G01X1934Y97703D01*
G01X1934Y96549D01*
G01X1935Y96526D01*
G01X1938Y96502D01*
G01X1944Y96479D01*
G01X1951Y96457D01*
G01X1961Y96435D01*
G01X1972Y96414D01*
G01X1986Y96395D01*
G01X2001Y96376D01*
G01X2018Y96360D01*
G01X2036Y96345D01*
G01X2055Y96331D01*
G01X2076Y96320D01*
G01X2098Y96310D01*
G01X2120Y96303D01*
G01X2143Y96297D01*
G01X2167Y96294D01*
G01X2191Y96293D01*
G01X6509Y96293D01*
G01X6532Y96294D01*
G01X6556Y96297D01*
G01X6579Y96303D01*
G01X6601Y96310D01*
G01X6623Y96320D01*
G01X6644Y96331D01*
G01X6663Y96345D01*
G01X6681Y96360D01*
G01X6698Y96376D01*
G01X6713Y96395D01*
G01X6727Y96414D01*
G01X6738Y96435D01*
G01X6748Y96457D01*
G01X6755Y96479D01*
G01X6761Y96502D01*
G01X6764Y96526D01*
G01X6765Y96549D01*
G01X6765Y97703D01*
G01X6766Y97719D01*
G01X6770Y97734D01*
G01X6776Y97749D01*
G01X6784Y97762D01*
G01X6794Y97774D01*
G01X6822Y97805D01*
G01X6848Y97837D01*
G01X6872Y97870D01*
G01X6895Y97905D01*
G01X6916Y97941D01*
G01X6934Y97978D01*
G01X6951Y98016D01*
G01X6965Y98055D01*
G01X6978Y98095D01*
G01X6988Y98135D01*
G01X6996Y98176D01*
G01X7001Y98217D01*
G01X7005Y98258D01*
G01X7006Y98300D01*
G01X7005Y98339D01*
G01X7002Y98379D01*
G01X6997Y98418D01*
G01X6989Y98457D01*
G01X6980Y98495D01*
G01X6969Y98533D01*
G01X6956Y98571D01*
G01X6941Y98607D01*
G01X6924Y98643D01*
G01X6905Y98678D01*
G01X6884Y98712D01*
G01X6861Y98744D01*
G01X6837Y98776D01*
G01X6812Y98806D01*
G01X6784Y98835D01*
G01X6756Y98862D01*
G01X6726Y98888D01*
G01X6694Y98912D01*
G01X6661Y98934D01*
G01X6628Y98955D01*
G01X6593Y98974D01*
G01X6557Y98991D01*
G01X6521Y99006D01*
G01X6483Y99019D01*
G01X6445Y99030D01*
G01X6407Y99040D01*
G01X6368Y99047D01*
G01X6329Y99052D01*
G01X6289Y99055D01*
G01X6249Y99056D01*
G01X6208Y99055D01*
G01X6166Y99052D01*
G01X6125Y99046D01*
G01X6084Y99038D01*
G01X6043Y99027D01*
G01X6003Y99015D01*
G01X5964Y99000D01*
G01X5926Y98984D01*
G01X5889Y98965D01*
G01X5853Y98944D01*
G01X5836Y98935D01*
G01X5818Y98930D01*
G01X5799Y98929D01*
G01X5781Y98930D01*
G01X5763Y98935D01*
G01X5746Y98944D01*
G01X5710Y98965D01*
G01X5673Y98984D01*
G01X5635Y99000D01*
G01X5595Y99015D01*
G01X5556Y99027D01*
G01X5515Y99038D01*
G01X5474Y99046D01*
G01X5433Y99052D01*
G01X5391Y99055D01*
G01X5350Y99056D01*
G01X5308Y99055D01*
G01X5266Y99052D01*
G01X5225Y99046D01*
G01X5184Y99038D01*
G01X5143Y99027D01*
G01X5104Y99015D01*
G01X5064Y99000D01*
G01X5026Y98984D01*
G01X4989Y98965D01*
G01X4953Y98944D01*
G01X4936Y98935D01*
G01X4918Y98930D01*
G01X4900Y98929D01*
G01X4881Y98930D01*
G01X4863Y98935D01*
G01X4846Y98944D01*
G01X4810Y98965D01*
G01X4773Y98984D01*
G01X4735Y99000D01*
G01X4696Y99015D01*
G01X4656Y99027D01*
G01X4615Y99038D01*
G01X4574Y99046D01*
G01X4533Y99052D01*
G01X4491Y99055D01*
G01X4450Y99056D01*
G01X4410Y99055D01*
G01X4371Y99052D01*
G01X4332Y99047D01*
G01X4294Y99040D01*
G01X4256Y99031D01*
G01X4218Y99020D01*
G01X4181Y99007D01*
G01X4145Y98992D01*
G01X4109Y98975D01*
G01X4075Y98957D01*
G01X4041Y98936D01*
G01X4009Y98914D01*
G01X3995Y98906D01*
G01X3981Y98900D01*
G01X3965Y98897D01*
G01X3950Y98895D01*
G01X3934Y98897D01*
G01X3918Y98900D01*
G01X3904Y98906D01*
G01X3890Y98914D01*
G01X3858Y98936D01*
G01X3824Y98957D01*
G01X3790Y98975D01*
G01X3754Y98992D01*
G01X3718Y99007D01*
G01X3681Y99020D01*
G01X3643Y99031D01*
G01X3605Y99040D01*
G01X3567Y99047D01*
G01X3528Y99052D01*
G01X3489Y99055D01*
G01X3450Y99056D01*
G01X3410Y99055D01*
G01X3371Y99052D01*
G01X3332Y99047D01*
G01X3294Y99040D01*
G01X3256Y99031D01*
G01X3218Y99020D01*
G01X3181Y99007D01*
G01X3145Y98992D01*
G01X3109Y98975D01*
G01X3075Y98957D01*
G01X3041Y98936D01*
G01X3009Y98914D01*
G01X2995Y98906D01*
G01X2981Y98900D01*
G01X2965Y98897D01*
G01X2950Y98895D01*
G01X2934Y98897D01*
G01X2918Y98900D01*
G01X2904Y98906D01*
G01X2890Y98914D01*
G01X2858Y98936D01*
G01X2824Y98957D01*
G01X2790Y98975D01*
G01X2754Y98992D01*
G01X2718Y99007D01*
G01X2681Y99020D01*
G01X2643Y99031D01*
G01X2605Y99040D01*
G01X2567Y99047D01*
G01X2528Y99052D01*
G01X2489Y99055D01*
G37*
G36*
G01X6255Y96044D02*
G01X2445Y96044D01*
G01X2421Y96043D01*
G01X2397Y96039D01*
G01X2374Y96034D01*
G01X2352Y96026D01*
G01X2330Y96017D01*
G01X2309Y96005D01*
G01X2290Y95992D01*
G01X2272Y95977D01*
G01X2255Y95960D01*
G01X2240Y95942D01*
G01X2226Y95922D01*
G01X2215Y95902D01*
G01X2205Y95880D01*
G01X2198Y95857D01*
G01X2192Y95834D01*
G01X2189Y95811D01*
G01X2188Y95787D01*
G01X2188Y94009D01*
G01X2189Y93986D01*
G01X2192Y93962D01*
G01X2198Y93939D01*
G01X2205Y93917D01*
G01X2215Y93895D01*
G01X2226Y93874D01*
G01X2240Y93855D01*
G01X2255Y93836D01*
G01X2272Y93820D01*
G01X2290Y93805D01*
G01X2309Y93791D01*
G01X2330Y93780D01*
G01X2352Y93770D01*
G01X2374Y93763D01*
G01X2397Y93757D01*
G01X2421Y93754D01*
G01X2445Y93753D01*
G01X5820Y93753D01*
G01X5836Y93752D01*
G01X5892Y93745D01*
G01X5949Y93743D01*
G01X6007Y93745D01*
G01X6063Y93752D01*
G01X6079Y93753D01*
G01X6255Y93753D01*
G01X6278Y93754D01*
G01X6302Y93757D01*
G01X6325Y93763D01*
G01X6348Y93770D01*
G01X6370Y93780D01*
G01X6391Y93792D01*
G01X6411Y93806D01*
G01X6429Y93821D01*
G01X6446Y93838D01*
G01X6461Y93857D01*
G01X6474Y93877D01*
G01X6485Y93898D01*
G01X6495Y93920D01*
G01X6502Y93942D01*
G01X6507Y93966D01*
G01X6512Y93983D01*
G01X6519Y93999D01*
G01X6530Y94014D01*
G01X6555Y94046D01*
G01X6578Y94079D01*
G01X6600Y94113D01*
G01X6620Y94148D01*
G01X6637Y94185D01*
G01X6653Y94222D01*
G01X6667Y94260D01*
G01X6679Y94299D01*
G01X6689Y94338D01*
G01X6696Y94378D01*
G01X6702Y94419D01*
G01X6705Y94459D01*
G01X6706Y94499D01*
G01X6705Y94539D01*
G01X6702Y94579D01*
G01X6696Y94619D01*
G01X6689Y94658D01*
G01X6680Y94697D01*
G01X6668Y94736D01*
G01X6655Y94773D01*
G01X6639Y94810D01*
G01X6622Y94846D01*
G01X6603Y94881D01*
G01X6582Y94915D01*
G01X6559Y94948D01*
G01X6534Y94980D01*
G01X6524Y94994D01*
G01X6517Y95010D01*
G01X6513Y95027D01*
G01X6511Y95044D01*
G01X6511Y95787D01*
G01X6510Y95811D01*
G01X6507Y95834D01*
G01X6501Y95857D01*
G01X6494Y95880D01*
G01X6484Y95902D01*
G01X6473Y95922D01*
G01X6459Y95942D01*
G01X6444Y95960D01*
G01X6427Y95977D01*
G01X6409Y95992D01*
G01X6390Y96005D01*
G01X6369Y96017D01*
G01X6347Y96026D01*
G01X6325Y96034D01*
G01X6302Y96039D01*
G01X6278Y96043D01*
G01X6255Y96044D01*
G37*
G36*
G01X97092Y99231D02*
G01X97050Y99232D01*
G01X97007Y99231D01*
G01X96965Y99228D01*
G01X96923Y99222D01*
G01X96882Y99215D01*
G01X96841Y99206D01*
G01X96800Y99194D01*
G01X96760Y99180D01*
G01X96721Y99165D01*
G01X96683Y99147D01*
G01X96646Y99127D01*
G01X96609Y99106D01*
G01X96574Y99083D01*
G01X96540Y99058D01*
G01X96507Y99031D01*
G01X96476Y99003D01*
G01X96446Y98973D01*
G01X96418Y98942D01*
G01X96391Y98909D01*
G01X96366Y98875D01*
G01X96343Y98840D01*
G01X96322Y98804D01*
G01X96302Y98766D01*
G01X96284Y98728D01*
G01X96269Y98689D01*
G01X96255Y98649D01*
G01X96244Y98608D01*
G01X96234Y98567D01*
G01X96227Y98526D01*
G01X96221Y98484D01*
G01X96218Y98442D01*
G01X96217Y98400D01*
G01X96218Y98357D01*
G01X96221Y98315D01*
G01X96227Y98273D01*
G01X96234Y98232D01*
G01X96244Y98191D01*
G01X96255Y98150D01*
G01X96269Y98110D01*
G01X96284Y98071D01*
G01X96302Y98033D01*
G01X96322Y97996D01*
G01X96343Y97959D01*
G01X96366Y97924D01*
G01X96391Y97890D01*
G01X96418Y97857D01*
G01X96446Y97826D01*
G01X96476Y97796D01*
G01X96507Y97768D01*
G01X96540Y97741D01*
G01X96574Y97716D01*
G01X96609Y97693D01*
G01X96646Y97672D01*
G01X96683Y97652D01*
G01X96721Y97634D01*
G01X96760Y97619D01*
G01X96800Y97605D01*
G01X96841Y97594D01*
G01X96882Y97584D01*
G01X96923Y97577D01*
G01X96965Y97571D01*
G01X97007Y97568D01*
G01X97050Y97567D01*
G01X97092Y97568D01*
G01X97134Y97571D01*
G01X97176Y97577D01*
G01X97217Y97584D01*
G01X97258Y97594D01*
G01X97299Y97605D01*
G01X97339Y97619D01*
G01X97378Y97634D01*
G01X97416Y97652D01*
G01X97454Y97672D01*
G01X97490Y97693D01*
G01X97525Y97716D01*
G01X97559Y97741D01*
G01X97592Y97768D01*
G01X97623Y97796D01*
G01X97653Y97826D01*
G01X97681Y97857D01*
G01X97708Y97890D01*
G01X97733Y97924D01*
G01X97756Y97959D01*
G01X97777Y97996D01*
G01X97797Y98033D01*
G01X97815Y98071D01*
G01X97830Y98110D01*
G01X97844Y98150D01*
G01X97856Y98191D01*
G01X97865Y98232D01*
G01X97872Y98273D01*
G01X97878Y98315D01*
G01X97881Y98357D01*
G01X97882Y98400D01*
G01X97881Y98442D01*
G01X97878Y98484D01*
G01X97872Y98526D01*
G01X97865Y98567D01*
G01X97856Y98608D01*
G01X97844Y98649D01*
G01X97830Y98689D01*
G01X97815Y98728D01*
G01X97797Y98766D01*
G01X97777Y98804D01*
G01X97756Y98840D01*
G01X97733Y98875D01*
G01X97708Y98909D01*
G01X97681Y98942D01*
G01X97653Y98973D01*
G01X97623Y99003D01*
G01X97592Y99031D01*
G01X97559Y99058D01*
G01X97525Y99083D01*
G01X97490Y99106D01*
G01X97454Y99127D01*
G01X97416Y99147D01*
G01X97378Y99165D01*
G01X97339Y99180D01*
G01X97299Y99194D01*
G01X97258Y99206D01*
G01X97217Y99215D01*
G01X97176Y99222D01*
G01X97134Y99228D01*
G01X97092Y99231D01*
G37*
G36*
G01X55565Y31361D02*
G01X54293Y31361D01*
G01X54293Y30724D01*
G01X55309Y30724D01*
G01X55332Y30725D01*
G01X55356Y30728D01*
G01X55379Y30734D01*
G01X55401Y30741D01*
G01X55423Y30751D01*
G01X55444Y30762D01*
G01X55463Y30776D01*
G01X55481Y30791D01*
G01X55498Y30808D01*
G01X55513Y30826D01*
G01X55527Y30845D01*
G01X55538Y30866D01*
G01X55548Y30888D01*
G01X55555Y30910D01*
G01X55561Y30933D01*
G01X55564Y30957D01*
G01X55565Y30980D01*
G01X55565Y31361D01*
G37*
G36*
G01X52007Y33015D02*
G01X50991Y33015D01*
G01X50967Y33014D01*
G01X50943Y33011D01*
G01X50920Y33005D01*
G01X50898Y32998D01*
G01X50876Y32988D01*
G01X50856Y32977D01*
G01X50836Y32963D01*
G01X50818Y32948D01*
G01X50801Y32931D01*
G01X50786Y32913D01*
G01X50772Y32893D01*
G01X50761Y32873D01*
G01X50751Y32851D01*
G01X50744Y32829D01*
G01X50738Y32806D01*
G01X50735Y32782D01*
G01X50734Y32758D01*
G01X50734Y32377D01*
G01X52007Y32377D01*
G01X52007Y33015D01*
G37*
G36*
G01X55309Y33015D02*
G01X54293Y33015D01*
G01X54293Y32377D01*
G01X55565Y32377D01*
G01X55565Y32758D01*
G01X55564Y32782D01*
G01X55561Y32806D01*
G01X55555Y32829D01*
G01X55548Y32851D01*
G01X55538Y32873D01*
G01X55527Y32893D01*
G01X55513Y32913D01*
G01X55498Y32931D01*
G01X55481Y32948D01*
G01X55463Y32963D01*
G01X55444Y32977D01*
G01X55423Y32988D01*
G01X55401Y32998D01*
G01X55379Y33005D01*
G01X55356Y33011D01*
G01X55332Y33014D01*
G01X55309Y33015D01*
G37*
G36*
G01X6511Y91850D02*
G01X5366Y91850D01*
G01X5366Y91213D01*
G01X6255Y91213D01*
G01X6278Y91214D01*
G01X6302Y91217D01*
G01X6325Y91223D01*
G01X6347Y91230D01*
G01X6369Y91240D01*
G01X6390Y91251D01*
G01X6409Y91265D01*
G01X6427Y91280D01*
G01X6444Y91296D01*
G01X6459Y91315D01*
G01X6473Y91334D01*
G01X6484Y91355D01*
G01X6494Y91377D01*
G01X6501Y91399D01*
G01X6507Y91422D01*
G01X6510Y91446D01*
G01X6511Y91469D01*
G01X6511Y91850D01*
G37*
G36*
G01X3334Y91850D02*
G01X2188Y91850D01*
G01X2188Y91469D01*
G01X2189Y91446D01*
G01X2192Y91422D01*
G01X2198Y91399D01*
G01X2205Y91377D01*
G01X2215Y91355D01*
G01X2226Y91334D01*
G01X2240Y91315D01*
G01X2255Y91296D01*
G01X2272Y91280D01*
G01X2290Y91265D01*
G01X2309Y91251D01*
G01X2330Y91240D01*
G01X2352Y91230D01*
G01X2374Y91223D01*
G01X2397Y91217D01*
G01X2421Y91214D01*
G01X2445Y91213D01*
G01X3334Y91213D01*
G01X3334Y91850D01*
G37*
G36*
G01X3334Y93504D02*
G01X2445Y93504D01*
G01X2421Y93503D01*
G01X2397Y93499D01*
G01X2374Y93494D01*
G01X2352Y93486D01*
G01X2330Y93477D01*
G01X2309Y93465D01*
G01X2290Y93452D01*
G01X2272Y93437D01*
G01X2255Y93420D01*
G01X2240Y93402D01*
G01X2226Y93382D01*
G01X2215Y93362D01*
G01X2205Y93340D01*
G01X2198Y93317D01*
G01X2192Y93294D01*
G01X2189Y93271D01*
G01X2188Y93247D01*
G01X2188Y92866D01*
G01X3334Y92866D01*
G01X3334Y93504D01*
G37*
G36*
G01X6255Y93504D02*
G01X5366Y93504D01*
G01X5366Y92866D01*
G01X6511Y92866D01*
G01X6511Y93247D01*
G01X6510Y93271D01*
G01X6507Y93294D01*
G01X6501Y93317D01*
G01X6494Y93340D01*
G01X6484Y93362D01*
G01X6473Y93382D01*
G01X6459Y93402D01*
G01X6444Y93420D01*
G01X6427Y93437D01*
G01X6409Y93452D01*
G01X6390Y93465D01*
G01X6369Y93477D01*
G01X6347Y93486D01*
G01X6325Y93494D01*
G01X6302Y93499D01*
G01X6278Y93503D01*
G01X6255Y93504D01*
G37*

%LPD*%
G54D10*
G01X-2612Y105767D02*
G01X103951Y105500D01*
G01X104751Y-1301D01*
G01X-4349Y-1301D01*
G01X-4349Y105767D01*
G01X-2612Y105767D01*
G54D12*
G01X7849Y86600D02*
G01X13850Y92600D01*
G01X16348Y92600D01*
G01X96651Y92699D02*
G01X96549Y92600D01*
G01X16348Y92600D01*
G01X7849Y77000D02*
G01X13850Y83000D01*
G01X16348Y83000D01*
G01X2750Y85000D02*
G01X2750Y86445D01*
G01X9861Y93557D01*
G01X95850Y93600D02*
G01X95807Y93557D01*
G01X9861Y93557D01*
G01X95850Y46100D02*
G01X95807Y46057D01*
G01X15432Y46057D01*
G01X9861Y46057D01*
G01X7849Y67500D02*
G01X13850Y73500D01*
G01X16348Y73500D01*
G01X96651Y73599D02*
G01X96549Y73500D01*
G01X16348Y73500D01*
G01X2750Y75400D02*
G01X2750Y76845D01*
G01X9861Y83957D01*
G01X95850Y84000D02*
G01X95807Y83957D01*
G01X9861Y83957D01*
G01X96651Y83099D02*
G01X96549Y83000D01*
G01X16348Y83000D01*
G01X2750Y65900D02*
G01X2750Y67345D01*
G01X9861Y74457D01*
G01X95850Y74500D02*
G01X95807Y74457D01*
G01X9861Y74457D01*
G01X2750Y56400D02*
G01X2750Y57845D01*
G01X9861Y64957D01*
G01X95850Y65000D02*
G01X95807Y64957D01*
G01X9861Y64957D01*
G01X7849Y39100D02*
G01X13850Y45100D01*
G01X16348Y45100D01*
G01X96651Y45199D02*
G01X96549Y45100D01*
G01X16348Y45100D01*
G01X95850Y55500D02*
G01X95807Y55457D01*
G01X9861Y55457D01*
G01X7849Y48500D02*
G01X13850Y54500D01*
G01X16348Y54500D01*
G01X2750Y46900D02*
G01X2750Y48345D01*
G01X9861Y55457D01*
G01X96651Y54599D02*
G01X96549Y54500D01*
G01X16348Y54500D01*
G01X2749Y37499D02*
G01X2749Y38945D01*
G01X4441Y40636D01*
G01X4908Y41104D01*
G01X9861Y46057D01*
G01X96651Y35699D02*
G01X96549Y35600D01*
G01X16349Y35600D01*
G01X7850Y29600D02*
G01X13850Y35600D01*
G01X16349Y35600D01*
G01X2750Y28000D02*
G01X2750Y29445D01*
G01X4441Y31136D01*
G01X4909Y31604D01*
G01X9862Y36557D01*
G01X95851Y36600D02*
G01X95807Y36557D01*
G01X15432Y36557D01*
G01X9862Y36557D01*
G01X7850Y20100D02*
G01X13850Y26100D01*
G01X16349Y26100D01*
G01X2750Y18500D02*
G01X2750Y19945D01*
G01X4441Y21636D01*
G01X4909Y22104D01*
G01X9862Y27057D01*
G01X96651Y26199D02*
G01X96549Y26100D01*
G01X16349Y26100D01*
G01X95851Y27100D02*
G01X95807Y27057D01*
G01X15432Y27057D01*
G01X9862Y27057D01*
G01X7850Y10600D02*
G01X13850Y16600D01*
G01X16349Y16600D01*
G01X96651Y16699D02*
G01X96549Y16600D01*
G01X16349Y16600D01*
G01X95851Y17600D02*
G01X95807Y17557D01*
G01X15432Y17557D01*
G01X9862Y17557D01*
G01X2750Y9000D02*
G01X2750Y10445D01*
G01X4441Y12136D01*
G01X4909Y12604D01*
G01X9862Y17557D01*
G01X7849Y58200D02*
G01X13850Y64000D01*
G01X16348Y64000D01*
G01X96651Y64099D02*
G01X96549Y64000D01*
G01X16348Y64000D01*
G54D15*
G01X53150Y29329D02*
G01X55479Y29329D01*
G01X57050Y30900D01*
G01X53150Y29329D02*
G01X55220Y29329D01*
G01X56450Y28100D01*
G01X53150Y29329D02*
G01X51020Y29329D01*
G01X49550Y30800D01*
G01X53150Y29329D02*
G01X53150Y28200D01*
G01X53050Y28100D01*
G36*
G01X50991Y28441D02*
G01X55309Y28441D01*
G01X55309Y30219D01*
G01X50991Y30219D01*
G01X50991Y28441D01*
G37*
G54D18*
G01X53150Y31869D03*
G36*
G01X6509Y98327D02*
G01X2191Y98327D01*
G01X2191Y96549D01*
G01X6509Y96549D01*
G01X6509Y98327D01*
G37*
G36*
G01X6255Y93247D02*
G01X2445Y93247D01*
G01X2445Y91469D01*
G01X6255Y91469D01*
G01X6255Y93247D01*
G37*
G36*
G01X6255Y95787D02*
G01X2445Y95787D01*
G01X2445Y94009D01*
G01X6255Y94009D01*
G01X6255Y95787D01*
G37*
G54D14*
G01X4350Y92900D03*
G01X7850Y89000D03*
G01X14750Y89000D03*
G01X21750Y89000D03*
G01X28650Y89000D03*
G01X35650Y89000D03*
G01X42650Y89000D03*
G01X49650Y89000D03*
G01X56550Y89000D03*
G01X63550Y89000D03*
G01X70449Y89000D03*
G01X77450Y89000D03*
G01X84450Y89000D03*
G01X91350Y89000D03*
G01X91350Y79500D03*
G01X84450Y79500D03*
G01X77450Y79500D03*
G01X70450Y79500D03*
G01X63550Y79500D03*
G01X56550Y79500D03*
G01X49650Y79500D03*
G01X42650Y79500D03*
G01X35650Y79500D03*
G01X28650Y79500D03*
G01X21750Y79500D03*
G01X14750Y79500D03*
G01X7850Y79500D03*
G01X7850Y70099D03*
G01X14750Y70099D03*
G01X21750Y70099D03*
G01X28650Y70099D03*
G01X7850Y60600D03*
G01X14750Y60600D03*
G01X21750Y60600D03*
G01X28650Y60600D03*
G01X7850Y51100D03*
G01X14750Y51100D03*
G01X21750Y51100D03*
G01X28650Y51100D03*
G01X7850Y41599D03*
G01X14750Y41599D03*
G01X21750Y41599D03*
G01X28650Y41599D03*
G01X7850Y32100D03*
G01X14750Y32100D03*
G01X21750Y32100D03*
G01X28650Y32100D03*
G01X7850Y22599D03*
G01X14750Y22599D03*
G01X21750Y22599D03*
G01X28650Y22599D03*
G01X7850Y13199D03*
G01X14750Y13199D03*
G01X21750Y13199D03*
G01X28650Y13199D03*
G01X7850Y3700D03*
G01X14750Y3700D03*
G01X21750Y3700D03*
G01X28650Y3700D03*
G01X35650Y70099D03*
G01X42550Y70099D03*
G01X49550Y70099D03*
G01X56449Y70099D03*
G01X35650Y60600D03*
G01X42550Y60600D03*
G01X49550Y60600D03*
G01X56449Y60600D03*
G01X35650Y51100D03*
G01X42550Y51100D03*
G01X49550Y51100D03*
G01X56449Y51100D03*
G01X35650Y41599D03*
G01X42550Y41599D03*
G01X49550Y41599D03*
G01X56449Y41599D03*
G01X35650Y32100D03*
G01X42550Y32100D03*
G01X49550Y32100D03*
G01X56449Y32100D03*
G01X35650Y22599D03*
G01X42550Y22599D03*
G01X49550Y22599D03*
G01X56449Y22599D03*
G01X35650Y13199D03*
G01X42550Y13199D03*
G01X49550Y13199D03*
G01X56449Y13199D03*
G01X35650Y3700D03*
G01X42550Y3700D03*
G01X49550Y3700D03*
G01X56449Y3700D03*
G01X63550Y70099D03*
G01X70450Y70099D03*
G01X77450Y70099D03*
G01X84350Y70099D03*
G01X63550Y60600D03*
G01X70450Y60600D03*
G01X77450Y60600D03*
G01X84350Y60600D03*
G01X63550Y51100D03*
G01X70450Y51100D03*
G01X77450Y51100D03*
G01X84350Y51100D03*
G01X63550Y41599D03*
G01X70450Y41599D03*
G01X77450Y41599D03*
G01X84350Y41599D03*
G01X63550Y32100D03*
G01X70450Y32100D03*
G01X77450Y32100D03*
G01X84350Y32100D03*
G01X63550Y22599D03*
G01X70450Y22599D03*
G01X77450Y22599D03*
G01X84350Y22599D03*
G01X63550Y13199D03*
G01X70450Y13199D03*
G01X77450Y13199D03*
G01X84350Y13199D03*
G01X63550Y3700D03*
G01X70450Y3700D03*
G01X77450Y3700D03*
G01X84350Y3700D03*
G01X91350Y70099D03*
G01X91350Y51100D03*
G01X91350Y41599D03*
G01X91350Y32100D03*
G01X91350Y22599D03*
G01X91350Y13199D03*
G01X91350Y3700D03*
G01X91350Y60600D03*
G01X4350Y83399D03*
G01X4350Y74099D03*
G01X4350Y64500D03*
G01X4350Y54999D03*
G01X4350Y45500D03*
G01X4350Y35999D03*
G01X4350Y26500D03*
G01X4350Y17100D03*
G01X4350Y7599D03*
G01X98050Y89000D03*
G01X98025Y79500D03*
G01X98025Y70099D03*
G01X98025Y60599D03*
G01X98025Y51100D03*
G01X98025Y41599D03*
G01X98025Y32099D03*
G01X98025Y22599D03*
G01X98025Y13199D03*
G01X98025Y3699D03*
G01X95849Y93600D03*
G01X7850Y86600D03*
G01X2750Y85000D03*
G01X96650Y92700D03*
G01X2750Y75399D03*
G01X95891Y84050D03*
G01X96650Y83099D03*
G01X7850Y77105D03*
G01X2750Y65900D03*
G01X95891Y74550D03*
G01X96650Y73600D03*
G01X7850Y67600D03*
G01X2750Y56399D03*
G01X95791Y65050D03*
G01X96650Y64099D03*
G01X7850Y58200D03*
G01X2750Y46899D03*
G01X95891Y55650D03*
G01X96650Y54599D03*
G01X7850Y48699D03*
G01X2750Y37500D03*
G01X95891Y46150D03*
G01X96650Y45200D03*
G01X7850Y39200D03*
G01X95891Y36650D03*
G01X96650Y35700D03*
G01X7850Y29799D03*
G01X2750Y28000D03*
G01X95891Y27250D03*
G01X96650Y26200D03*
G01X7850Y20298D03*
G01X2750Y18500D03*
G01X95891Y17750D03*
G01X96650Y16700D03*
G01X7850Y10799D03*
G01X2750Y9000D03*
G54D15*
G01X4450Y98300D03*
G01X6249Y98300D03*
G01X2450Y98300D03*
G01X3450Y98300D03*
G01X5350Y98300D03*
G01X5949Y94499D03*
G54D14*
G01X53050Y28100D03*
G01X49550Y30800D03*
G01X57050Y30900D03*
G01X56450Y28100D03*
M00*
M02*
