G04 Layer: TopSilkLayer*
G04 EasyEDA v6.3.22, 2020-01-04T19:44:14+01:00*
G04 f50fd1600d684b49919d2234b325bca6,43c3eb671339413baca6572c6aa340f4,10*
G04 Gerber Generator version 0.2*
G04 Scale: 100 percent, Rotated: No, Reflected: No *
G04 Dimensions in millimeters *
G04 leading zeros omitted , absolute positions ,3 integer and 3 decimal *
%FSLAX33Y33*%
%MOMM*%
G90*
G71D02*

%ADD10C,0.254000*%
%ADD20C,0.152400*%

%LPD*%
G54D10*
G01X1850Y91050D02*
G01X1850Y96049D01*
G01X6850Y96049D01*
G01X6850Y91050D01*
G01X1850Y91050D01*
G01X5599Y93799D02*
G01X3100Y93799D01*
G01X3599Y93299D01*
G01X5100Y93299D01*
G01X5599Y93799D01*
G01X1850Y91549D02*
G01X2350Y91050D01*
G01X92356Y91050D02*
G01X92356Y96049D01*
G01X97356Y96049D01*
G01X97356Y91050D01*
G01X92356Y91050D01*
G01X96105Y93799D02*
G01X93606Y93799D01*
G01X94105Y93299D01*
G01X95606Y93299D01*
G01X96105Y93799D01*
G01X92356Y91549D02*
G01X92855Y91050D01*
G01X85394Y91050D02*
G01X85394Y96049D01*
G01X90394Y96049D01*
G01X90394Y91050D01*
G01X85394Y91050D01*
G01X89143Y93799D02*
G01X86644Y93799D01*
G01X87143Y93299D01*
G01X88644Y93299D01*
G01X89143Y93799D01*
G01X85394Y91549D02*
G01X85893Y91050D01*
G01X78432Y91050D02*
G01X78432Y96049D01*
G01X83432Y96049D01*
G01X83432Y91050D01*
G01X78432Y91050D01*
G01X82181Y93799D02*
G01X79682Y93799D01*
G01X80181Y93299D01*
G01X81682Y93299D01*
G01X82181Y93799D01*
G01X78432Y91549D02*
G01X78931Y91050D01*
G01X71470Y91050D02*
G01X71470Y96049D01*
G01X76470Y96049D01*
G01X76470Y91050D01*
G01X71470Y91050D01*
G01X75219Y93799D02*
G01X72720Y93799D01*
G01X73219Y93299D01*
G01X74720Y93299D01*
G01X75219Y93799D01*
G01X71470Y91549D02*
G01X71970Y91050D01*
G01X64508Y91050D02*
G01X64508Y96049D01*
G01X69508Y96049D01*
G01X69508Y91050D01*
G01X64508Y91050D01*
G01X68258Y93799D02*
G01X65758Y93799D01*
G01X66258Y93299D01*
G01X67758Y93299D01*
G01X68258Y93799D01*
G01X64508Y91549D02*
G01X65008Y91050D01*
G01X57546Y91050D02*
G01X57546Y96049D01*
G01X62546Y96049D01*
G01X62546Y91050D01*
G01X57546Y91050D01*
G01X61295Y93799D02*
G01X58796Y93799D01*
G01X59295Y93299D01*
G01X60796Y93299D01*
G01X61295Y93799D01*
G01X57546Y91549D02*
G01X58046Y91050D01*
G01X50584Y91050D02*
G01X50584Y96049D01*
G01X55584Y96049D01*
G01X55584Y91050D01*
G01X50584Y91050D01*
G01X54333Y93799D02*
G01X51834Y93799D01*
G01X52333Y93299D01*
G01X53834Y93299D01*
G01X54333Y93799D01*
G01X50584Y91549D02*
G01X51083Y91050D01*
G01X15774Y91050D02*
G01X15774Y96049D01*
G01X20774Y96049D01*
G01X20774Y91050D01*
G01X15774Y91050D01*
G01X19523Y93799D02*
G01X17024Y93799D01*
G01X17523Y93299D01*
G01X19024Y93299D01*
G01X19523Y93799D01*
G01X15774Y91549D02*
G01X16273Y91050D01*
G01X8812Y91050D02*
G01X8812Y96049D01*
G01X13812Y96049D01*
G01X13812Y91050D01*
G01X8812Y91050D01*
G01X12562Y93799D02*
G01X10062Y93799D01*
G01X10562Y93299D01*
G01X12062Y93299D01*
G01X12562Y93799D01*
G01X8812Y91549D02*
G01X9312Y91050D01*
G01X43622Y91050D02*
G01X43622Y96049D01*
G01X48622Y96049D01*
G01X48622Y91050D01*
G01X43622Y91050D01*
G01X47371Y93799D02*
G01X44872Y93799D01*
G01X45371Y93299D01*
G01X46872Y93299D01*
G01X47371Y93799D01*
G01X43622Y91549D02*
G01X44121Y91050D01*
G01X22736Y91050D02*
G01X22736Y96049D01*
G01X27736Y96049D01*
G01X27736Y91050D01*
G01X22736Y91050D01*
G01X26486Y93799D02*
G01X23986Y93799D01*
G01X24486Y93299D01*
G01X25986Y93299D01*
G01X26486Y93799D01*
G01X22736Y91549D02*
G01X23236Y91050D01*
G01X36660Y91050D02*
G01X36660Y96049D01*
G01X41660Y96049D01*
G01X41660Y91050D01*
G01X36660Y91050D01*
G01X40409Y93799D02*
G01X37910Y93799D01*
G01X38409Y93299D01*
G01X39910Y93299D01*
G01X40409Y93799D01*
G01X36660Y91549D02*
G01X37159Y91050D01*
G01X29698Y91050D02*
G01X29698Y96049D01*
G01X34698Y96049D01*
G01X34698Y91050D01*
G01X29698Y91050D01*
G01X33447Y93799D02*
G01X30948Y93799D01*
G01X31447Y93299D01*
G01X32948Y93299D01*
G01X33447Y93799D01*
G01X29698Y91549D02*
G01X30198Y91050D01*
G54D20*
G01X65364Y89431D02*
G01X64729Y89431D01*
G01X64729Y88568D01*
G01X65262Y88568D01*
G01X65364Y88568D01*
G01X65745Y88568D02*
G01X66355Y88568D01*
G01X66355Y89431D01*
G01X65821Y89431D01*
G01X65745Y89431D01*
G01X30564Y89431D02*
G01X29929Y89431D01*
G01X29929Y88568D01*
G01X30462Y88568D01*
G01X30564Y88568D01*
G01X30945Y88568D02*
G01X31555Y88568D01*
G01X31555Y89431D01*
G01X31021Y89431D01*
G01X30945Y89431D01*
G01X37464Y89431D02*
G01X36829Y89431D01*
G01X36829Y88568D01*
G01X37362Y88568D01*
G01X37464Y88568D01*
G01X37845Y88568D02*
G01X38455Y88568D01*
G01X38455Y89431D01*
G01X37921Y89431D01*
G01X37845Y89431D01*
G01X93164Y89431D02*
G01X92529Y89431D01*
G01X92529Y88568D01*
G01X93062Y88568D01*
G01X93164Y88568D01*
G01X93545Y88568D02*
G01X94155Y88568D01*
G01X94155Y89431D01*
G01X93621Y89431D01*
G01X93545Y89431D01*
G01X2664Y89431D02*
G01X2029Y89431D01*
G01X2029Y88568D01*
G01X2562Y88568D01*
G01X2664Y88568D01*
G01X3045Y88568D02*
G01X3655Y88568D01*
G01X3655Y89431D01*
G01X3121Y89431D01*
G01X3045Y89431D01*
G01X44464Y89431D02*
G01X43829Y89431D01*
G01X43829Y88568D01*
G01X44362Y88568D01*
G01X44464Y88568D01*
G01X44845Y88568D02*
G01X45455Y88568D01*
G01X45455Y89431D01*
G01X44921Y89431D01*
G01X44845Y89431D01*
G01X23564Y89431D02*
G01X22929Y89431D01*
G01X22929Y88568D01*
G01X23462Y88568D01*
G01X23564Y88568D01*
G01X23945Y88568D02*
G01X24555Y88568D01*
G01X24555Y89431D01*
G01X24021Y89431D01*
G01X23945Y89431D01*
G01X86264Y89431D02*
G01X85629Y89431D01*
G01X85629Y88568D01*
G01X86162Y88568D01*
G01X86264Y88568D01*
G01X86645Y88568D02*
G01X87255Y88568D01*
G01X87255Y89431D01*
G01X86721Y89431D01*
G01X86645Y89431D01*
G01X51464Y89431D02*
G01X50829Y89431D01*
G01X50829Y88568D01*
G01X51362Y88568D01*
G01X51464Y88568D01*
G01X51845Y88568D02*
G01X52455Y88568D01*
G01X52455Y89431D01*
G01X51921Y89431D01*
G01X51845Y89431D01*
G01X16564Y89431D02*
G01X15929Y89431D01*
G01X15929Y88568D01*
G01X16462Y88568D01*
G01X16564Y88568D01*
G01X16945Y88568D02*
G01X17555Y88568D01*
G01X17555Y89431D01*
G01X17021Y89431D01*
G01X16945Y89431D01*
G01X9664Y89431D02*
G01X9029Y89431D01*
G01X9029Y88568D01*
G01X9562Y88568D01*
G01X9664Y88568D01*
G01X10045Y88568D02*
G01X10655Y88568D01*
G01X10655Y89431D01*
G01X10121Y89431D01*
G01X10045Y89431D01*
G01X58464Y89431D02*
G01X57829Y89431D01*
G01X57829Y88568D01*
G01X58362Y88568D01*
G01X58464Y88568D01*
G01X58845Y88568D02*
G01X59455Y88568D01*
G01X59455Y89431D01*
G01X58921Y89431D01*
G01X58845Y89431D01*
G01X79264Y89431D02*
G01X78629Y89431D01*
G01X78629Y88568D01*
G01X79162Y88568D01*
G01X79264Y88568D01*
G01X79645Y88568D02*
G01X80255Y88568D01*
G01X80255Y89431D01*
G01X79721Y89431D01*
G01X79645Y89431D01*
G01X72264Y89431D02*
G01X71629Y89431D01*
G01X71629Y88568D01*
G01X72162Y88568D01*
G01X72264Y88568D01*
G01X72645Y88568D02*
G01X73255Y88568D01*
G01X73255Y89431D01*
G01X72721Y89431D01*
G01X72645Y89431D01*
G01X61264Y89431D02*
G01X60629Y89431D01*
G01X60629Y88568D01*
G01X61162Y88568D01*
G01X61264Y88568D01*
G01X61645Y88568D02*
G01X62255Y88568D01*
G01X62255Y89431D01*
G01X61721Y89431D01*
G01X61645Y89431D01*
G01X40464Y89431D02*
G01X39829Y89431D01*
G01X39829Y88568D01*
G01X40362Y88568D01*
G01X40464Y88568D01*
G01X40845Y88568D02*
G01X41455Y88568D01*
G01X41455Y89431D01*
G01X40921Y89431D01*
G01X40845Y89431D01*
G01X75364Y89431D02*
G01X74729Y89431D01*
G01X74729Y88568D01*
G01X75262Y88568D01*
G01X75364Y88568D01*
G01X75745Y88568D02*
G01X76355Y88568D01*
G01X76355Y89431D01*
G01X75821Y89431D01*
G01X75745Y89431D01*
G01X68364Y89431D02*
G01X67729Y89431D01*
G01X67729Y88568D01*
G01X68262Y88568D01*
G01X68364Y88568D01*
G01X68745Y88568D02*
G01X69355Y88568D01*
G01X69355Y89431D01*
G01X68821Y89431D01*
G01X68745Y89431D01*
G01X5664Y89431D02*
G01X5029Y89431D01*
G01X5029Y88568D01*
G01X5562Y88568D01*
G01X5664Y88568D01*
G01X6045Y88568D02*
G01X6655Y88568D01*
G01X6655Y89431D01*
G01X6121Y89431D01*
G01X6045Y89431D01*
G01X82164Y89431D02*
G01X81529Y89431D01*
G01X81529Y88568D01*
G01X82062Y88568D01*
G01X82164Y88568D01*
G01X82545Y88568D02*
G01X83155Y88568D01*
G01X83155Y89431D01*
G01X82621Y89431D01*
G01X82545Y89431D01*
G01X19564Y89431D02*
G01X18929Y89431D01*
G01X18929Y88568D01*
G01X19462Y88568D01*
G01X19564Y88568D01*
G01X19945Y88568D02*
G01X20555Y88568D01*
G01X20555Y89431D01*
G01X20021Y89431D01*
G01X19945Y89431D01*
G01X12664Y89431D02*
G01X12029Y89431D01*
G01X12029Y88568D01*
G01X12562Y88568D01*
G01X12664Y88568D01*
G01X13045Y88568D02*
G01X13655Y88568D01*
G01X13655Y89431D01*
G01X13121Y89431D01*
G01X13045Y89431D01*
G01X89164Y89431D02*
G01X88529Y89431D01*
G01X88529Y88568D01*
G01X89062Y88568D01*
G01X89164Y88568D01*
G01X89545Y88568D02*
G01X90155Y88568D01*
G01X90155Y89431D01*
G01X89621Y89431D01*
G01X89545Y89431D01*
G01X26564Y89431D02*
G01X25929Y89431D01*
G01X25929Y88568D01*
G01X26462Y88568D01*
G01X26564Y88568D01*
G01X26945Y88568D02*
G01X27555Y88568D01*
G01X27555Y89431D01*
G01X27021Y89431D01*
G01X26945Y89431D01*
G01X47364Y89431D02*
G01X46729Y89431D01*
G01X46729Y88568D01*
G01X47262Y88568D01*
G01X47364Y88568D01*
G01X47745Y88568D02*
G01X48355Y88568D01*
G01X48355Y89431D01*
G01X47821Y89431D01*
G01X47745Y89431D01*
G01X96164Y89431D02*
G01X95529Y89431D01*
G01X95529Y88568D01*
G01X96062Y88568D01*
G01X96164Y88568D01*
G01X96545Y88568D02*
G01X97155Y88568D01*
G01X97155Y89431D01*
G01X96621Y89431D01*
G01X96545Y89431D01*
G01X33564Y89431D02*
G01X32929Y89431D01*
G01X32929Y88568D01*
G01X33462Y88568D01*
G01X33564Y88568D01*
G01X33945Y88568D02*
G01X34555Y88568D01*
G01X34555Y89431D01*
G01X34021Y89431D01*
G01X33945Y89431D01*
G01X54264Y89431D02*
G01X53629Y89431D01*
G01X53629Y88568D01*
G01X54162Y88568D01*
G01X54264Y88568D01*
G01X54645Y88568D02*
G01X55255Y88568D01*
G01X55255Y89431D01*
G01X54721Y89431D01*
G01X54645Y89431D01*
G54D10*
G01X1850Y81578D02*
G01X1850Y86578D01*
G01X6850Y86578D01*
G01X6850Y81578D01*
G01X1850Y81578D01*
G01X5599Y84327D02*
G01X3100Y84327D01*
G01X3599Y83827D01*
G01X5100Y83827D01*
G01X5599Y84327D01*
G01X1850Y82077D02*
G01X2350Y81578D01*
G54D20*
G01X2664Y79931D02*
G01X2029Y79931D01*
G01X2029Y79068D01*
G01X2562Y79068D01*
G01X2664Y79068D01*
G01X3045Y79068D02*
G01X3655Y79068D01*
G01X3655Y79931D01*
G01X3121Y79931D01*
G01X3045Y79931D01*
G01X5664Y79931D02*
G01X5029Y79931D01*
G01X5029Y79068D01*
G01X5562Y79068D01*
G01X5664Y79068D01*
G01X6045Y79068D02*
G01X6655Y79068D01*
G01X6655Y79931D01*
G01X6121Y79931D01*
G01X6045Y79931D01*
G54D10*
G01X85394Y81578D02*
G01X85394Y86578D01*
G01X90394Y86578D01*
G01X90394Y81578D01*
G01X85394Y81578D01*
G01X89143Y84327D02*
G01X86644Y84327D01*
G01X87143Y83827D01*
G01X88644Y83827D01*
G01X89143Y84327D01*
G01X85394Y82077D02*
G01X85893Y81578D01*
G01X78432Y81578D02*
G01X78432Y86578D01*
G01X83432Y86578D01*
G01X83432Y81578D01*
G01X78432Y81578D01*
G01X82181Y84327D02*
G01X79682Y84327D01*
G01X80181Y83827D01*
G01X81682Y83827D01*
G01X82181Y84327D01*
G01X78432Y82077D02*
G01X78931Y81578D01*
G01X71470Y81578D02*
G01X71470Y86578D01*
G01X76470Y86578D01*
G01X76470Y81578D01*
G01X71470Y81578D01*
G01X75219Y84327D02*
G01X72720Y84327D01*
G01X73219Y83827D01*
G01X74720Y83827D01*
G01X75219Y84327D01*
G01X71470Y82077D02*
G01X71970Y81578D01*
G01X64508Y81578D02*
G01X64508Y86578D01*
G01X69508Y86578D01*
G01X69508Y81578D01*
G01X64508Y81578D01*
G01X68257Y84327D02*
G01X65758Y84327D01*
G01X66257Y83827D01*
G01X67758Y83827D01*
G01X68257Y84327D01*
G01X64508Y82077D02*
G01X65007Y81578D01*
G01X92356Y81578D02*
G01X92356Y86578D01*
G01X97356Y86578D01*
G01X97356Y81578D01*
G01X92356Y81578D01*
G01X96105Y84327D02*
G01X93606Y84327D01*
G01X94105Y83827D01*
G01X95606Y83827D01*
G01X96105Y84327D01*
G01X92356Y82077D02*
G01X92855Y81578D01*
G01X57546Y81578D02*
G01X57546Y86578D01*
G01X62546Y86578D01*
G01X62546Y81578D01*
G01X57546Y81578D01*
G01X61295Y84327D02*
G01X58796Y84327D01*
G01X59295Y83827D01*
G01X60796Y83827D01*
G01X61295Y84327D01*
G01X57546Y82077D02*
G01X58045Y81578D01*
G01X50584Y81578D02*
G01X50584Y86578D01*
G01X55584Y86578D01*
G01X55584Y81578D01*
G01X50584Y81578D01*
G01X54333Y84327D02*
G01X51834Y84327D01*
G01X52333Y83827D01*
G01X53834Y83827D01*
G01X54333Y84327D01*
G01X50584Y82077D02*
G01X51083Y81578D01*
G01X43622Y81578D02*
G01X43622Y86578D01*
G01X48622Y86578D01*
G01X48622Y81578D01*
G01X43622Y81578D01*
G01X47371Y84327D02*
G01X44872Y84327D01*
G01X45371Y83827D01*
G01X46872Y83827D01*
G01X47371Y84327D01*
G01X43622Y82077D02*
G01X44121Y81578D01*
G01X36660Y81578D02*
G01X36660Y86578D01*
G01X41660Y86578D01*
G01X41660Y81578D01*
G01X36660Y81578D01*
G01X40409Y84327D02*
G01X37910Y84327D01*
G01X38409Y83827D01*
G01X39910Y83827D01*
G01X40409Y84327D01*
G01X36660Y82077D02*
G01X37159Y81578D01*
G01X22736Y81578D02*
G01X22736Y86578D01*
G01X27736Y86578D01*
G01X27736Y81578D01*
G01X22736Y81578D01*
G01X26485Y84327D02*
G01X23986Y84327D01*
G01X24485Y83827D01*
G01X25986Y83827D01*
G01X26485Y84327D01*
G01X22736Y82077D02*
G01X23235Y81578D01*
G01X29698Y81578D02*
G01X29698Y86578D01*
G01X34698Y86578D01*
G01X34698Y81578D01*
G01X29698Y81578D01*
G01X33447Y84327D02*
G01X30948Y84327D01*
G01X31447Y83827D01*
G01X32948Y83827D01*
G01X33447Y84327D01*
G01X29698Y82077D02*
G01X30198Y81578D01*
G54D20*
G01X58464Y79931D02*
G01X57829Y79931D01*
G01X57829Y79068D01*
G01X58362Y79068D01*
G01X58464Y79068D01*
G01X58845Y79068D02*
G01X59455Y79068D01*
G01X59455Y79931D01*
G01X58921Y79931D01*
G01X58845Y79931D01*
G01X86264Y79931D02*
G01X85629Y79931D01*
G01X85629Y79068D01*
G01X86162Y79068D01*
G01X86264Y79068D01*
G01X86645Y79068D02*
G01X87255Y79068D01*
G01X87255Y79931D01*
G01X86721Y79931D01*
G01X86645Y79931D01*
G01X51464Y79931D02*
G01X50829Y79931D01*
G01X50829Y79068D01*
G01X51362Y79068D01*
G01X51464Y79068D01*
G01X51845Y79068D02*
G01X52455Y79068D01*
G01X52455Y79931D01*
G01X51921Y79931D01*
G01X51845Y79931D01*
G01X72264Y79931D02*
G01X71629Y79931D01*
G01X71629Y79068D01*
G01X72162Y79068D01*
G01X72264Y79068D01*
G01X72645Y79068D02*
G01X73255Y79068D01*
G01X73255Y79931D01*
G01X72721Y79931D01*
G01X72645Y79931D01*
G01X44464Y79931D02*
G01X43829Y79931D01*
G01X43829Y79068D01*
G01X44362Y79068D01*
G01X44464Y79068D01*
G01X44845Y79068D02*
G01X45455Y79068D01*
G01X45455Y79931D01*
G01X44921Y79931D01*
G01X44845Y79931D01*
G01X65364Y79931D02*
G01X64729Y79931D01*
G01X64729Y79068D01*
G01X65262Y79068D01*
G01X65364Y79068D01*
G01X65745Y79068D02*
G01X66355Y79068D01*
G01X66355Y79931D01*
G01X65821Y79931D01*
G01X65745Y79931D01*
G01X16564Y79931D02*
G01X15929Y79931D01*
G01X15929Y79068D01*
G01X16462Y79068D01*
G01X16564Y79068D01*
G01X16945Y79068D02*
G01X17555Y79068D01*
G01X17555Y79931D01*
G01X17021Y79931D01*
G01X16945Y79931D01*
G01X37464Y79931D02*
G01X36829Y79931D01*
G01X36829Y79068D01*
G01X37362Y79068D01*
G01X37464Y79068D01*
G01X37845Y79068D02*
G01X38455Y79068D01*
G01X38455Y79931D01*
G01X37921Y79931D01*
G01X37845Y79931D01*
G01X93164Y79931D02*
G01X92529Y79931D01*
G01X92529Y79068D01*
G01X93062Y79068D01*
G01X93164Y79068D01*
G01X93545Y79068D02*
G01X94155Y79068D01*
G01X94155Y79931D01*
G01X93621Y79931D01*
G01X93545Y79931D01*
G01X79264Y79931D02*
G01X78629Y79931D01*
G01X78629Y79068D01*
G01X79162Y79068D01*
G01X79264Y79068D01*
G01X79645Y79068D02*
G01X80255Y79068D01*
G01X80255Y79931D01*
G01X79721Y79931D01*
G01X79645Y79931D01*
G01X23564Y79931D02*
G01X22929Y79931D01*
G01X22929Y79068D01*
G01X23462Y79068D01*
G01X23564Y79068D01*
G01X23945Y79068D02*
G01X24555Y79068D01*
G01X24555Y79931D01*
G01X24021Y79931D01*
G01X23945Y79931D01*
G01X30564Y79931D02*
G01X29929Y79931D01*
G01X29929Y79068D01*
G01X30462Y79068D01*
G01X30564Y79068D01*
G01X30945Y79068D02*
G01X31555Y79068D01*
G01X31555Y79931D01*
G01X31021Y79931D01*
G01X30945Y79931D01*
G01X26564Y79931D02*
G01X25929Y79931D01*
G01X25929Y79068D01*
G01X26462Y79068D01*
G01X26564Y79068D01*
G01X26945Y79068D02*
G01X27555Y79068D01*
G01X27555Y79931D01*
G01X27021Y79931D01*
G01X26945Y79931D01*
G01X19564Y79931D02*
G01X18929Y79931D01*
G01X18929Y79068D01*
G01X19462Y79068D01*
G01X19564Y79068D01*
G01X19945Y79068D02*
G01X20555Y79068D01*
G01X20555Y79931D01*
G01X20021Y79931D01*
G01X19945Y79931D01*
G01X40464Y79931D02*
G01X39829Y79931D01*
G01X39829Y79068D01*
G01X40362Y79068D01*
G01X40464Y79068D01*
G01X40845Y79068D02*
G01X41455Y79068D01*
G01X41455Y79931D01*
G01X40921Y79931D01*
G01X40845Y79931D01*
G01X47364Y79931D02*
G01X46729Y79931D01*
G01X46729Y79068D01*
G01X47262Y79068D01*
G01X47364Y79068D01*
G01X47745Y79068D02*
G01X48355Y79068D01*
G01X48355Y79931D01*
G01X47821Y79931D01*
G01X47745Y79931D01*
G01X54264Y79931D02*
G01X53629Y79931D01*
G01X53629Y79068D01*
G01X54162Y79068D01*
G01X54264Y79068D01*
G01X54645Y79068D02*
G01X55255Y79068D01*
G01X55255Y79931D01*
G01X54721Y79931D01*
G01X54645Y79931D01*
G01X61264Y79931D02*
G01X60629Y79931D01*
G01X60629Y79068D01*
G01X61162Y79068D01*
G01X61264Y79068D01*
G01X61645Y79068D02*
G01X62255Y79068D01*
G01X62255Y79931D01*
G01X61721Y79931D01*
G01X61645Y79931D01*
G01X33564Y79931D02*
G01X32929Y79931D01*
G01X32929Y79068D01*
G01X33462Y79068D01*
G01X33564Y79068D01*
G01X33945Y79068D02*
G01X34555Y79068D01*
G01X34555Y79931D01*
G01X34021Y79931D01*
G01X33945Y79931D01*
G01X68364Y79931D02*
G01X67729Y79931D01*
G01X67729Y79068D01*
G01X68262Y79068D01*
G01X68364Y79068D01*
G01X68745Y79068D02*
G01X69355Y79068D01*
G01X69355Y79931D01*
G01X68821Y79931D01*
G01X68745Y79931D01*
G01X75364Y79931D02*
G01X74729Y79931D01*
G01X74729Y79068D01*
G01X75262Y79068D01*
G01X75364Y79068D01*
G01X75745Y79068D02*
G01X76355Y79068D01*
G01X76355Y79931D01*
G01X75821Y79931D01*
G01X75745Y79931D01*
G01X82164Y79931D02*
G01X81529Y79931D01*
G01X81529Y79068D01*
G01X82062Y79068D01*
G01X82164Y79068D01*
G01X82545Y79068D02*
G01X83155Y79068D01*
G01X83155Y79931D01*
G01X82621Y79931D01*
G01X82545Y79931D01*
G01X89164Y79931D02*
G01X88529Y79931D01*
G01X88529Y79068D01*
G01X89062Y79068D01*
G01X89164Y79068D01*
G01X89545Y79068D02*
G01X90155Y79068D01*
G01X90155Y79931D01*
G01X89621Y79931D01*
G01X89545Y79931D01*
G01X96164Y79931D02*
G01X95529Y79931D01*
G01X95529Y79068D01*
G01X96062Y79068D01*
G01X96164Y79068D01*
G01X96545Y79068D02*
G01X97155Y79068D01*
G01X97155Y79931D01*
G01X96621Y79931D01*
G01X96545Y79931D01*
G54D10*
G01X8812Y81578D02*
G01X8812Y86578D01*
G01X13812Y86578D01*
G01X13812Y81578D01*
G01X8812Y81578D01*
G01X12561Y84327D02*
G01X10062Y84327D01*
G01X10561Y83827D01*
G01X12062Y83827D01*
G01X12561Y84327D01*
G01X8812Y82077D02*
G01X9311Y81578D01*
G54D20*
G01X9664Y79931D02*
G01X9029Y79931D01*
G01X9029Y79068D01*
G01X9562Y79068D01*
G01X9664Y79068D01*
G01X10045Y79068D02*
G01X10655Y79068D01*
G01X10655Y79931D01*
G01X10121Y79931D01*
G01X10045Y79931D01*
G01X12664Y79931D02*
G01X12029Y79931D01*
G01X12029Y79068D01*
G01X12562Y79068D01*
G01X12664Y79068D01*
G01X13045Y79068D02*
G01X13655Y79068D01*
G01X13655Y79931D01*
G01X13121Y79931D01*
G01X13045Y79931D01*
G54D10*
G01X29698Y62633D02*
G01X29698Y67633D01*
G01X34698Y67633D01*
G01X34698Y62633D01*
G01X29698Y62633D01*
G01X33447Y65382D02*
G01X30948Y65382D01*
G01X31447Y64882D01*
G01X32948Y64882D01*
G01X33447Y65382D01*
G01X29698Y63132D02*
G01X30198Y62633D01*
G01X85394Y62633D02*
G01X85394Y67633D01*
G01X90394Y67633D01*
G01X90394Y62633D01*
G01X85394Y62633D01*
G01X89143Y65382D02*
G01X86644Y65382D01*
G01X87143Y64882D01*
G01X88644Y64882D01*
G01X89143Y65382D01*
G01X85394Y63132D02*
G01X85894Y62633D01*
G01X78432Y62633D02*
G01X78432Y67633D01*
G01X83432Y67633D01*
G01X83432Y62633D01*
G01X78432Y62633D01*
G01X82181Y65382D02*
G01X79682Y65382D01*
G01X80181Y64882D01*
G01X81682Y64882D01*
G01X82181Y65382D01*
G01X78432Y63132D02*
G01X78931Y62633D01*
G01X71470Y62633D02*
G01X71470Y67633D01*
G01X76470Y67633D01*
G01X76470Y62633D01*
G01X71470Y62633D01*
G01X75219Y65382D02*
G01X72720Y65382D01*
G01X73219Y64882D01*
G01X74720Y64882D01*
G01X75219Y65382D01*
G01X71470Y63132D02*
G01X71970Y62633D01*
G01X64508Y62633D02*
G01X64508Y67633D01*
G01X69508Y67633D01*
G01X69508Y62633D01*
G01X64508Y62633D01*
G01X68257Y65382D02*
G01X65758Y65382D01*
G01X66257Y64882D01*
G01X67758Y64882D01*
G01X68257Y65382D01*
G01X64508Y63132D02*
G01X65007Y62633D01*
G01X57546Y62633D02*
G01X57546Y67633D01*
G01X62546Y67633D01*
G01X62546Y62633D01*
G01X57546Y62633D01*
G01X61295Y65382D02*
G01X58796Y65382D01*
G01X59295Y64882D01*
G01X60796Y64882D01*
G01X61295Y65382D01*
G01X57546Y63132D02*
G01X58046Y62633D01*
G01X50584Y62633D02*
G01X50584Y67633D01*
G01X55584Y67633D01*
G01X55584Y62633D01*
G01X50584Y62633D01*
G01X54333Y65382D02*
G01X51834Y65382D01*
G01X52333Y64882D01*
G01X53834Y64882D01*
G01X54333Y65382D01*
G01X50584Y63132D02*
G01X51083Y62633D01*
G01X43622Y62633D02*
G01X43622Y67633D01*
G01X48622Y67633D01*
G01X48622Y62633D01*
G01X43622Y62633D01*
G01X47371Y65382D02*
G01X44872Y65382D01*
G01X45371Y64882D01*
G01X46872Y64882D01*
G01X47371Y65382D01*
G01X43622Y63132D02*
G01X44122Y62633D01*
G01X36660Y62633D02*
G01X36660Y67633D01*
G01X41660Y67633D01*
G01X41660Y62633D01*
G01X36660Y62633D01*
G01X40409Y65382D02*
G01X37910Y65382D01*
G01X38409Y64882D01*
G01X39910Y64882D01*
G01X40409Y65382D01*
G01X36660Y63132D02*
G01X37159Y62633D01*
G01X92356Y62633D02*
G01X92356Y67633D01*
G01X97356Y67633D01*
G01X97356Y62633D01*
G01X92356Y62633D01*
G01X96105Y65382D02*
G01X93606Y65382D01*
G01X94105Y64882D01*
G01X95606Y64882D01*
G01X96105Y65382D01*
G01X92356Y63132D02*
G01X92855Y62633D01*
G01X22736Y62633D02*
G01X22736Y67633D01*
G01X27736Y67633D01*
G01X27736Y62633D01*
G01X22736Y62633D01*
G01X26485Y65382D02*
G01X23986Y65382D01*
G01X24485Y64882D01*
G01X25986Y64882D01*
G01X26485Y65382D01*
G01X22736Y63132D02*
G01X23235Y62633D01*
G01X15774Y62633D02*
G01X15774Y67633D01*
G01X20774Y67633D01*
G01X20774Y62633D01*
G01X15774Y62633D01*
G01X19523Y65382D02*
G01X17024Y65382D01*
G01X17523Y64882D01*
G01X19024Y64882D01*
G01X19523Y65382D01*
G01X15774Y63132D02*
G01X16274Y62633D01*
G01X8812Y62633D02*
G01X8812Y67633D01*
G01X13812Y67633D01*
G01X13812Y62633D01*
G01X8812Y62633D01*
G01X12561Y65382D02*
G01X10062Y65382D01*
G01X10561Y64882D01*
G01X12062Y64882D01*
G01X12561Y65382D01*
G01X8812Y63132D02*
G01X9311Y62633D01*
G01X1850Y62633D02*
G01X1850Y67633D01*
G01X6850Y67633D01*
G01X6850Y62633D01*
G01X1850Y62633D01*
G01X5599Y65382D02*
G01X3100Y65382D01*
G01X3599Y64882D01*
G01X5100Y64882D01*
G01X5599Y65382D01*
G01X1850Y63132D02*
G01X2350Y62633D01*
G01X92356Y72105D02*
G01X92356Y77105D01*
G01X97356Y77105D01*
G01X97356Y72105D01*
G01X92356Y72105D01*
G01X96106Y74854D02*
G01X93606Y74854D01*
G01X94106Y74354D01*
G01X95606Y74354D01*
G01X96106Y74854D01*
G01X92356Y72604D02*
G01X92856Y72105D01*
G01X1850Y72105D02*
G01X1850Y77105D01*
G01X6850Y77105D01*
G01X6850Y72105D01*
G01X1850Y72105D01*
G01X5599Y74854D02*
G01X3100Y74854D01*
G01X3599Y74354D01*
G01X5100Y74354D01*
G01X5599Y74854D01*
G01X1850Y72604D02*
G01X2350Y72105D01*
G01X8812Y72105D02*
G01X8812Y77105D01*
G01X13812Y77105D01*
G01X13812Y72105D01*
G01X8812Y72105D01*
G01X12562Y74854D02*
G01X10062Y74854D01*
G01X10562Y74354D01*
G01X12062Y74354D01*
G01X12562Y74854D01*
G01X8812Y72604D02*
G01X9312Y72105D01*
G01X15774Y72105D02*
G01X15774Y77105D01*
G01X20774Y77105D01*
G01X20774Y72105D01*
G01X15774Y72105D01*
G01X19523Y74854D02*
G01X17024Y74854D01*
G01X17523Y74354D01*
G01X19024Y74354D01*
G01X19523Y74854D01*
G01X15774Y72604D02*
G01X16274Y72105D01*
G01X85394Y72105D02*
G01X85394Y77105D01*
G01X90394Y77105D01*
G01X90394Y72105D01*
G01X85394Y72105D01*
G01X89143Y74854D02*
G01X86644Y74854D01*
G01X87143Y74354D01*
G01X88644Y74354D01*
G01X89143Y74854D01*
G01X85394Y72604D02*
G01X85894Y72105D01*
G01X22736Y72105D02*
G01X22736Y77105D01*
G01X27736Y77105D01*
G01X27736Y72105D01*
G01X22736Y72105D01*
G01X26486Y74854D02*
G01X23986Y74854D01*
G01X24486Y74354D01*
G01X25986Y74354D01*
G01X26486Y74854D01*
G01X22736Y72604D02*
G01X23236Y72105D01*
G01X29698Y72105D02*
G01X29698Y77105D01*
G01X34698Y77105D01*
G01X34698Y72105D01*
G01X29698Y72105D01*
G01X33447Y74854D02*
G01X30948Y74854D01*
G01X31447Y74354D01*
G01X32948Y74354D01*
G01X33447Y74854D01*
G01X29698Y72604D02*
G01X30198Y72105D01*
G01X78432Y72105D02*
G01X78432Y77105D01*
G01X83432Y77105D01*
G01X83432Y72105D01*
G01X78432Y72105D01*
G01X82181Y74854D02*
G01X79682Y74854D01*
G01X80181Y74354D01*
G01X81682Y74354D01*
G01X82181Y74854D01*
G01X78432Y72604D02*
G01X78931Y72105D01*
G01X36660Y72105D02*
G01X36660Y77105D01*
G01X41660Y77105D01*
G01X41660Y72105D01*
G01X36660Y72105D01*
G01X40409Y74854D02*
G01X37910Y74854D01*
G01X38409Y74354D01*
G01X39910Y74354D01*
G01X40409Y74854D01*
G01X36660Y72604D02*
G01X37159Y72105D01*
G01X43622Y72105D02*
G01X43622Y77105D01*
G01X48622Y77105D01*
G01X48622Y72105D01*
G01X43622Y72105D01*
G01X47371Y74854D02*
G01X44872Y74854D01*
G01X45371Y74354D01*
G01X46872Y74354D01*
G01X47371Y74854D01*
G01X43622Y72604D02*
G01X44122Y72105D01*
G01X71470Y72105D02*
G01X71470Y77105D01*
G01X76470Y77105D01*
G01X76470Y72105D01*
G01X71470Y72105D01*
G01X75219Y74854D02*
G01X72720Y74854D01*
G01X73219Y74354D01*
G01X74720Y74354D01*
G01X75219Y74854D01*
G01X71470Y72604D02*
G01X71970Y72105D01*
G01X50584Y72105D02*
G01X50584Y77105D01*
G01X55584Y77105D01*
G01X55584Y72105D01*
G01X50584Y72105D01*
G01X54333Y74854D02*
G01X51834Y74854D01*
G01X52333Y74354D01*
G01X53834Y74354D01*
G01X54333Y74854D01*
G01X50584Y72604D02*
G01X51083Y72105D01*
G01X57546Y72105D02*
G01X57546Y77105D01*
G01X62546Y77105D01*
G01X62546Y72105D01*
G01X57546Y72105D01*
G01X61295Y74854D02*
G01X58796Y74854D01*
G01X59295Y74354D01*
G01X60796Y74354D01*
G01X61295Y74854D01*
G01X57546Y72604D02*
G01X58046Y72105D01*
G01X64508Y72105D02*
G01X64508Y77105D01*
G01X69508Y77105D01*
G01X69508Y72105D01*
G01X64508Y72105D01*
G01X68258Y74854D02*
G01X65758Y74854D01*
G01X66258Y74354D01*
G01X67758Y74354D01*
G01X68258Y74854D01*
G01X64508Y72604D02*
G01X65008Y72105D01*
G54D20*
G01X79264Y61031D02*
G01X78629Y61031D01*
G01X78629Y60168D01*
G01X79162Y60168D01*
G01X79264Y60168D01*
G01X79645Y60168D02*
G01X80255Y60168D01*
G01X80255Y61031D01*
G01X79721Y61031D01*
G01X79645Y61031D01*
G01X23564Y61031D02*
G01X22929Y61031D01*
G01X22929Y60168D01*
G01X23462Y60168D01*
G01X23564Y60168D01*
G01X23945Y60168D02*
G01X24555Y60168D01*
G01X24555Y61031D01*
G01X24021Y61031D01*
G01X23945Y61031D01*
G01X58464Y61031D02*
G01X57829Y61031D01*
G01X57829Y60168D01*
G01X58362Y60168D01*
G01X58464Y60168D01*
G01X58845Y60168D02*
G01X59455Y60168D01*
G01X59455Y61031D01*
G01X58921Y61031D01*
G01X58845Y61031D01*
G01X16564Y61031D02*
G01X15929Y61031D01*
G01X15929Y60168D01*
G01X16462Y60168D01*
G01X16564Y60168D01*
G01X16945Y60168D02*
G01X17555Y60168D01*
G01X17555Y61031D01*
G01X17021Y61031D01*
G01X16945Y61031D01*
G01X86264Y61031D02*
G01X85629Y61031D01*
G01X85629Y60168D01*
G01X86162Y60168D01*
G01X86264Y60168D01*
G01X86645Y60168D02*
G01X87255Y60168D01*
G01X87255Y61031D01*
G01X86721Y61031D01*
G01X86645Y61031D01*
G01X9664Y61031D02*
G01X9029Y61031D01*
G01X9029Y60168D01*
G01X9562Y60168D01*
G01X9664Y60168D01*
G01X10045Y60168D02*
G01X10655Y60168D01*
G01X10655Y61031D01*
G01X10121Y61031D01*
G01X10045Y61031D01*
G01X51464Y61031D02*
G01X50829Y61031D01*
G01X50829Y60168D01*
G01X51362Y60168D01*
G01X51464Y60168D01*
G01X51845Y60168D02*
G01X52455Y60168D01*
G01X52455Y61031D01*
G01X51921Y61031D01*
G01X51845Y61031D01*
G01X2664Y61031D02*
G01X2029Y61031D01*
G01X2029Y60168D01*
G01X2562Y60168D01*
G01X2664Y60168D01*
G01X3045Y60168D02*
G01X3655Y60168D01*
G01X3655Y61031D01*
G01X3121Y61031D01*
G01X3045Y61031D01*
G01X72264Y61031D02*
G01X71629Y61031D01*
G01X71629Y60168D01*
G01X72162Y60168D01*
G01X72264Y60168D01*
G01X72645Y60168D02*
G01X73255Y60168D01*
G01X73255Y61031D01*
G01X72721Y61031D01*
G01X72645Y61031D01*
G01X93164Y70531D02*
G01X92529Y70531D01*
G01X92529Y69668D01*
G01X93062Y69668D01*
G01X93164Y69668D01*
G01X93545Y69668D02*
G01X94155Y69668D01*
G01X94155Y70531D01*
G01X93621Y70531D01*
G01X93545Y70531D01*
G01X2564Y70531D02*
G01X1929Y70531D01*
G01X1929Y69668D01*
G01X2462Y69668D01*
G01X2564Y69668D01*
G01X2945Y69668D02*
G01X3555Y69668D01*
G01X3555Y70531D01*
G01X3021Y70531D01*
G01X2945Y70531D01*
G01X44464Y61031D02*
G01X43829Y61031D01*
G01X43829Y60168D01*
G01X44362Y60168D01*
G01X44464Y60168D01*
G01X44845Y60168D02*
G01X45455Y60168D01*
G01X45455Y61031D01*
G01X44921Y61031D01*
G01X44845Y61031D01*
G01X9664Y70531D02*
G01X9029Y70531D01*
G01X9029Y69668D01*
G01X9562Y69668D01*
G01X9664Y69668D01*
G01X10045Y69668D02*
G01X10655Y69668D01*
G01X10655Y70531D01*
G01X10121Y70531D01*
G01X10045Y70531D01*
G01X86264Y70531D02*
G01X85629Y70531D01*
G01X85629Y69668D01*
G01X86162Y69668D01*
G01X86264Y69668D01*
G01X86645Y69668D02*
G01X87255Y69668D01*
G01X87255Y70531D01*
G01X86721Y70531D01*
G01X86645Y70531D01*
G01X16564Y70531D02*
G01X15929Y70531D01*
G01X15929Y69668D01*
G01X16462Y69668D01*
G01X16564Y69668D01*
G01X16945Y69668D02*
G01X17555Y69668D01*
G01X17555Y70531D01*
G01X17021Y70531D01*
G01X16945Y70531D01*
G01X23564Y70531D02*
G01X22929Y70531D01*
G01X22929Y69668D01*
G01X23462Y69668D01*
G01X23564Y69668D01*
G01X23945Y69668D02*
G01X24555Y69668D01*
G01X24555Y70531D01*
G01X24021Y70531D01*
G01X23945Y70531D01*
G01X79264Y70531D02*
G01X78629Y70531D01*
G01X78629Y69668D01*
G01X79162Y69668D01*
G01X79264Y69668D01*
G01X79645Y69668D02*
G01X80255Y69668D01*
G01X80255Y70531D01*
G01X79721Y70531D01*
G01X79645Y70531D01*
G01X30564Y70531D02*
G01X29929Y70531D01*
G01X29929Y69668D01*
G01X30462Y69668D01*
G01X30564Y69668D01*
G01X30945Y69668D02*
G01X31555Y69668D01*
G01X31555Y70531D01*
G01X31021Y70531D01*
G01X30945Y70531D01*
G01X37464Y61031D02*
G01X36829Y61031D01*
G01X36829Y60168D01*
G01X37362Y60168D01*
G01X37464Y60168D01*
G01X37845Y60168D02*
G01X38455Y60168D01*
G01X38455Y61031D01*
G01X37921Y61031D01*
G01X37845Y61031D01*
G01X65364Y61031D02*
G01X64729Y61031D01*
G01X64729Y60168D01*
G01X65262Y60168D01*
G01X65364Y60168D01*
G01X65745Y60168D02*
G01X66355Y60168D01*
G01X66355Y61031D01*
G01X65821Y61031D01*
G01X65745Y61031D01*
G01X37464Y70531D02*
G01X36829Y70531D01*
G01X36829Y69668D01*
G01X37362Y69668D01*
G01X37464Y69668D01*
G01X37845Y69668D02*
G01X38455Y69668D01*
G01X38455Y70531D01*
G01X37921Y70531D01*
G01X37845Y70531D01*
G01X72264Y70531D02*
G01X71629Y70531D01*
G01X71629Y69668D01*
G01X72162Y69668D01*
G01X72264Y69668D01*
G01X72645Y69668D02*
G01X73255Y69668D01*
G01X73255Y70531D01*
G01X72721Y70531D01*
G01X72645Y70531D01*
G01X44464Y70531D02*
G01X43829Y70531D01*
G01X43829Y69668D01*
G01X44362Y69668D01*
G01X44464Y69668D01*
G01X44845Y69668D02*
G01X45455Y69668D01*
G01X45455Y70531D01*
G01X44921Y70531D01*
G01X44845Y70531D01*
G01X93164Y61031D02*
G01X92529Y61031D01*
G01X92529Y60168D01*
G01X93062Y60168D01*
G01X93164Y60168D01*
G01X93545Y60168D02*
G01X94155Y60168D01*
G01X94155Y61031D01*
G01X93621Y61031D01*
G01X93545Y61031D01*
G01X51464Y70531D02*
G01X50829Y70531D01*
G01X50829Y69668D01*
G01X51362Y69668D01*
G01X51464Y69668D01*
G01X51845Y69668D02*
G01X52455Y69668D01*
G01X52455Y70531D01*
G01X51921Y70531D01*
G01X51845Y70531D01*
G01X65364Y70531D02*
G01X64729Y70531D01*
G01X64729Y69668D01*
G01X65262Y69668D01*
G01X65364Y69668D01*
G01X65745Y69668D02*
G01X66355Y69668D01*
G01X66355Y70531D01*
G01X65821Y70531D01*
G01X65745Y70531D01*
G01X58464Y70531D02*
G01X57829Y70531D01*
G01X57829Y69668D01*
G01X58362Y69668D01*
G01X58464Y69668D01*
G01X58845Y69668D02*
G01X59455Y69668D01*
G01X59455Y70531D01*
G01X58921Y70531D01*
G01X58845Y70531D01*
G01X30564Y61031D02*
G01X29929Y61031D01*
G01X29929Y60168D01*
G01X30462Y60168D01*
G01X30564Y60168D01*
G01X30945Y60168D02*
G01X31555Y60168D01*
G01X31555Y61031D01*
G01X31021Y61031D01*
G01X30945Y61031D01*
G01X61264Y70531D02*
G01X60629Y70531D01*
G01X60629Y69668D01*
G01X61162Y69668D01*
G01X61264Y69668D01*
G01X61645Y69668D02*
G01X62255Y69668D01*
G01X62255Y70531D01*
G01X61721Y70531D01*
G01X61645Y70531D01*
G01X68364Y70531D02*
G01X67729Y70531D01*
G01X67729Y69668D01*
G01X68262Y69668D01*
G01X68364Y69668D01*
G01X68745Y69668D02*
G01X69355Y69668D01*
G01X69355Y70531D01*
G01X68821Y70531D01*
G01X68745Y70531D01*
G01X47364Y70531D02*
G01X46729Y70531D01*
G01X46729Y69668D01*
G01X47262Y69668D01*
G01X47364Y69668D01*
G01X47745Y69668D02*
G01X48355Y69668D01*
G01X48355Y70531D01*
G01X47821Y70531D01*
G01X47745Y70531D01*
G01X40464Y70531D02*
G01X39829Y70531D01*
G01X39829Y69668D01*
G01X40362Y69668D01*
G01X40464Y69668D01*
G01X40845Y69668D02*
G01X41455Y69668D01*
G01X41455Y70531D01*
G01X40921Y70531D01*
G01X40845Y70531D01*
G01X75364Y70531D02*
G01X74729Y70531D01*
G01X74729Y69668D01*
G01X75262Y69668D01*
G01X75364Y69668D01*
G01X75745Y69668D02*
G01X76355Y69668D01*
G01X76355Y70531D01*
G01X75821Y70531D01*
G01X75745Y70531D01*
G01X33564Y70531D02*
G01X32929Y70531D01*
G01X32929Y69668D01*
G01X33462Y69668D01*
G01X33564Y69668D01*
G01X33945Y69668D02*
G01X34555Y69668D01*
G01X34555Y70531D01*
G01X34021Y70531D01*
G01X33945Y70531D01*
G01X26564Y70531D02*
G01X25929Y70531D01*
G01X25929Y69668D01*
G01X26462Y69668D01*
G01X26564Y69668D01*
G01X26945Y69668D02*
G01X27555Y69668D01*
G01X27555Y70531D01*
G01X27021Y70531D01*
G01X26945Y70531D01*
G01X82164Y70531D02*
G01X81529Y70531D01*
G01X81529Y69668D01*
G01X82062Y69668D01*
G01X82164Y69668D01*
G01X82545Y69668D02*
G01X83155Y69668D01*
G01X83155Y70531D01*
G01X82621Y70531D01*
G01X82545Y70531D01*
G01X19564Y70531D02*
G01X18929Y70531D01*
G01X18929Y69668D01*
G01X19462Y69668D01*
G01X19564Y69668D01*
G01X19945Y69668D02*
G01X20555Y69668D01*
G01X20555Y70531D01*
G01X20021Y70531D01*
G01X19945Y70531D01*
G01X12664Y70531D02*
G01X12029Y70531D01*
G01X12029Y69668D01*
G01X12562Y69668D01*
G01X12664Y69668D01*
G01X13045Y69668D02*
G01X13655Y69668D01*
G01X13655Y70531D01*
G01X13121Y70531D01*
G01X13045Y70531D01*
G01X89164Y70531D02*
G01X88529Y70531D01*
G01X88529Y69668D01*
G01X89062Y69668D01*
G01X89164Y69668D01*
G01X89545Y69668D02*
G01X90155Y69668D01*
G01X90155Y70531D01*
G01X89621Y70531D01*
G01X89545Y70531D01*
G01X5664Y70531D02*
G01X5029Y70531D01*
G01X5029Y69668D01*
G01X5562Y69668D01*
G01X5664Y69668D01*
G01X6045Y69668D02*
G01X6655Y69668D01*
G01X6655Y70531D01*
G01X6121Y70531D01*
G01X6045Y70531D01*
G01X96164Y70531D02*
G01X95529Y70531D01*
G01X95529Y69668D01*
G01X96062Y69668D01*
G01X96164Y69668D01*
G01X96545Y69668D02*
G01X97155Y69668D01*
G01X97155Y70531D01*
G01X96621Y70531D01*
G01X96545Y70531D01*
G01X5664Y61031D02*
G01X5029Y61031D01*
G01X5029Y60168D01*
G01X5562Y60168D01*
G01X5664Y60168D01*
G01X6045Y60168D02*
G01X6655Y60168D01*
G01X6655Y61031D01*
G01X6121Y61031D01*
G01X6045Y61031D01*
G01X12664Y61031D02*
G01X12029Y61031D01*
G01X12029Y60168D01*
G01X12562Y60168D01*
G01X12664Y60168D01*
G01X13045Y60168D02*
G01X13655Y60168D01*
G01X13655Y61031D01*
G01X13121Y61031D01*
G01X13045Y61031D01*
G01X19564Y61031D02*
G01X18929Y61031D01*
G01X18929Y60168D01*
G01X19462Y60168D01*
G01X19564Y60168D01*
G01X19945Y60168D02*
G01X20555Y60168D01*
G01X20555Y61031D01*
G01X20021Y61031D01*
G01X19945Y61031D01*
G01X26564Y61031D02*
G01X25929Y61031D01*
G01X25929Y60168D01*
G01X26462Y60168D01*
G01X26564Y60168D01*
G01X26945Y60168D02*
G01X27555Y60168D01*
G01X27555Y61031D01*
G01X27021Y61031D01*
G01X26945Y61031D01*
G01X54264Y70531D02*
G01X53629Y70531D01*
G01X53629Y69668D01*
G01X54162Y69668D01*
G01X54264Y69668D01*
G01X54645Y69668D02*
G01X55255Y69668D01*
G01X55255Y70531D01*
G01X54721Y70531D01*
G01X54645Y70531D01*
G01X33564Y61031D02*
G01X32929Y61031D01*
G01X32929Y60168D01*
G01X33462Y60168D01*
G01X33564Y60168D01*
G01X33945Y60168D02*
G01X34555Y60168D01*
G01X34555Y61031D01*
G01X34021Y61031D01*
G01X33945Y61031D01*
G01X40464Y61031D02*
G01X39829Y61031D01*
G01X39829Y60168D01*
G01X40362Y60168D01*
G01X40464Y60168D01*
G01X40845Y60168D02*
G01X41455Y60168D01*
G01X41455Y61031D01*
G01X40921Y61031D01*
G01X40845Y61031D01*
G01X47364Y61031D02*
G01X46729Y61031D01*
G01X46729Y60168D01*
G01X47262Y60168D01*
G01X47364Y60168D01*
G01X47745Y60168D02*
G01X48355Y60168D01*
G01X48355Y61031D01*
G01X47821Y61031D01*
G01X47745Y61031D01*
G01X54264Y61031D02*
G01X53629Y61031D01*
G01X53629Y60168D01*
G01X54162Y60168D01*
G01X54264Y60168D01*
G01X54645Y60168D02*
G01X55255Y60168D01*
G01X55255Y61031D01*
G01X54721Y61031D01*
G01X54645Y61031D01*
G01X61264Y61031D02*
G01X60629Y61031D01*
G01X60629Y60168D01*
G01X61162Y60168D01*
G01X61264Y60168D01*
G01X61645Y60168D02*
G01X62255Y60168D01*
G01X62255Y61031D01*
G01X61721Y61031D01*
G01X61645Y61031D01*
G01X68364Y61031D02*
G01X67729Y61031D01*
G01X67729Y60168D01*
G01X68262Y60168D01*
G01X68364Y60168D01*
G01X68745Y60168D02*
G01X69355Y60168D01*
G01X69355Y61031D01*
G01X68821Y61031D01*
G01X68745Y61031D01*
G01X75364Y61031D02*
G01X74729Y61031D01*
G01X74729Y60168D01*
G01X75262Y60168D01*
G01X75364Y60168D01*
G01X75745Y60168D02*
G01X76355Y60168D01*
G01X76355Y61031D01*
G01X75821Y61031D01*
G01X75745Y61031D01*
G01X82164Y61031D02*
G01X81529Y61031D01*
G01X81529Y60168D01*
G01X82062Y60168D01*
G01X82164Y60168D01*
G01X82545Y60168D02*
G01X83155Y60168D01*
G01X83155Y61031D01*
G01X82621Y61031D01*
G01X82545Y61031D01*
G01X89164Y61031D02*
G01X88529Y61031D01*
G01X88529Y60168D01*
G01X89062Y60168D01*
G01X89164Y60168D01*
G01X89545Y60168D02*
G01X90155Y60168D01*
G01X90155Y61031D01*
G01X89621Y61031D01*
G01X89545Y61031D01*
G01X96164Y61031D02*
G01X95529Y61031D01*
G01X95529Y60168D01*
G01X96062Y60168D01*
G01X96164Y60168D01*
G01X96545Y60168D02*
G01X97155Y60168D01*
G01X97155Y61031D01*
G01X96621Y61031D01*
G01X96545Y61031D01*
G54D10*
G01X1850Y34217D02*
G01X1850Y39217D01*
G01X6850Y39217D01*
G01X6850Y34217D01*
G01X1850Y34217D01*
G01X5600Y36966D02*
G01X3100Y36966D01*
G01X3600Y36466D01*
G01X5100Y36466D01*
G01X5600Y36966D01*
G01X1850Y34716D02*
G01X2350Y34217D01*
G01X92356Y43689D02*
G01X92356Y48689D01*
G01X97356Y48689D01*
G01X97356Y43689D01*
G01X92356Y43689D01*
G01X96106Y46438D02*
G01X93606Y46438D01*
G01X94106Y45938D01*
G01X95606Y45938D01*
G01X96106Y46438D01*
G01X92356Y44188D02*
G01X92856Y43689D01*
G01X85394Y43689D02*
G01X85394Y48689D01*
G01X90394Y48689D01*
G01X90394Y43689D01*
G01X85394Y43689D01*
G01X89143Y46438D02*
G01X86644Y46438D01*
G01X87143Y45938D01*
G01X88644Y45938D01*
G01X89143Y46438D01*
G01X85394Y44188D02*
G01X85894Y43689D01*
G01X78432Y43689D02*
G01X78432Y48689D01*
G01X83432Y48689D01*
G01X83432Y43689D01*
G01X78432Y43689D01*
G01X82182Y46438D02*
G01X79682Y46438D01*
G01X80182Y45938D01*
G01X81682Y45938D01*
G01X82182Y46438D01*
G01X78432Y44188D02*
G01X78932Y43689D01*
G01X71470Y43689D02*
G01X71470Y48689D01*
G01X76470Y48689D01*
G01X76470Y43689D01*
G01X71470Y43689D01*
G01X75220Y46438D02*
G01X72720Y46438D01*
G01X73220Y45938D01*
G01X74720Y45938D01*
G01X75220Y46438D01*
G01X71470Y44188D02*
G01X71970Y43689D01*
G01X64508Y43689D02*
G01X64508Y48689D01*
G01X69508Y48689D01*
G01X69508Y43689D01*
G01X64508Y43689D01*
G01X68258Y46438D02*
G01X65758Y46438D01*
G01X66258Y45938D01*
G01X67758Y45938D01*
G01X68258Y46438D01*
G01X64508Y44188D02*
G01X65008Y43689D01*
G01X57546Y43689D02*
G01X57546Y48689D01*
G01X62546Y48689D01*
G01X62546Y43689D01*
G01X57546Y43689D01*
G01X61295Y46438D02*
G01X58796Y46438D01*
G01X59295Y45938D01*
G01X60796Y45938D01*
G01X61295Y46438D01*
G01X57546Y44188D02*
G01X58046Y43689D01*
G01X50584Y43689D02*
G01X50584Y48689D01*
G01X55584Y48689D01*
G01X55584Y43689D01*
G01X50584Y43689D01*
G01X54334Y46438D02*
G01X51834Y46438D01*
G01X52334Y45938D01*
G01X53834Y45938D01*
G01X54334Y46438D01*
G01X50584Y44188D02*
G01X51084Y43689D01*
G01X43622Y43689D02*
G01X43622Y48689D01*
G01X48622Y48689D01*
G01X48622Y43689D01*
G01X43622Y43689D01*
G01X47371Y46438D02*
G01X44872Y46438D01*
G01X45371Y45938D01*
G01X46872Y45938D01*
G01X47371Y46438D01*
G01X43622Y44188D02*
G01X44122Y43689D01*
G01X36660Y43689D02*
G01X36660Y48689D01*
G01X41660Y48689D01*
G01X41660Y43689D01*
G01X36660Y43689D01*
G01X40410Y46438D02*
G01X37910Y46438D01*
G01X38410Y45938D01*
G01X39910Y45938D01*
G01X40410Y46438D01*
G01X36660Y44188D02*
G01X37160Y43689D01*
G01X29698Y43689D02*
G01X29698Y48689D01*
G01X34698Y48689D01*
G01X34698Y43689D01*
G01X29698Y43689D01*
G01X33448Y46438D02*
G01X30948Y46438D01*
G01X31448Y45938D01*
G01X32948Y45938D01*
G01X33448Y46438D01*
G01X29698Y44188D02*
G01X30198Y43689D01*
G01X22736Y43689D02*
G01X22736Y48689D01*
G01X27736Y48689D01*
G01X27736Y43689D01*
G01X22736Y43689D01*
G01X26486Y46438D02*
G01X23986Y46438D01*
G01X24486Y45938D01*
G01X25986Y45938D01*
G01X26486Y46438D01*
G01X22736Y44188D02*
G01X23236Y43689D01*
G01X15774Y43689D02*
G01X15774Y48689D01*
G01X20774Y48689D01*
G01X20774Y43689D01*
G01X15774Y43689D01*
G01X19523Y46438D02*
G01X17024Y46438D01*
G01X17523Y45938D01*
G01X19024Y45938D01*
G01X19523Y46438D01*
G01X15774Y44188D02*
G01X16274Y43689D01*
G01X8812Y43689D02*
G01X8812Y48689D01*
G01X13812Y48689D01*
G01X13812Y43689D01*
G01X8812Y43689D01*
G01X12562Y46438D02*
G01X10062Y46438D01*
G01X10562Y45938D01*
G01X12062Y45938D01*
G01X12562Y46438D01*
G01X8812Y44188D02*
G01X9312Y43689D01*
G01X1850Y43689D02*
G01X1850Y48689D01*
G01X6850Y48689D01*
G01X6850Y43689D01*
G01X1850Y43689D01*
G01X5600Y46438D02*
G01X3100Y46438D01*
G01X3600Y45938D01*
G01X5100Y45938D01*
G01X5600Y46438D01*
G01X1850Y44188D02*
G01X2350Y43689D01*
G01X92356Y53161D02*
G01X92356Y58160D01*
G01X97356Y58160D01*
G01X97356Y53161D01*
G01X92356Y53161D01*
G01X96106Y55910D02*
G01X93606Y55910D01*
G01X94106Y55410D01*
G01X95606Y55410D01*
G01X96106Y55910D01*
G01X92356Y53660D02*
G01X92856Y53161D01*
G01X85394Y53161D02*
G01X85394Y58160D01*
G01X90394Y58160D01*
G01X90394Y53161D01*
G01X85394Y53161D01*
G01X89143Y55910D02*
G01X86644Y55910D01*
G01X87143Y55410D01*
G01X88644Y55410D01*
G01X89143Y55910D01*
G01X85394Y53660D02*
G01X85894Y53161D01*
G01X78432Y53161D02*
G01X78432Y58160D01*
G01X83432Y58160D01*
G01X83432Y53161D01*
G01X78432Y53161D01*
G01X82182Y55910D02*
G01X79682Y55910D01*
G01X80182Y55410D01*
G01X81682Y55410D01*
G01X82182Y55910D01*
G01X78432Y53660D02*
G01X78932Y53161D01*
G01X71470Y53161D02*
G01X71470Y58160D01*
G01X76470Y58160D01*
G01X76470Y53161D01*
G01X71470Y53161D01*
G01X75220Y55910D02*
G01X72720Y55910D01*
G01X73220Y55410D01*
G01X74720Y55410D01*
G01X75220Y55910D01*
G01X71470Y53660D02*
G01X71970Y53161D01*
G01X64508Y53161D02*
G01X64508Y58160D01*
G01X69508Y58160D01*
G01X69508Y53161D01*
G01X64508Y53161D01*
G01X68258Y55910D02*
G01X65758Y55910D01*
G01X66258Y55410D01*
G01X67758Y55410D01*
G01X68258Y55910D01*
G01X64508Y53660D02*
G01X65008Y53161D01*
G01X57546Y53161D02*
G01X57546Y58160D01*
G01X62546Y58160D01*
G01X62546Y53161D01*
G01X57546Y53161D01*
G01X61295Y55910D02*
G01X58796Y55910D01*
G01X59295Y55410D01*
G01X60796Y55410D01*
G01X61295Y55910D01*
G01X57546Y53660D02*
G01X58046Y53161D01*
G01X50584Y53161D02*
G01X50584Y58160D01*
G01X55584Y58160D01*
G01X55584Y53161D01*
G01X50584Y53161D01*
G01X54334Y55910D02*
G01X51834Y55910D01*
G01X52334Y55410D01*
G01X53834Y55410D01*
G01X54334Y55910D01*
G01X50584Y53660D02*
G01X51084Y53161D01*
G01X43622Y53161D02*
G01X43622Y58160D01*
G01X48622Y58160D01*
G01X48622Y53161D01*
G01X43622Y53161D01*
G01X47371Y55910D02*
G01X44872Y55910D01*
G01X45371Y55410D01*
G01X46872Y55410D01*
G01X47371Y55910D01*
G01X43622Y53660D02*
G01X44122Y53161D01*
G01X36660Y53161D02*
G01X36660Y58160D01*
G01X41660Y58160D01*
G01X41660Y53161D01*
G01X36660Y53161D01*
G01X40410Y55910D02*
G01X37910Y55910D01*
G01X38410Y55410D01*
G01X39910Y55410D01*
G01X40410Y55910D01*
G01X36660Y53660D02*
G01X37160Y53161D01*
G01X29698Y53161D02*
G01X29698Y58160D01*
G01X34698Y58160D01*
G01X34698Y53161D01*
G01X29698Y53161D01*
G01X33448Y55910D02*
G01X30948Y55910D01*
G01X31448Y55410D01*
G01X32948Y55410D01*
G01X33448Y55910D01*
G01X29698Y53660D02*
G01X30198Y53161D01*
G01X22736Y53161D02*
G01X22736Y58160D01*
G01X27736Y58160D01*
G01X27736Y53161D01*
G01X22736Y53161D01*
G01X26486Y55910D02*
G01X23986Y55910D01*
G01X24486Y55410D01*
G01X25986Y55410D01*
G01X26486Y55910D01*
G01X22736Y53660D02*
G01X23236Y53161D01*
G01X15774Y53161D02*
G01X15774Y58160D01*
G01X20774Y58160D01*
G01X20774Y53161D01*
G01X15774Y53161D01*
G01X19523Y55910D02*
G01X17024Y55910D01*
G01X17523Y55410D01*
G01X19024Y55410D01*
G01X19523Y55910D01*
G01X15774Y53660D02*
G01X16274Y53161D01*
G01X8812Y53161D02*
G01X8812Y58160D01*
G01X13812Y58160D01*
G01X13812Y53161D01*
G01X8812Y53161D01*
G01X12562Y55910D02*
G01X10062Y55910D01*
G01X10562Y55410D01*
G01X12062Y55410D01*
G01X12562Y55910D01*
G01X8812Y53660D02*
G01X9312Y53161D01*
G01X1850Y53161D02*
G01X1850Y58160D01*
G01X6850Y58160D01*
G01X6850Y53161D01*
G01X1850Y53161D01*
G01X5600Y55910D02*
G01X3100Y55910D01*
G01X3600Y55410D01*
G01X5100Y55410D01*
G01X5600Y55910D01*
G01X1850Y53660D02*
G01X2350Y53161D01*
G54D20*
G01X2664Y51531D02*
G01X2029Y51531D01*
G01X2029Y50668D01*
G01X2562Y50668D01*
G01X2664Y50668D01*
G01X3045Y50668D02*
G01X3655Y50668D01*
G01X3655Y51531D01*
G01X3121Y51531D01*
G01X3045Y51531D01*
G01X9664Y51531D02*
G01X9029Y51531D01*
G01X9029Y50668D01*
G01X9562Y50668D01*
G01X9664Y50668D01*
G01X10045Y50668D02*
G01X10655Y50668D01*
G01X10655Y51531D01*
G01X10121Y51531D01*
G01X10045Y51531D01*
G01X16564Y51531D02*
G01X15929Y51531D01*
G01X15929Y50668D01*
G01X16462Y50668D01*
G01X16564Y50668D01*
G01X16945Y50668D02*
G01X17555Y50668D01*
G01X17555Y51531D01*
G01X17021Y51531D01*
G01X16945Y51531D01*
G01X23564Y51531D02*
G01X22929Y51531D01*
G01X22929Y50668D01*
G01X23462Y50668D01*
G01X23564Y50668D01*
G01X23945Y50668D02*
G01X24555Y50668D01*
G01X24555Y51531D01*
G01X24021Y51531D01*
G01X23945Y51531D01*
G01X30564Y51531D02*
G01X29929Y51531D01*
G01X29929Y50668D01*
G01X30462Y50668D01*
G01X30564Y50668D01*
G01X30945Y50668D02*
G01X31555Y50668D01*
G01X31555Y51531D01*
G01X31021Y51531D01*
G01X30945Y51531D01*
G01X37464Y51531D02*
G01X36829Y51531D01*
G01X36829Y50668D01*
G01X37362Y50668D01*
G01X37464Y50668D01*
G01X37845Y50668D02*
G01X38455Y50668D01*
G01X38455Y51531D01*
G01X37921Y51531D01*
G01X37845Y51531D01*
G01X44464Y51531D02*
G01X43829Y51531D01*
G01X43829Y50668D01*
G01X44362Y50668D01*
G01X44464Y50668D01*
G01X44845Y50668D02*
G01X45455Y50668D01*
G01X45455Y51531D01*
G01X44921Y51531D01*
G01X44845Y51531D01*
G01X51464Y51531D02*
G01X50829Y51531D01*
G01X50829Y50668D01*
G01X51362Y50668D01*
G01X51464Y50668D01*
G01X51845Y50668D02*
G01X52455Y50668D01*
G01X52455Y51531D01*
G01X51921Y51531D01*
G01X51845Y51531D01*
G01X58464Y51531D02*
G01X57829Y51531D01*
G01X57829Y50668D01*
G01X58362Y50668D01*
G01X58464Y50668D01*
G01X58845Y50668D02*
G01X59455Y50668D01*
G01X59455Y51531D01*
G01X58921Y51531D01*
G01X58845Y51531D01*
G01X65364Y51531D02*
G01X64729Y51531D01*
G01X64729Y50668D01*
G01X65262Y50668D01*
G01X65364Y50668D01*
G01X65745Y50668D02*
G01X66355Y50668D01*
G01X66355Y51531D01*
G01X65821Y51531D01*
G01X65745Y51531D01*
G01X72264Y51531D02*
G01X71629Y51531D01*
G01X71629Y50668D01*
G01X72162Y50668D01*
G01X72264Y50668D01*
G01X72645Y50668D02*
G01X73255Y50668D01*
G01X73255Y51531D01*
G01X72721Y51531D01*
G01X72645Y51531D01*
G01X79264Y51531D02*
G01X78629Y51531D01*
G01X78629Y50668D01*
G01X79162Y50668D01*
G01X79264Y50668D01*
G01X79645Y50668D02*
G01X80255Y50668D01*
G01X80255Y51531D01*
G01X79721Y51531D01*
G01X79645Y51531D01*
G01X86264Y51531D02*
G01X85629Y51531D01*
G01X85629Y50668D01*
G01X86162Y50668D01*
G01X86264Y50668D01*
G01X86645Y50668D02*
G01X87255Y50668D01*
G01X87255Y51531D01*
G01X86721Y51531D01*
G01X86645Y51531D01*
G01X93164Y51531D02*
G01X92529Y51531D01*
G01X92529Y50668D01*
G01X93062Y50668D01*
G01X93164Y50668D01*
G01X93545Y50668D02*
G01X94155Y50668D01*
G01X94155Y51531D01*
G01X93621Y51531D01*
G01X93545Y51531D01*
G01X2664Y42031D02*
G01X2029Y42031D01*
G01X2029Y41168D01*
G01X2562Y41168D01*
G01X2664Y41168D01*
G01X3045Y41168D02*
G01X3655Y41168D01*
G01X3655Y42031D01*
G01X3121Y42031D01*
G01X3045Y42031D01*
G01X9664Y42031D02*
G01X9029Y42031D01*
G01X9029Y41168D01*
G01X9562Y41168D01*
G01X9664Y41168D01*
G01X10045Y41168D02*
G01X10655Y41168D01*
G01X10655Y42031D01*
G01X10121Y42031D01*
G01X10045Y42031D01*
G01X16564Y42031D02*
G01X15929Y42031D01*
G01X15929Y41168D01*
G01X16462Y41168D01*
G01X16564Y41168D01*
G01X16945Y41168D02*
G01X17555Y41168D01*
G01X17555Y42031D01*
G01X17021Y42031D01*
G01X16945Y42031D01*
G01X23564Y42031D02*
G01X22929Y42031D01*
G01X22929Y41168D01*
G01X23462Y41168D01*
G01X23564Y41168D01*
G01X23945Y41168D02*
G01X24555Y41168D01*
G01X24555Y42031D01*
G01X24021Y42031D01*
G01X23945Y42031D01*
G01X30564Y42031D02*
G01X29929Y42031D01*
G01X29929Y41168D01*
G01X30462Y41168D01*
G01X30564Y41168D01*
G01X30945Y41168D02*
G01X31555Y41168D01*
G01X31555Y42031D01*
G01X31021Y42031D01*
G01X30945Y42031D01*
G01X37464Y42031D02*
G01X36829Y42031D01*
G01X36829Y41168D01*
G01X37362Y41168D01*
G01X37464Y41168D01*
G01X37845Y41168D02*
G01X38455Y41168D01*
G01X38455Y42031D01*
G01X37921Y42031D01*
G01X37845Y42031D01*
G01X44464Y42031D02*
G01X43829Y42031D01*
G01X43829Y41168D01*
G01X44362Y41168D01*
G01X44464Y41168D01*
G01X44845Y41168D02*
G01X45455Y41168D01*
G01X45455Y42031D01*
G01X44921Y42031D01*
G01X44845Y42031D01*
G01X51464Y42031D02*
G01X50829Y42031D01*
G01X50829Y41168D01*
G01X51362Y41168D01*
G01X51464Y41168D01*
G01X51845Y41168D02*
G01X52455Y41168D01*
G01X52455Y42031D01*
G01X51921Y42031D01*
G01X51845Y42031D01*
G01X58464Y42031D02*
G01X57829Y42031D01*
G01X57829Y41168D01*
G01X58362Y41168D01*
G01X58464Y41168D01*
G01X58845Y41168D02*
G01X59455Y41168D01*
G01X59455Y42031D01*
G01X58921Y42031D01*
G01X58845Y42031D01*
G01X65364Y42031D02*
G01X64729Y42031D01*
G01X64729Y41168D01*
G01X65262Y41168D01*
G01X65364Y41168D01*
G01X65745Y41168D02*
G01X66355Y41168D01*
G01X66355Y42031D01*
G01X65821Y42031D01*
G01X65745Y42031D01*
G01X72264Y42031D02*
G01X71629Y42031D01*
G01X71629Y41168D01*
G01X72162Y41168D01*
G01X72264Y41168D01*
G01X72645Y41168D02*
G01X73255Y41168D01*
G01X73255Y42031D01*
G01X72721Y42031D01*
G01X72645Y42031D01*
G01X79264Y42031D02*
G01X78629Y42031D01*
G01X78629Y41168D01*
G01X79162Y41168D01*
G01X79264Y41168D01*
G01X79645Y41168D02*
G01X80255Y41168D01*
G01X80255Y42031D01*
G01X79721Y42031D01*
G01X79645Y42031D01*
G01X86264Y42031D02*
G01X85629Y42031D01*
G01X85629Y41168D01*
G01X86162Y41168D01*
G01X86264Y41168D01*
G01X86645Y41168D02*
G01X87255Y41168D01*
G01X87255Y42031D01*
G01X86721Y42031D01*
G01X86645Y42031D01*
G01X93164Y42031D02*
G01X92529Y42031D01*
G01X92529Y41168D01*
G01X93062Y41168D01*
G01X93164Y41168D01*
G01X93545Y41168D02*
G01X94155Y41168D01*
G01X94155Y42031D01*
G01X93621Y42031D01*
G01X93545Y42031D01*
G01X2664Y32531D02*
G01X2029Y32531D01*
G01X2029Y31668D01*
G01X2562Y31668D01*
G01X2664Y31668D01*
G01X3045Y31668D02*
G01X3655Y31668D01*
G01X3655Y32531D01*
G01X3121Y32531D01*
G01X3045Y32531D01*
G01X5664Y51531D02*
G01X5029Y51531D01*
G01X5029Y50668D01*
G01X5562Y50668D01*
G01X5664Y50668D01*
G01X6045Y50668D02*
G01X6655Y50668D01*
G01X6655Y51531D01*
G01X6121Y51531D01*
G01X6045Y51531D01*
G01X12664Y51531D02*
G01X12029Y51531D01*
G01X12029Y50668D01*
G01X12562Y50668D01*
G01X12664Y50668D01*
G01X13045Y50668D02*
G01X13655Y50668D01*
G01X13655Y51531D01*
G01X13121Y51531D01*
G01X13045Y51531D01*
G01X19564Y51531D02*
G01X18929Y51531D01*
G01X18929Y50668D01*
G01X19462Y50668D01*
G01X19564Y50668D01*
G01X19945Y50668D02*
G01X20555Y50668D01*
G01X20555Y51531D01*
G01X20021Y51531D01*
G01X19945Y51531D01*
G01X26564Y51531D02*
G01X25929Y51531D01*
G01X25929Y50668D01*
G01X26462Y50668D01*
G01X26564Y50668D01*
G01X26945Y50668D02*
G01X27555Y50668D01*
G01X27555Y51531D01*
G01X27021Y51531D01*
G01X26945Y51531D01*
G01X33564Y51531D02*
G01X32929Y51531D01*
G01X32929Y50668D01*
G01X33462Y50668D01*
G01X33564Y50668D01*
G01X33945Y50668D02*
G01X34555Y50668D01*
G01X34555Y51531D01*
G01X34021Y51531D01*
G01X33945Y51531D01*
G01X40464Y51531D02*
G01X39829Y51531D01*
G01X39829Y50668D01*
G01X40362Y50668D01*
G01X40464Y50668D01*
G01X40845Y50668D02*
G01X41455Y50668D01*
G01X41455Y51531D01*
G01X40921Y51531D01*
G01X40845Y51531D01*
G01X47364Y51531D02*
G01X46729Y51531D01*
G01X46729Y50668D01*
G01X47262Y50668D01*
G01X47364Y50668D01*
G01X47745Y50668D02*
G01X48355Y50668D01*
G01X48355Y51531D01*
G01X47821Y51531D01*
G01X47745Y51531D01*
G01X54264Y51531D02*
G01X53629Y51531D01*
G01X53629Y50668D01*
G01X54162Y50668D01*
G01X54264Y50668D01*
G01X54645Y50668D02*
G01X55255Y50668D01*
G01X55255Y51531D01*
G01X54721Y51531D01*
G01X54645Y51531D01*
G01X61264Y51531D02*
G01X60629Y51531D01*
G01X60629Y50668D01*
G01X61162Y50668D01*
G01X61264Y50668D01*
G01X61645Y50668D02*
G01X62255Y50668D01*
G01X62255Y51531D01*
G01X61721Y51531D01*
G01X61645Y51531D01*
G01X68364Y51531D02*
G01X67729Y51531D01*
G01X67729Y50668D01*
G01X68262Y50668D01*
G01X68364Y50668D01*
G01X68745Y50668D02*
G01X69355Y50668D01*
G01X69355Y51531D01*
G01X68821Y51531D01*
G01X68745Y51531D01*
G01X75364Y51531D02*
G01X74729Y51531D01*
G01X74729Y50668D01*
G01X75262Y50668D01*
G01X75364Y50668D01*
G01X75745Y50668D02*
G01X76355Y50668D01*
G01X76355Y51531D01*
G01X75821Y51531D01*
G01X75745Y51531D01*
G01X82164Y51531D02*
G01X81529Y51531D01*
G01X81529Y50668D01*
G01X82062Y50668D01*
G01X82164Y50668D01*
G01X82545Y50668D02*
G01X83155Y50668D01*
G01X83155Y51531D01*
G01X82621Y51531D01*
G01X82545Y51531D01*
G01X89164Y51531D02*
G01X88529Y51531D01*
G01X88529Y50668D01*
G01X89062Y50668D01*
G01X89164Y50668D01*
G01X89545Y50668D02*
G01X90155Y50668D01*
G01X90155Y51531D01*
G01X89621Y51531D01*
G01X89545Y51531D01*
G01X96164Y51531D02*
G01X95529Y51531D01*
G01X95529Y50668D01*
G01X96062Y50668D01*
G01X96164Y50668D01*
G01X96545Y50668D02*
G01X97155Y50668D01*
G01X97155Y51531D01*
G01X96621Y51531D01*
G01X96545Y51531D01*
G01X5664Y42031D02*
G01X5029Y42031D01*
G01X5029Y41168D01*
G01X5562Y41168D01*
G01X5664Y41168D01*
G01X6045Y41168D02*
G01X6655Y41168D01*
G01X6655Y42031D01*
G01X6121Y42031D01*
G01X6045Y42031D01*
G01X12664Y42031D02*
G01X12029Y42031D01*
G01X12029Y41168D01*
G01X12562Y41168D01*
G01X12664Y41168D01*
G01X13045Y41168D02*
G01X13655Y41168D01*
G01X13655Y42031D01*
G01X13121Y42031D01*
G01X13045Y42031D01*
G01X19564Y42031D02*
G01X18929Y42031D01*
G01X18929Y41168D01*
G01X19462Y41168D01*
G01X19564Y41168D01*
G01X19945Y41168D02*
G01X20555Y41168D01*
G01X20555Y42031D01*
G01X20021Y42031D01*
G01X19945Y42031D01*
G01X26564Y42031D02*
G01X25929Y42031D01*
G01X25929Y41168D01*
G01X26462Y41168D01*
G01X26564Y41168D01*
G01X26945Y41168D02*
G01X27555Y41168D01*
G01X27555Y42031D01*
G01X27021Y42031D01*
G01X26945Y42031D01*
G01X33564Y42031D02*
G01X32929Y42031D01*
G01X32929Y41168D01*
G01X33462Y41168D01*
G01X33564Y41168D01*
G01X33945Y41168D02*
G01X34555Y41168D01*
G01X34555Y42031D01*
G01X34021Y42031D01*
G01X33945Y42031D01*
G01X40464Y42031D02*
G01X39829Y42031D01*
G01X39829Y41168D01*
G01X40362Y41168D01*
G01X40464Y41168D01*
G01X40845Y41168D02*
G01X41455Y41168D01*
G01X41455Y42031D01*
G01X40921Y42031D01*
G01X40845Y42031D01*
G01X47364Y42031D02*
G01X46729Y42031D01*
G01X46729Y41168D01*
G01X47262Y41168D01*
G01X47364Y41168D01*
G01X47745Y41168D02*
G01X48355Y41168D01*
G01X48355Y42031D01*
G01X47821Y42031D01*
G01X47745Y42031D01*
G01X54264Y42031D02*
G01X53629Y42031D01*
G01X53629Y41168D01*
G01X54162Y41168D01*
G01X54264Y41168D01*
G01X54645Y41168D02*
G01X55255Y41168D01*
G01X55255Y42031D01*
G01X54721Y42031D01*
G01X54645Y42031D01*
G01X61264Y42031D02*
G01X60629Y42031D01*
G01X60629Y41168D01*
G01X61162Y41168D01*
G01X61264Y41168D01*
G01X61645Y41168D02*
G01X62255Y41168D01*
G01X62255Y42031D01*
G01X61721Y42031D01*
G01X61645Y42031D01*
G01X68364Y42031D02*
G01X67729Y42031D01*
G01X67729Y41168D01*
G01X68262Y41168D01*
G01X68364Y41168D01*
G01X68745Y41168D02*
G01X69355Y41168D01*
G01X69355Y42031D01*
G01X68821Y42031D01*
G01X68745Y42031D01*
G01X75364Y42031D02*
G01X74729Y42031D01*
G01X74729Y41168D01*
G01X75262Y41168D01*
G01X75364Y41168D01*
G01X75745Y41168D02*
G01X76355Y41168D01*
G01X76355Y42031D01*
G01X75821Y42031D01*
G01X75745Y42031D01*
G01X82164Y42031D02*
G01X81529Y42031D01*
G01X81529Y41168D01*
G01X82062Y41168D01*
G01X82164Y41168D01*
G01X82545Y41168D02*
G01X83155Y41168D01*
G01X83155Y42031D01*
G01X82621Y42031D01*
G01X82545Y42031D01*
G01X89164Y42031D02*
G01X88529Y42031D01*
G01X88529Y41168D01*
G01X89062Y41168D01*
G01X89164Y41168D01*
G01X89545Y41168D02*
G01X90155Y41168D01*
G01X90155Y42031D01*
G01X89621Y42031D01*
G01X89545Y42031D01*
G01X96164Y42031D02*
G01X95529Y42031D01*
G01X95529Y41168D01*
G01X96062Y41168D01*
G01X96164Y41168D01*
G01X96545Y41168D02*
G01X97155Y41168D01*
G01X97155Y42031D01*
G01X96621Y42031D01*
G01X96545Y42031D01*
G01X5664Y32531D02*
G01X5029Y32531D01*
G01X5029Y31668D01*
G01X5562Y31668D01*
G01X5664Y31668D01*
G01X6045Y31668D02*
G01X6655Y31668D01*
G01X6655Y32531D01*
G01X6121Y32531D01*
G01X6045Y32531D01*
G54D10*
G01X29698Y15272D02*
G01X29698Y20271D01*
G01X34698Y20271D01*
G01X34698Y15272D01*
G01X29698Y15272D01*
G01X33447Y18021D02*
G01X30948Y18021D01*
G01X31447Y17521D01*
G01X32948Y17521D01*
G01X33447Y18021D01*
G01X29698Y15771D02*
G01X30198Y15272D01*
G01X85394Y5800D02*
G01X85394Y10800D01*
G01X90394Y10800D01*
G01X90394Y5800D01*
G01X85394Y5800D01*
G01X89143Y8549D02*
G01X86644Y8549D01*
G01X87143Y8049D01*
G01X88644Y8049D01*
G01X89143Y8549D01*
G01X85394Y6299D02*
G01X85894Y5800D01*
G01X78432Y5800D02*
G01X78432Y10800D01*
G01X83432Y10800D01*
G01X83432Y5800D01*
G01X78432Y5800D01*
G01X82182Y8549D02*
G01X79682Y8549D01*
G01X80182Y8049D01*
G01X81682Y8049D01*
G01X82182Y8549D01*
G01X78432Y6299D02*
G01X78932Y5800D01*
G01X71470Y5800D02*
G01X71470Y10800D01*
G01X76470Y10800D01*
G01X76470Y5800D01*
G01X71470Y5800D01*
G01X75220Y8549D02*
G01X72720Y8549D01*
G01X73220Y8049D01*
G01X74720Y8049D01*
G01X75220Y8549D01*
G01X71470Y6299D02*
G01X71970Y5800D01*
G01X64508Y5800D02*
G01X64508Y10800D01*
G01X69508Y10800D01*
G01X69508Y5800D01*
G01X64508Y5800D01*
G01X68258Y8549D02*
G01X65758Y8549D01*
G01X66258Y8049D01*
G01X67758Y8049D01*
G01X68258Y8549D01*
G01X64508Y6299D02*
G01X65008Y5800D01*
G01X57546Y5800D02*
G01X57546Y10800D01*
G01X62546Y10800D01*
G01X62546Y5800D01*
G01X57546Y5800D01*
G01X61295Y8549D02*
G01X58796Y8549D01*
G01X59295Y8049D01*
G01X60796Y8049D01*
G01X61295Y8549D01*
G01X57546Y6299D02*
G01X58046Y5800D01*
G01X50584Y5800D02*
G01X50584Y10800D01*
G01X55584Y10800D01*
G01X55584Y5800D01*
G01X50584Y5800D01*
G01X54334Y8549D02*
G01X51834Y8549D01*
G01X52334Y8049D01*
G01X53834Y8049D01*
G01X54334Y8549D01*
G01X50584Y6299D02*
G01X51084Y5800D01*
G01X43622Y5800D02*
G01X43622Y10800D01*
G01X48622Y10800D01*
G01X48622Y5800D01*
G01X43622Y5800D01*
G01X47371Y8549D02*
G01X44872Y8549D01*
G01X45371Y8049D01*
G01X46872Y8049D01*
G01X47371Y8549D01*
G01X43622Y6299D02*
G01X44122Y5800D01*
G01X36660Y5800D02*
G01X36660Y10800D01*
G01X41660Y10800D01*
G01X41660Y5800D01*
G01X36660Y5800D01*
G01X40410Y8549D02*
G01X37910Y8549D01*
G01X38410Y8049D01*
G01X39910Y8049D01*
G01X40410Y8549D01*
G01X36660Y6299D02*
G01X37160Y5800D01*
G01X29698Y5800D02*
G01X29698Y10800D01*
G01X34698Y10800D01*
G01X34698Y5800D01*
G01X29698Y5800D01*
G01X33447Y8549D02*
G01X30948Y8549D01*
G01X31447Y8049D01*
G01X32948Y8049D01*
G01X33447Y8549D01*
G01X29698Y6299D02*
G01X30198Y5800D01*
G01X22736Y5800D02*
G01X22736Y10800D01*
G01X27736Y10800D01*
G01X27736Y5800D01*
G01X22736Y5800D01*
G01X26486Y8549D02*
G01X23986Y8549D01*
G01X24486Y8049D01*
G01X25986Y8049D01*
G01X26486Y8549D01*
G01X22736Y6299D02*
G01X23236Y5800D01*
G01X15774Y5800D02*
G01X15774Y10800D01*
G01X20774Y10800D01*
G01X20774Y5800D01*
G01X15774Y5800D01*
G01X19523Y8549D02*
G01X17024Y8549D01*
G01X17523Y8049D01*
G01X19024Y8049D01*
G01X19523Y8549D01*
G01X15774Y6299D02*
G01X16274Y5800D01*
G01X8812Y5800D02*
G01X8812Y10800D01*
G01X13812Y10800D01*
G01X13812Y5800D01*
G01X8812Y5800D01*
G01X12562Y8549D02*
G01X10062Y8549D01*
G01X10562Y8049D01*
G01X12062Y8049D01*
G01X12562Y8549D01*
G01X8812Y6299D02*
G01X9312Y5800D01*
G01X1850Y5800D02*
G01X1850Y10800D01*
G01X6850Y10800D01*
G01X6850Y5800D01*
G01X1850Y5800D01*
G01X5600Y8549D02*
G01X3100Y8549D01*
G01X3600Y8049D01*
G01X5100Y8049D01*
G01X5600Y8549D01*
G01X1850Y6299D02*
G01X2350Y5800D01*
G01X92356Y15272D02*
G01X92356Y20271D01*
G01X97356Y20271D01*
G01X97356Y15272D01*
G01X92356Y15272D01*
G01X96106Y18021D02*
G01X93606Y18021D01*
G01X94106Y17521D01*
G01X95606Y17521D01*
G01X96106Y18021D01*
G01X92356Y15771D02*
G01X92856Y15272D01*
G01X85394Y15272D02*
G01X85394Y20271D01*
G01X90394Y20271D01*
G01X90394Y15272D01*
G01X85394Y15272D01*
G01X89143Y18021D02*
G01X86644Y18021D01*
G01X87143Y17521D01*
G01X88644Y17521D01*
G01X89143Y18021D01*
G01X85394Y15771D02*
G01X85894Y15272D01*
G01X78432Y15272D02*
G01X78432Y20271D01*
G01X83432Y20271D01*
G01X83432Y15272D01*
G01X78432Y15272D01*
G01X82182Y18021D02*
G01X79682Y18021D01*
G01X80182Y17521D01*
G01X81682Y17521D01*
G01X82182Y18021D01*
G01X78432Y15771D02*
G01X78932Y15272D01*
G01X71470Y15272D02*
G01X71470Y20271D01*
G01X76470Y20271D01*
G01X76470Y15272D01*
G01X71470Y15272D01*
G01X75220Y18021D02*
G01X72720Y18021D01*
G01X73220Y17521D01*
G01X74720Y17521D01*
G01X75220Y18021D01*
G01X71470Y15771D02*
G01X71970Y15272D01*
G01X64508Y15272D02*
G01X64508Y20271D01*
G01X69508Y20271D01*
G01X69508Y15272D01*
G01X64508Y15272D01*
G01X68258Y18021D02*
G01X65758Y18021D01*
G01X66258Y17521D01*
G01X67758Y17521D01*
G01X68258Y18021D01*
G01X64508Y15771D02*
G01X65008Y15272D01*
G01X57546Y15272D02*
G01X57546Y20271D01*
G01X62546Y20271D01*
G01X62546Y15272D01*
G01X57546Y15272D01*
G01X61295Y18021D02*
G01X58796Y18021D01*
G01X59295Y17521D01*
G01X60796Y17521D01*
G01X61295Y18021D01*
G01X57546Y15771D02*
G01X58046Y15272D01*
G01X50584Y15272D02*
G01X50584Y20271D01*
G01X55584Y20271D01*
G01X55584Y15272D01*
G01X50584Y15272D01*
G01X54334Y18021D02*
G01X51834Y18021D01*
G01X52334Y17521D01*
G01X53834Y17521D01*
G01X54334Y18021D01*
G01X50584Y15771D02*
G01X51084Y15272D01*
G01X43622Y15272D02*
G01X43622Y20271D01*
G01X48622Y20271D01*
G01X48622Y15272D01*
G01X43622Y15272D01*
G01X47371Y18021D02*
G01X44872Y18021D01*
G01X45371Y17521D01*
G01X46872Y17521D01*
G01X47371Y18021D01*
G01X43622Y15771D02*
G01X44122Y15272D01*
G01X36660Y15272D02*
G01X36660Y20271D01*
G01X41660Y20271D01*
G01X41660Y15272D01*
G01X36660Y15272D01*
G01X40410Y18021D02*
G01X37910Y18021D01*
G01X38410Y17521D01*
G01X39910Y17521D01*
G01X40410Y18021D01*
G01X36660Y15771D02*
G01X37160Y15272D01*
G01X92356Y5800D02*
G01X92356Y10800D01*
G01X97356Y10800D01*
G01X97356Y5800D01*
G01X92356Y5800D01*
G01X96106Y8549D02*
G01X93606Y8549D01*
G01X94106Y8049D01*
G01X95606Y8049D01*
G01X96106Y8549D01*
G01X92356Y6299D02*
G01X92856Y5800D01*
G01X22736Y15272D02*
G01X22736Y20271D01*
G01X27736Y20271D01*
G01X27736Y15272D01*
G01X22736Y15272D01*
G01X26486Y18021D02*
G01X23986Y18021D01*
G01X24486Y17521D01*
G01X25986Y17521D01*
G01X26486Y18021D01*
G01X22736Y15771D02*
G01X23236Y15272D01*
G01X15774Y15272D02*
G01X15774Y20271D01*
G01X20774Y20271D01*
G01X20774Y15272D01*
G01X15774Y15272D01*
G01X19523Y18021D02*
G01X17024Y18021D01*
G01X17523Y17521D01*
G01X19024Y17521D01*
G01X19523Y18021D01*
G01X15774Y15771D02*
G01X16274Y15272D01*
G01X8812Y15272D02*
G01X8812Y20271D01*
G01X13812Y20271D01*
G01X13812Y15272D01*
G01X8812Y15272D01*
G01X12562Y18021D02*
G01X10062Y18021D01*
G01X10562Y17521D01*
G01X12062Y17521D01*
G01X12562Y18021D01*
G01X8812Y15771D02*
G01X9312Y15272D01*
G01X1850Y15272D02*
G01X1850Y20271D01*
G01X6850Y20271D01*
G01X6850Y15272D01*
G01X1850Y15272D01*
G01X5600Y18021D02*
G01X3100Y18021D01*
G01X3600Y17521D01*
G01X5100Y17521D01*
G01X5600Y18021D01*
G01X1850Y15771D02*
G01X2350Y15272D01*
G01X92356Y24743D02*
G01X92356Y29743D01*
G01X97356Y29743D01*
G01X97356Y24743D01*
G01X92356Y24743D01*
G01X96106Y27493D02*
G01X93606Y27493D01*
G01X94106Y26993D01*
G01X95606Y26993D01*
G01X96106Y27493D01*
G01X92356Y25243D02*
G01X92856Y24743D01*
G01X85394Y24743D02*
G01X85394Y29743D01*
G01X90394Y29743D01*
G01X90394Y24743D01*
G01X85394Y24743D01*
G01X89143Y27493D02*
G01X86644Y27493D01*
G01X87143Y26993D01*
G01X88644Y26993D01*
G01X89143Y27493D01*
G01X85394Y25243D02*
G01X85894Y24743D01*
G01X78432Y24743D02*
G01X78432Y29743D01*
G01X83432Y29743D01*
G01X83432Y24743D01*
G01X78432Y24743D01*
G01X82182Y27493D02*
G01X79682Y27493D01*
G01X80182Y26993D01*
G01X81682Y26993D01*
G01X82182Y27493D01*
G01X78432Y25243D02*
G01X78932Y24743D01*
G01X71470Y24743D02*
G01X71470Y29743D01*
G01X76470Y29743D01*
G01X76470Y24743D01*
G01X71470Y24743D01*
G01X75219Y27493D02*
G01X72720Y27493D01*
G01X73219Y26993D01*
G01X74720Y26993D01*
G01X75219Y27493D01*
G01X71470Y25243D02*
G01X71970Y24743D01*
G01X64508Y24743D02*
G01X64508Y29743D01*
G01X69508Y29743D01*
G01X69508Y24743D01*
G01X64508Y24743D01*
G01X68258Y27493D02*
G01X65758Y27493D01*
G01X66258Y26993D01*
G01X67758Y26993D01*
G01X68258Y27493D01*
G01X64508Y25243D02*
G01X65008Y24743D01*
G01X57546Y24743D02*
G01X57546Y29743D01*
G01X62546Y29743D01*
G01X62546Y24743D01*
G01X57546Y24743D01*
G01X61295Y27493D02*
G01X58796Y27493D01*
G01X59295Y26993D01*
G01X60796Y26993D01*
G01X61295Y27493D01*
G01X57546Y25243D02*
G01X58046Y24743D01*
G01X50584Y24743D02*
G01X50584Y29743D01*
G01X55584Y29743D01*
G01X55584Y24743D01*
G01X50584Y24743D01*
G01X54334Y27493D02*
G01X51834Y27493D01*
G01X52334Y26993D01*
G01X53834Y26993D01*
G01X54334Y27493D01*
G01X50584Y25243D02*
G01X51084Y24743D01*
G01X43622Y24743D02*
G01X43622Y29743D01*
G01X48622Y29743D01*
G01X48622Y24743D01*
G01X43622Y24743D01*
G01X47371Y27493D02*
G01X44872Y27493D01*
G01X45371Y26993D01*
G01X46872Y26993D01*
G01X47371Y27493D01*
G01X43622Y25243D02*
G01X44122Y24743D01*
G01X36660Y24743D02*
G01X36660Y29743D01*
G01X41660Y29743D01*
G01X41660Y24743D01*
G01X36660Y24743D01*
G01X40409Y27493D02*
G01X37910Y27493D01*
G01X38409Y26993D01*
G01X39910Y26993D01*
G01X40409Y27493D01*
G01X36660Y25243D02*
G01X37159Y24743D01*
G01X29698Y24743D02*
G01X29698Y29743D01*
G01X34698Y29743D01*
G01X34698Y24743D01*
G01X29698Y24743D01*
G01X33447Y27493D02*
G01X30948Y27493D01*
G01X31447Y26993D01*
G01X32948Y26993D01*
G01X33447Y27493D01*
G01X29698Y25243D02*
G01X30198Y24743D01*
G01X22736Y24743D02*
G01X22736Y29743D01*
G01X27736Y29743D01*
G01X27736Y24743D01*
G01X22736Y24743D01*
G01X26486Y27493D02*
G01X23986Y27493D01*
G01X24486Y26993D01*
G01X25986Y26993D01*
G01X26486Y27493D01*
G01X22736Y25243D02*
G01X23236Y24743D01*
G01X15774Y24743D02*
G01X15774Y29743D01*
G01X20774Y29743D01*
G01X20774Y24743D01*
G01X15774Y24743D01*
G01X19523Y27493D02*
G01X17024Y27493D01*
G01X17523Y26993D01*
G01X19024Y26993D01*
G01X19523Y27493D01*
G01X15774Y25243D02*
G01X16274Y24743D01*
G01X8812Y24743D02*
G01X8812Y29743D01*
G01X13812Y29743D01*
G01X13812Y24743D01*
G01X8812Y24743D01*
G01X12562Y27493D02*
G01X10062Y27493D01*
G01X10562Y26993D01*
G01X12062Y26993D01*
G01X12562Y27493D01*
G01X8812Y25243D02*
G01X9312Y24743D01*
G01X1850Y24743D02*
G01X1850Y29743D01*
G01X6850Y29743D01*
G01X6850Y24743D01*
G01X1850Y24743D01*
G01X5600Y27493D02*
G01X3100Y27493D01*
G01X3600Y26993D01*
G01X5100Y26993D01*
G01X5600Y27493D01*
G01X1850Y25243D02*
G01X2350Y24743D01*
G01X92356Y34217D02*
G01X92356Y39217D01*
G01X97356Y39217D01*
G01X97356Y34217D01*
G01X92356Y34217D01*
G01X96106Y36966D02*
G01X93606Y36966D01*
G01X94106Y36466D01*
G01X95606Y36466D01*
G01X96106Y36966D01*
G01X92356Y34716D02*
G01X92856Y34217D01*
G01X8812Y34217D02*
G01X8812Y39217D01*
G01X13812Y39217D01*
G01X13812Y34217D01*
G01X8812Y34217D01*
G01X12562Y36966D02*
G01X10062Y36966D01*
G01X10562Y36466D01*
G01X12062Y36466D01*
G01X12562Y36966D01*
G01X8812Y34716D02*
G01X9312Y34217D01*
G01X15774Y34217D02*
G01X15774Y39217D01*
G01X20774Y39217D01*
G01X20774Y34217D01*
G01X15774Y34217D01*
G01X19523Y36966D02*
G01X17024Y36966D01*
G01X17523Y36466D01*
G01X19024Y36466D01*
G01X19523Y36966D01*
G01X15774Y34716D02*
G01X16274Y34217D01*
G01X85394Y34217D02*
G01X85394Y39217D01*
G01X90394Y39217D01*
G01X90394Y34217D01*
G01X85394Y34217D01*
G01X89143Y36966D02*
G01X86644Y36966D01*
G01X87143Y36466D01*
G01X88644Y36466D01*
G01X89143Y36966D01*
G01X85394Y34716D02*
G01X85894Y34217D01*
G01X22736Y34217D02*
G01X22736Y39217D01*
G01X27736Y39217D01*
G01X27736Y34217D01*
G01X22736Y34217D01*
G01X26486Y36966D02*
G01X23986Y36966D01*
G01X24486Y36466D01*
G01X25986Y36466D01*
G01X26486Y36966D01*
G01X22736Y34716D02*
G01X23236Y34217D01*
G01X29698Y34217D02*
G01X29698Y39217D01*
G01X34698Y39217D01*
G01X34698Y34217D01*
G01X29698Y34217D01*
G01X33447Y36966D02*
G01X30948Y36966D01*
G01X31447Y36466D01*
G01X32948Y36466D01*
G01X33447Y36966D01*
G01X29698Y34716D02*
G01X30198Y34217D01*
G01X78432Y34217D02*
G01X78432Y39217D01*
G01X83432Y39217D01*
G01X83432Y34217D01*
G01X78432Y34217D01*
G01X82182Y36966D02*
G01X79682Y36966D01*
G01X80182Y36466D01*
G01X81682Y36466D01*
G01X82182Y36966D01*
G01X78432Y34716D02*
G01X78932Y34217D01*
G01X36660Y34217D02*
G01X36660Y39217D01*
G01X41660Y39217D01*
G01X41660Y34217D01*
G01X36660Y34217D01*
G01X40410Y36966D02*
G01X37910Y36966D01*
G01X38410Y36466D01*
G01X39910Y36466D01*
G01X40410Y36966D01*
G01X36660Y34716D02*
G01X37160Y34217D01*
G01X43622Y34217D02*
G01X43622Y39217D01*
G01X48622Y39217D01*
G01X48622Y34217D01*
G01X43622Y34217D01*
G01X47371Y36966D02*
G01X44872Y36966D01*
G01X45371Y36466D01*
G01X46872Y36466D01*
G01X47371Y36966D01*
G01X43622Y34716D02*
G01X44122Y34217D01*
G01X71470Y34217D02*
G01X71470Y39217D01*
G01X76470Y39217D01*
G01X76470Y34217D01*
G01X71470Y34217D01*
G01X75219Y36966D02*
G01X72720Y36966D01*
G01X73219Y36466D01*
G01X74720Y36466D01*
G01X75219Y36966D01*
G01X71470Y34716D02*
G01X71970Y34217D01*
G01X50584Y34217D02*
G01X50584Y39217D01*
G01X55584Y39217D01*
G01X55584Y34217D01*
G01X50584Y34217D01*
G01X54334Y36966D02*
G01X51834Y36966D01*
G01X52334Y36466D01*
G01X53834Y36466D01*
G01X54334Y36966D01*
G01X50584Y34716D02*
G01X51084Y34217D01*
G01X57546Y34217D02*
G01X57546Y39217D01*
G01X62546Y39217D01*
G01X62546Y34217D01*
G01X57546Y34217D01*
G01X61295Y36966D02*
G01X58796Y36966D01*
G01X59295Y36466D01*
G01X60796Y36466D01*
G01X61295Y36966D01*
G01X57546Y34716D02*
G01X58046Y34217D01*
G01X64508Y34217D02*
G01X64508Y39217D01*
G01X69508Y39217D01*
G01X69508Y34217D01*
G01X64508Y34217D01*
G01X68258Y36966D02*
G01X65758Y36966D01*
G01X66258Y36466D01*
G01X67758Y36466D01*
G01X68258Y36966D01*
G01X64508Y34716D02*
G01X65008Y34217D01*
G54D20*
G01X86264Y4131D02*
G01X85629Y4131D01*
G01X85629Y3268D01*
G01X86162Y3268D01*
G01X86264Y3268D01*
G01X86645Y3268D02*
G01X87255Y3268D01*
G01X87255Y4131D01*
G01X86721Y4131D01*
G01X86645Y4131D01*
G01X23564Y13631D02*
G01X22929Y13631D01*
G01X22929Y12768D01*
G01X23462Y12768D01*
G01X23564Y12768D01*
G01X23945Y12768D02*
G01X24555Y12768D01*
G01X24555Y13631D01*
G01X24021Y13631D01*
G01X23945Y13631D01*
G01X9664Y4131D02*
G01X9029Y4131D01*
G01X9029Y3268D01*
G01X9562Y3268D01*
G01X9664Y3268D01*
G01X10045Y3268D02*
G01X10655Y3268D01*
G01X10655Y4131D01*
G01X10121Y4131D01*
G01X10045Y4131D01*
G01X16564Y13631D02*
G01X15929Y13631D01*
G01X15929Y12768D01*
G01X16462Y12768D01*
G01X16564Y12768D01*
G01X16945Y12768D02*
G01X17555Y12768D01*
G01X17555Y13631D01*
G01X17021Y13631D01*
G01X16945Y13631D01*
G01X51464Y4131D02*
G01X50829Y4131D01*
G01X50829Y3268D01*
G01X51362Y3268D01*
G01X51464Y3268D01*
G01X51845Y3268D02*
G01X52455Y3268D01*
G01X52455Y4131D01*
G01X51921Y4131D01*
G01X51845Y4131D01*
G01X9664Y13631D02*
G01X9029Y13631D01*
G01X9029Y12768D01*
G01X9562Y12768D01*
G01X9664Y12768D01*
G01X10045Y12768D02*
G01X10655Y12768D01*
G01X10655Y13631D01*
G01X10121Y13631D01*
G01X10045Y13631D01*
G01X2664Y4131D02*
G01X2029Y4131D01*
G01X2029Y3268D01*
G01X2562Y3268D01*
G01X2664Y3268D01*
G01X3045Y3268D02*
G01X3655Y3268D01*
G01X3655Y4131D01*
G01X3121Y4131D01*
G01X3045Y4131D01*
G01X2664Y13631D02*
G01X2029Y13631D01*
G01X2029Y12768D01*
G01X2562Y12768D01*
G01X2664Y12768D01*
G01X3045Y12768D02*
G01X3655Y12768D01*
G01X3655Y13631D01*
G01X3121Y13631D01*
G01X3045Y13631D01*
G01X72264Y4131D02*
G01X71629Y4131D01*
G01X71629Y3268D01*
G01X72162Y3268D01*
G01X72264Y3268D01*
G01X72645Y3268D02*
G01X73255Y3268D01*
G01X73255Y4131D01*
G01X72721Y4131D01*
G01X72645Y4131D01*
G01X93164Y23031D02*
G01X92529Y23031D01*
G01X92529Y22168D01*
G01X93062Y22168D01*
G01X93164Y22168D01*
G01X93545Y22168D02*
G01X94155Y22168D01*
G01X94155Y23031D01*
G01X93621Y23031D01*
G01X93545Y23031D01*
G01X93164Y13631D02*
G01X92529Y13631D01*
G01X92529Y12768D01*
G01X93062Y12768D01*
G01X93164Y12768D01*
G01X93545Y12768D02*
G01X94155Y12768D01*
G01X94155Y13631D01*
G01X93621Y13631D01*
G01X93545Y13631D01*
G01X86264Y23031D02*
G01X85629Y23031D01*
G01X85629Y22168D01*
G01X86162Y22168D01*
G01X86264Y22168D01*
G01X86645Y22168D02*
G01X87255Y22168D01*
G01X87255Y23031D01*
G01X86721Y23031D01*
G01X86645Y23031D01*
G01X79264Y23031D02*
G01X78629Y23031D01*
G01X78629Y22168D01*
G01X79162Y22168D01*
G01X79264Y22168D01*
G01X79645Y22168D02*
G01X80255Y22168D01*
G01X80255Y23031D01*
G01X79721Y23031D01*
G01X79645Y23031D01*
G01X44464Y4131D02*
G01X43829Y4131D01*
G01X43829Y3268D01*
G01X44362Y3268D01*
G01X44464Y3268D01*
G01X44845Y3268D02*
G01X45455Y3268D01*
G01X45455Y4131D01*
G01X44921Y4131D01*
G01X44845Y4131D01*
G01X86264Y13631D02*
G01X85629Y13631D01*
G01X85629Y12768D01*
G01X86162Y12768D01*
G01X86264Y12768D01*
G01X86645Y12768D02*
G01X87255Y12768D01*
G01X87255Y13631D01*
G01X86721Y13631D01*
G01X86645Y13631D01*
G01X72264Y23031D02*
G01X71629Y23031D01*
G01X71629Y22168D01*
G01X72162Y22168D01*
G01X72264Y22168D01*
G01X72645Y22168D02*
G01X73255Y22168D01*
G01X73255Y23031D01*
G01X72721Y23031D01*
G01X72645Y23031D01*
G01X65364Y23031D02*
G01X64729Y23031D01*
G01X64729Y22168D01*
G01X65262Y22168D01*
G01X65364Y22168D01*
G01X65745Y22168D02*
G01X66355Y22168D01*
G01X66355Y23031D01*
G01X65821Y23031D01*
G01X65745Y23031D01*
G01X79264Y13631D02*
G01X78629Y13631D01*
G01X78629Y12768D01*
G01X79162Y12768D01*
G01X79264Y12768D01*
G01X79645Y12768D02*
G01X80255Y12768D01*
G01X80255Y13631D01*
G01X79721Y13631D01*
G01X79645Y13631D01*
G01X58464Y23031D02*
G01X57829Y23031D01*
G01X57829Y22168D01*
G01X58362Y22168D01*
G01X58464Y22168D01*
G01X58845Y22168D02*
G01X59455Y22168D01*
G01X59455Y23031D01*
G01X58921Y23031D01*
G01X58845Y23031D01*
G01X51464Y23031D02*
G01X50829Y23031D01*
G01X50829Y22168D01*
G01X51362Y22168D01*
G01X51464Y22168D01*
G01X51845Y22168D02*
G01X52455Y22168D01*
G01X52455Y23031D01*
G01X51921Y23031D01*
G01X51845Y23031D01*
G01X37464Y4131D02*
G01X36829Y4131D01*
G01X36829Y3268D01*
G01X37362Y3268D01*
G01X37464Y3268D01*
G01X37845Y3268D02*
G01X38455Y3268D01*
G01X38455Y4131D01*
G01X37921Y4131D01*
G01X37845Y4131D01*
G01X72264Y13631D02*
G01X71629Y13631D01*
G01X71629Y12768D01*
G01X72162Y12768D01*
G01X72264Y12768D01*
G01X72645Y12768D02*
G01X73255Y12768D01*
G01X73255Y13631D01*
G01X72721Y13631D01*
G01X72645Y13631D01*
G01X65364Y4131D02*
G01X64729Y4131D01*
G01X64729Y3268D01*
G01X65262Y3268D01*
G01X65364Y3268D01*
G01X65745Y3268D02*
G01X66355Y3268D01*
G01X66355Y4131D01*
G01X65821Y4131D01*
G01X65745Y4131D01*
G01X44464Y23031D02*
G01X43829Y23031D01*
G01X43829Y22168D01*
G01X44362Y22168D01*
G01X44464Y22168D01*
G01X44845Y22168D02*
G01X45455Y22168D01*
G01X45455Y23031D01*
G01X44921Y23031D01*
G01X44845Y23031D01*
G01X37464Y23031D02*
G01X36829Y23031D01*
G01X36829Y22168D01*
G01X37362Y22168D01*
G01X37464Y22168D01*
G01X37845Y22168D02*
G01X38455Y22168D01*
G01X38455Y23031D01*
G01X37921Y23031D01*
G01X37845Y23031D01*
G01X65364Y13631D02*
G01X64729Y13631D01*
G01X64729Y12768D01*
G01X65262Y12768D01*
G01X65364Y12768D01*
G01X65745Y12768D02*
G01X66355Y12768D01*
G01X66355Y13631D01*
G01X65821Y13631D01*
G01X65745Y13631D01*
G01X93164Y4131D02*
G01X92529Y4131D01*
G01X92529Y3268D01*
G01X93062Y3268D01*
G01X93164Y3268D01*
G01X93545Y3268D02*
G01X94155Y3268D01*
G01X94155Y4131D01*
G01X93621Y4131D01*
G01X93545Y4131D01*
G01X30564Y23031D02*
G01X29929Y23031D01*
G01X29929Y22168D01*
G01X30462Y22168D01*
G01X30564Y22168D01*
G01X30945Y22168D02*
G01X31555Y22168D01*
G01X31555Y23031D01*
G01X31021Y23031D01*
G01X30945Y23031D01*
G01X30564Y4131D02*
G01X29929Y4131D01*
G01X29929Y3268D01*
G01X30462Y3268D01*
G01X30564Y3268D01*
G01X30945Y3268D02*
G01X31555Y3268D01*
G01X31555Y4131D01*
G01X31021Y4131D01*
G01X30945Y4131D01*
G01X23564Y23031D02*
G01X22929Y23031D01*
G01X22929Y22168D01*
G01X23462Y22168D01*
G01X23564Y22168D01*
G01X23945Y22168D02*
G01X24555Y22168D01*
G01X24555Y23031D01*
G01X24021Y23031D01*
G01X23945Y23031D01*
G01X58464Y13631D02*
G01X57829Y13631D01*
G01X57829Y12768D01*
G01X58362Y12768D01*
G01X58464Y12768D01*
G01X58845Y12768D02*
G01X59455Y12768D01*
G01X59455Y13631D01*
G01X58921Y13631D01*
G01X58845Y13631D01*
G01X79264Y4131D02*
G01X78629Y4131D01*
G01X78629Y3268D01*
G01X79162Y3268D01*
G01X79264Y3268D01*
G01X79645Y3268D02*
G01X80255Y3268D01*
G01X80255Y4131D01*
G01X79721Y4131D01*
G01X79645Y4131D01*
G01X16564Y23031D02*
G01X15929Y23031D01*
G01X15929Y22168D01*
G01X16462Y22168D01*
G01X16564Y22168D01*
G01X16945Y22168D02*
G01X17555Y22168D01*
G01X17555Y23031D01*
G01X17021Y23031D01*
G01X16945Y23031D01*
G01X9664Y23031D02*
G01X9029Y23031D01*
G01X9029Y22168D01*
G01X9562Y22168D01*
G01X9664Y22168D01*
G01X10045Y22168D02*
G01X10655Y22168D01*
G01X10655Y23031D01*
G01X10121Y23031D01*
G01X10045Y23031D01*
G01X51464Y13631D02*
G01X50829Y13631D01*
G01X50829Y12768D01*
G01X51362Y12768D01*
G01X51464Y12768D01*
G01X51845Y12768D02*
G01X52455Y12768D01*
G01X52455Y13631D01*
G01X51921Y13631D01*
G01X51845Y13631D01*
G01X2664Y23031D02*
G01X2029Y23031D01*
G01X2029Y22168D01*
G01X2562Y22168D01*
G01X2664Y22168D01*
G01X3045Y22168D02*
G01X3655Y22168D01*
G01X3655Y23031D01*
G01X3121Y23031D01*
G01X3045Y23031D01*
G01X23564Y4131D02*
G01X22929Y4131D01*
G01X22929Y3268D01*
G01X23462Y3268D01*
G01X23564Y3268D01*
G01X23945Y3268D02*
G01X24555Y3268D01*
G01X24555Y4131D01*
G01X24021Y4131D01*
G01X23945Y4131D01*
G01X93164Y32531D02*
G01X92529Y32531D01*
G01X92529Y31668D01*
G01X93062Y31668D01*
G01X93164Y31668D01*
G01X93545Y31668D02*
G01X94155Y31668D01*
G01X94155Y32531D01*
G01X93621Y32531D01*
G01X93545Y32531D01*
G01X44464Y13631D02*
G01X43829Y13631D01*
G01X43829Y12768D01*
G01X44362Y12768D01*
G01X44464Y12768D01*
G01X44845Y12768D02*
G01X45455Y12768D01*
G01X45455Y13631D01*
G01X44921Y13631D01*
G01X44845Y13631D01*
G01X58464Y4131D02*
G01X57829Y4131D01*
G01X57829Y3268D01*
G01X58362Y3268D01*
G01X58464Y3268D01*
G01X58845Y3268D02*
G01X59455Y3268D01*
G01X59455Y4131D01*
G01X58921Y4131D01*
G01X58845Y4131D01*
G01X9664Y32531D02*
G01X9029Y32531D01*
G01X9029Y31668D01*
G01X9562Y31668D01*
G01X9664Y31668D01*
G01X10045Y31668D02*
G01X10655Y31668D01*
G01X10655Y32531D01*
G01X10121Y32531D01*
G01X10045Y32531D01*
G01X86264Y32531D02*
G01X85629Y32531D01*
G01X85629Y31668D01*
G01X86162Y31668D01*
G01X86264Y31668D01*
G01X86645Y31668D02*
G01X87255Y31668D01*
G01X87255Y32531D01*
G01X86721Y32531D01*
G01X86645Y32531D01*
G01X16564Y32531D02*
G01X15929Y32531D01*
G01X15929Y31668D01*
G01X16462Y31668D01*
G01X16564Y31668D01*
G01X16945Y31668D02*
G01X17555Y31668D01*
G01X17555Y32531D01*
G01X17021Y32531D01*
G01X16945Y32531D01*
G01X23564Y32531D02*
G01X22929Y32531D01*
G01X22929Y31668D01*
G01X23462Y31668D01*
G01X23564Y31668D01*
G01X23945Y31668D02*
G01X24555Y31668D01*
G01X24555Y32531D01*
G01X24021Y32531D01*
G01X23945Y32531D01*
G01X79264Y32531D02*
G01X78629Y32531D01*
G01X78629Y31668D01*
G01X79162Y31668D01*
G01X79264Y31668D01*
G01X79645Y31668D02*
G01X80255Y31668D01*
G01X80255Y32531D01*
G01X79721Y32531D01*
G01X79645Y32531D01*
G01X30564Y32531D02*
G01X29929Y32531D01*
G01X29929Y31668D01*
G01X30462Y31668D01*
G01X30564Y31668D01*
G01X30945Y31668D02*
G01X31555Y31668D01*
G01X31555Y32531D01*
G01X31021Y32531D01*
G01X30945Y32531D01*
G01X37464Y13631D02*
G01X36829Y13631D01*
G01X36829Y12768D01*
G01X37362Y12768D01*
G01X37464Y12768D01*
G01X37845Y12768D02*
G01X38455Y12768D01*
G01X38455Y13631D01*
G01X37921Y13631D01*
G01X37845Y13631D01*
G01X37464Y32531D02*
G01X36829Y32531D01*
G01X36829Y31668D01*
G01X37362Y31668D01*
G01X37464Y31668D01*
G01X37845Y31668D02*
G01X38455Y31668D01*
G01X38455Y32531D01*
G01X37921Y32531D01*
G01X37845Y32531D01*
G01X72264Y32531D02*
G01X71629Y32531D01*
G01X71629Y31668D01*
G01X72162Y31668D01*
G01X72264Y31668D01*
G01X72645Y31668D02*
G01X73255Y31668D01*
G01X73255Y32531D01*
G01X72721Y32531D01*
G01X72645Y32531D01*
G01X44464Y32531D02*
G01X43829Y32531D01*
G01X43829Y31668D01*
G01X44362Y31668D01*
G01X44464Y31668D01*
G01X44845Y31668D02*
G01X45455Y31668D01*
G01X45455Y32531D01*
G01X44921Y32531D01*
G01X44845Y32531D01*
G01X16564Y4131D02*
G01X15929Y4131D01*
G01X15929Y3268D01*
G01X16462Y3268D01*
G01X16564Y3268D01*
G01X16945Y3268D02*
G01X17555Y3268D01*
G01X17555Y4131D01*
G01X17021Y4131D01*
G01X16945Y4131D01*
G01X51464Y32531D02*
G01X50829Y32531D01*
G01X50829Y31668D01*
G01X51362Y31668D01*
G01X51464Y31668D01*
G01X51845Y31668D02*
G01X52455Y31668D01*
G01X52455Y32531D01*
G01X51921Y32531D01*
G01X51845Y32531D01*
G01X65364Y32531D02*
G01X64729Y32531D01*
G01X64729Y31668D01*
G01X65262Y31668D01*
G01X65364Y31668D01*
G01X65745Y31668D02*
G01X66355Y31668D01*
G01X66355Y32531D01*
G01X65821Y32531D01*
G01X65745Y32531D01*
G01X58464Y32531D02*
G01X57829Y32531D01*
G01X57829Y31668D01*
G01X58362Y31668D01*
G01X58464Y31668D01*
G01X58845Y31668D02*
G01X59455Y31668D01*
G01X59455Y32531D01*
G01X58921Y32531D01*
G01X58845Y32531D01*
G01X30564Y13631D02*
G01X29929Y13631D01*
G01X29929Y12768D01*
G01X30462Y12768D01*
G01X30564Y12768D01*
G01X30945Y12768D02*
G01X31555Y12768D01*
G01X31555Y13631D01*
G01X31021Y13631D01*
G01X30945Y13631D01*
G01X61264Y32531D02*
G01X60629Y32531D01*
G01X60629Y31668D01*
G01X61162Y31668D01*
G01X61264Y31668D01*
G01X61645Y31668D02*
G01X62255Y31668D01*
G01X62255Y32531D01*
G01X61721Y32531D01*
G01X61645Y32531D01*
G01X68364Y32531D02*
G01X67729Y32531D01*
G01X67729Y31668D01*
G01X68262Y31668D01*
G01X68364Y31668D01*
G01X68745Y31668D02*
G01X69355Y31668D01*
G01X69355Y32531D01*
G01X68821Y32531D01*
G01X68745Y32531D01*
G01X47364Y32531D02*
G01X46729Y32531D01*
G01X46729Y31668D01*
G01X47262Y31668D01*
G01X47364Y31668D01*
G01X47745Y31668D02*
G01X48355Y31668D01*
G01X48355Y32531D01*
G01X47821Y32531D01*
G01X47745Y32531D01*
G01X40464Y32531D02*
G01X39829Y32531D01*
G01X39829Y31668D01*
G01X40362Y31668D01*
G01X40464Y31668D01*
G01X40845Y31668D02*
G01X41455Y31668D01*
G01X41455Y32531D01*
G01X40921Y32531D01*
G01X40845Y32531D01*
G01X75364Y32531D02*
G01X74729Y32531D01*
G01X74729Y31668D01*
G01X75262Y31668D01*
G01X75364Y31668D01*
G01X75745Y31668D02*
G01X76355Y31668D01*
G01X76355Y32531D01*
G01X75821Y32531D01*
G01X75745Y32531D01*
G01X33564Y32531D02*
G01X32929Y32531D01*
G01X32929Y31668D01*
G01X33462Y31668D01*
G01X33564Y31668D01*
G01X33945Y31668D02*
G01X34555Y31668D01*
G01X34555Y32531D01*
G01X34021Y32531D01*
G01X33945Y32531D01*
G01X26564Y32531D02*
G01X25929Y32531D01*
G01X25929Y31668D01*
G01X26462Y31668D01*
G01X26564Y31668D01*
G01X26945Y31668D02*
G01X27555Y31668D01*
G01X27555Y32531D01*
G01X27021Y32531D01*
G01X26945Y32531D01*
G01X82164Y32531D02*
G01X81529Y32531D01*
G01X81529Y31668D01*
G01X82062Y31668D01*
G01X82164Y31668D01*
G01X82545Y31668D02*
G01X83155Y31668D01*
G01X83155Y32531D01*
G01X82621Y32531D01*
G01X82545Y32531D01*
G01X19564Y32531D02*
G01X18929Y32531D01*
G01X18929Y31668D01*
G01X19462Y31668D01*
G01X19564Y31668D01*
G01X19945Y31668D02*
G01X20555Y31668D01*
G01X20555Y32531D01*
G01X20021Y32531D01*
G01X19945Y32531D01*
G01X12664Y32531D02*
G01X12029Y32531D01*
G01X12029Y31668D01*
G01X12562Y31668D01*
G01X12664Y31668D01*
G01X13045Y31668D02*
G01X13655Y31668D01*
G01X13655Y32531D01*
G01X13121Y32531D01*
G01X13045Y32531D01*
G01X89164Y32531D02*
G01X88529Y32531D01*
G01X88529Y31668D01*
G01X89062Y31668D01*
G01X89164Y31668D01*
G01X89545Y31668D02*
G01X90155Y31668D01*
G01X90155Y32531D01*
G01X89621Y32531D01*
G01X89545Y32531D01*
G01X96164Y32531D02*
G01X95529Y32531D01*
G01X95529Y31668D01*
G01X96062Y31668D01*
G01X96164Y31668D01*
G01X96545Y31668D02*
G01X97155Y31668D01*
G01X97155Y32531D01*
G01X96621Y32531D01*
G01X96545Y32531D01*
G01X5664Y23031D02*
G01X5029Y23031D01*
G01X5029Y22168D01*
G01X5562Y22168D01*
G01X5664Y22168D01*
G01X6045Y22168D02*
G01X6655Y22168D01*
G01X6655Y23031D01*
G01X6121Y23031D01*
G01X6045Y23031D01*
G01X12664Y23031D02*
G01X12029Y23031D01*
G01X12029Y22168D01*
G01X12562Y22168D01*
G01X12664Y22168D01*
G01X13045Y22168D02*
G01X13655Y22168D01*
G01X13655Y23031D01*
G01X13121Y23031D01*
G01X13045Y23031D01*
G01X19564Y23031D02*
G01X18929Y23031D01*
G01X18929Y22168D01*
G01X19462Y22168D01*
G01X19564Y22168D01*
G01X19945Y22168D02*
G01X20555Y22168D01*
G01X20555Y23031D01*
G01X20021Y23031D01*
G01X19945Y23031D01*
G01X26564Y23031D02*
G01X25929Y23031D01*
G01X25929Y22168D01*
G01X26462Y22168D01*
G01X26564Y22168D01*
G01X26945Y22168D02*
G01X27555Y22168D01*
G01X27555Y23031D01*
G01X27021Y23031D01*
G01X26945Y23031D01*
G01X33564Y23031D02*
G01X32929Y23031D01*
G01X32929Y22168D01*
G01X33462Y22168D01*
G01X33564Y22168D01*
G01X33945Y22168D02*
G01X34555Y22168D01*
G01X34555Y23031D01*
G01X34021Y23031D01*
G01X33945Y23031D01*
G01X40464Y23031D02*
G01X39829Y23031D01*
G01X39829Y22168D01*
G01X40362Y22168D01*
G01X40464Y22168D01*
G01X40845Y22168D02*
G01X41455Y22168D01*
G01X41455Y23031D01*
G01X40921Y23031D01*
G01X40845Y23031D01*
G01X47364Y23031D02*
G01X46729Y23031D01*
G01X46729Y22168D01*
G01X47262Y22168D01*
G01X47364Y22168D01*
G01X47745Y22168D02*
G01X48355Y22168D01*
G01X48355Y23031D01*
G01X47821Y23031D01*
G01X47745Y23031D01*
G01X54264Y23031D02*
G01X53629Y23031D01*
G01X53629Y22168D01*
G01X54162Y22168D01*
G01X54264Y22168D01*
G01X54645Y22168D02*
G01X55255Y22168D01*
G01X55255Y23031D01*
G01X54721Y23031D01*
G01X54645Y23031D01*
G01X61264Y23031D02*
G01X60629Y23031D01*
G01X60629Y22168D01*
G01X61162Y22168D01*
G01X61264Y22168D01*
G01X61645Y22168D02*
G01X62255Y22168D01*
G01X62255Y23031D01*
G01X61721Y23031D01*
G01X61645Y23031D01*
G01X68364Y23031D02*
G01X67729Y23031D01*
G01X67729Y22168D01*
G01X68262Y22168D01*
G01X68364Y22168D01*
G01X68745Y22168D02*
G01X69355Y22168D01*
G01X69355Y23031D01*
G01X68821Y23031D01*
G01X68745Y23031D01*
G01X75364Y23031D02*
G01X74729Y23031D01*
G01X74729Y22168D01*
G01X75262Y22168D01*
G01X75364Y22168D01*
G01X75745Y22168D02*
G01X76355Y22168D01*
G01X76355Y23031D01*
G01X75821Y23031D01*
G01X75745Y23031D01*
G01X82164Y23031D02*
G01X81529Y23031D01*
G01X81529Y22168D01*
G01X82062Y22168D01*
G01X82164Y22168D01*
G01X82545Y22168D02*
G01X83155Y22168D01*
G01X83155Y23031D01*
G01X82621Y23031D01*
G01X82545Y23031D01*
G01X89164Y23031D02*
G01X88529Y23031D01*
G01X88529Y22168D01*
G01X89062Y22168D01*
G01X89164Y22168D01*
G01X89545Y22168D02*
G01X90155Y22168D01*
G01X90155Y23031D01*
G01X89621Y23031D01*
G01X89545Y23031D01*
G01X96164Y23031D02*
G01X95529Y23031D01*
G01X95529Y22168D01*
G01X96062Y22168D01*
G01X96164Y22168D01*
G01X96545Y22168D02*
G01X97155Y22168D01*
G01X97155Y23031D01*
G01X96621Y23031D01*
G01X96545Y23031D01*
G01X5664Y13631D02*
G01X5029Y13631D01*
G01X5029Y12768D01*
G01X5562Y12768D01*
G01X5664Y12768D01*
G01X6045Y12768D02*
G01X6655Y12768D01*
G01X6655Y13631D01*
G01X6121Y13631D01*
G01X6045Y13631D01*
G01X12664Y13631D02*
G01X12029Y13631D01*
G01X12029Y12768D01*
G01X12562Y12768D01*
G01X12664Y12768D01*
G01X13045Y12768D02*
G01X13655Y12768D01*
G01X13655Y13631D01*
G01X13121Y13631D01*
G01X13045Y13631D01*
G01X19564Y13631D02*
G01X18929Y13631D01*
G01X18929Y12768D01*
G01X19462Y12768D01*
G01X19564Y12768D01*
G01X19945Y12768D02*
G01X20555Y12768D01*
G01X20555Y13631D01*
G01X20021Y13631D01*
G01X19945Y13631D01*
G01X26564Y13631D02*
G01X25929Y13631D01*
G01X25929Y12768D01*
G01X26462Y12768D01*
G01X26564Y12768D01*
G01X26945Y12768D02*
G01X27555Y12768D01*
G01X27555Y13631D01*
G01X27021Y13631D01*
G01X26945Y13631D01*
G01X54264Y32531D02*
G01X53629Y32531D01*
G01X53629Y31668D01*
G01X54162Y31668D01*
G01X54264Y31668D01*
G01X54645Y31668D02*
G01X55255Y31668D01*
G01X55255Y32531D01*
G01X54721Y32531D01*
G01X54645Y32531D01*
G01X33564Y13631D02*
G01X32929Y13631D01*
G01X32929Y12768D01*
G01X33462Y12768D01*
G01X33564Y12768D01*
G01X33945Y12768D02*
G01X34555Y12768D01*
G01X34555Y13631D01*
G01X34021Y13631D01*
G01X33945Y13631D01*
G01X40464Y13631D02*
G01X39829Y13631D01*
G01X39829Y12768D01*
G01X40362Y12768D01*
G01X40464Y12768D01*
G01X40845Y12768D02*
G01X41455Y12768D01*
G01X41455Y13631D01*
G01X40921Y13631D01*
G01X40845Y13631D01*
G01X47364Y13631D02*
G01X46729Y13631D01*
G01X46729Y12768D01*
G01X47262Y12768D01*
G01X47364Y12768D01*
G01X47745Y12768D02*
G01X48355Y12768D01*
G01X48355Y13631D01*
G01X47821Y13631D01*
G01X47745Y13631D01*
G01X54264Y13631D02*
G01X53629Y13631D01*
G01X53629Y12768D01*
G01X54162Y12768D01*
G01X54264Y12768D01*
G01X54645Y12768D02*
G01X55255Y12768D01*
G01X55255Y13631D01*
G01X54721Y13631D01*
G01X54645Y13631D01*
G01X61264Y13631D02*
G01X60629Y13631D01*
G01X60629Y12768D01*
G01X61162Y12768D01*
G01X61264Y12768D01*
G01X61645Y12768D02*
G01X62255Y12768D01*
G01X62255Y13631D01*
G01X61721Y13631D01*
G01X61645Y13631D01*
G01X68364Y13631D02*
G01X67729Y13631D01*
G01X67729Y12768D01*
G01X68262Y12768D01*
G01X68364Y12768D01*
G01X68745Y12768D02*
G01X69355Y12768D01*
G01X69355Y13631D01*
G01X68821Y13631D01*
G01X68745Y13631D01*
G01X75364Y13631D02*
G01X74729Y13631D01*
G01X74729Y12768D01*
G01X75262Y12768D01*
G01X75364Y12768D01*
G01X75745Y12768D02*
G01X76355Y12768D01*
G01X76355Y13631D01*
G01X75821Y13631D01*
G01X75745Y13631D01*
G01X82164Y13631D02*
G01X81529Y13631D01*
G01X81529Y12768D01*
G01X82062Y12768D01*
G01X82164Y12768D01*
G01X82545Y12768D02*
G01X83155Y12768D01*
G01X83155Y13631D01*
G01X82621Y13631D01*
G01X82545Y13631D01*
G01X89164Y13631D02*
G01X88529Y13631D01*
G01X88529Y12768D01*
G01X89062Y12768D01*
G01X89164Y12768D01*
G01X89545Y12768D02*
G01X90155Y12768D01*
G01X90155Y13631D01*
G01X89621Y13631D01*
G01X89545Y13631D01*
G01X96164Y13631D02*
G01X95529Y13631D01*
G01X95529Y12768D01*
G01X96062Y12768D01*
G01X96164Y12768D01*
G01X96545Y12768D02*
G01X97155Y12768D01*
G01X97155Y13631D01*
G01X96621Y13631D01*
G01X96545Y13631D01*
G01X5664Y4131D02*
G01X5029Y4131D01*
G01X5029Y3268D01*
G01X5562Y3268D01*
G01X5664Y3268D01*
G01X6045Y3268D02*
G01X6655Y3268D01*
G01X6655Y4131D01*
G01X6121Y4131D01*
G01X6045Y4131D01*
G01X12664Y4131D02*
G01X12029Y4131D01*
G01X12029Y3268D01*
G01X12562Y3268D01*
G01X12664Y3268D01*
G01X13045Y3268D02*
G01X13655Y3268D01*
G01X13655Y4131D01*
G01X13121Y4131D01*
G01X13045Y4131D01*
G01X19564Y4131D02*
G01X18929Y4131D01*
G01X18929Y3268D01*
G01X19462Y3268D01*
G01X19564Y3268D01*
G01X19945Y3268D02*
G01X20555Y3268D01*
G01X20555Y4131D01*
G01X20021Y4131D01*
G01X19945Y4131D01*
G01X26564Y4131D02*
G01X25929Y4131D01*
G01X25929Y3268D01*
G01X26462Y3268D01*
G01X26564Y3268D01*
G01X26945Y3268D02*
G01X27555Y3268D01*
G01X27555Y4131D01*
G01X27021Y4131D01*
G01X26945Y4131D01*
G01X33564Y4131D02*
G01X32929Y4131D01*
G01X32929Y3268D01*
G01X33462Y3268D01*
G01X33564Y3268D01*
G01X33945Y3268D02*
G01X34555Y3268D01*
G01X34555Y4131D01*
G01X34021Y4131D01*
G01X33945Y4131D01*
G01X40464Y4131D02*
G01X39829Y4131D01*
G01X39829Y3268D01*
G01X40362Y3268D01*
G01X40464Y3268D01*
G01X40845Y3268D02*
G01X41455Y3268D01*
G01X41455Y4131D01*
G01X40921Y4131D01*
G01X40845Y4131D01*
G01X47364Y4131D02*
G01X46729Y4131D01*
G01X46729Y3268D01*
G01X47262Y3268D01*
G01X47364Y3268D01*
G01X47745Y3268D02*
G01X48355Y3268D01*
G01X48355Y4131D01*
G01X47821Y4131D01*
G01X47745Y4131D01*
G01X54264Y4131D02*
G01X53629Y4131D01*
G01X53629Y3268D01*
G01X54162Y3268D01*
G01X54264Y3268D01*
G01X54645Y3268D02*
G01X55255Y3268D01*
G01X55255Y4131D01*
G01X54721Y4131D01*
G01X54645Y4131D01*
G01X61264Y4131D02*
G01X60629Y4131D01*
G01X60629Y3268D01*
G01X61162Y3268D01*
G01X61264Y3268D01*
G01X61645Y3268D02*
G01X62255Y3268D01*
G01X62255Y4131D01*
G01X61721Y4131D01*
G01X61645Y4131D01*
G01X68364Y4131D02*
G01X67729Y4131D01*
G01X67729Y3268D01*
G01X68262Y3268D01*
G01X68364Y3268D01*
G01X68745Y3268D02*
G01X69355Y3268D01*
G01X69355Y4131D01*
G01X68821Y4131D01*
G01X68745Y4131D01*
G01X75364Y4131D02*
G01X74729Y4131D01*
G01X74729Y3268D01*
G01X75262Y3268D01*
G01X75364Y3268D01*
G01X75745Y3268D02*
G01X76355Y3268D01*
G01X76355Y4131D01*
G01X75821Y4131D01*
G01X75745Y4131D01*
G01X82164Y4131D02*
G01X81529Y4131D01*
G01X81529Y3268D01*
G01X82062Y3268D01*
G01X82164Y3268D01*
G01X82545Y3268D02*
G01X83155Y3268D01*
G01X83155Y4131D01*
G01X82621Y4131D01*
G01X82545Y4131D01*
G01X89164Y4131D02*
G01X88529Y4131D01*
G01X88529Y3268D01*
G01X89062Y3268D01*
G01X89164Y3268D01*
G01X89545Y3268D02*
G01X90155Y3268D01*
G01X90155Y4131D01*
G01X89621Y4131D01*
G01X89545Y4131D01*
G01X96164Y4131D02*
G01X95529Y4131D01*
G01X95529Y3268D01*
G01X96062Y3268D01*
G01X96164Y3268D01*
G01X96545Y3268D02*
G01X97155Y3268D01*
G01X97155Y4131D01*
G01X96621Y4131D01*
G01X96545Y4131D01*
G54D10*
G01X15774Y81578D02*
G01X15774Y86578D01*
G01X20774Y86578D01*
G01X20774Y81578D01*
G01X15774Y81578D01*
G01X19523Y84327D02*
G01X17024Y84327D01*
G01X17523Y83827D01*
G01X19024Y83827D01*
G01X19523Y84327D01*
G01X15774Y82077D02*
G01X16273Y81578D01*
G75*
G01X5850Y93550D02*
G03X5850Y93550I-1500J0D01*
G01*
G75*
G01X96356Y93550D02*
G03X96356Y93550I-1500J0D01*
G01*
G75*
G01X89394Y93550D02*
G03X89394Y93550I-1500J0D01*
G01*
G75*
G01X82432Y93550D02*
G03X82432Y93550I-1500J0D01*
G01*
G75*
G01X75470Y93550D02*
G03X75470Y93550I-1500J0D01*
G01*
G75*
G01X68508Y93550D02*
G03X68508Y93550I-1500J0D01*
G01*
G75*
G01X61546Y93550D02*
G03X61546Y93550I-1500J0D01*
G01*
G75*
G01X54584Y93550D02*
G03X54584Y93550I-1500J0D01*
G01*
G75*
G01X19774Y93550D02*
G03X19774Y93550I-1500J0D01*
G01*
G75*
G01X12812Y93550D02*
G03X12812Y93550I-1500J0D01*
G01*
G75*
G01X47622Y93550D02*
G03X47622Y93550I-1500J0D01*
G01*
G75*
G01X26736Y93550D02*
G03X26736Y93550I-1500J0D01*
G01*
G75*
G01X40660Y93550D02*
G03X40660Y93550I-1500J0D01*
G01*
G75*
G01X33698Y93550D02*
G03X33698Y93550I-1500J0D01*
G01*
G75*
G01X5850Y84078D02*
G03X5850Y84078I-1500J0D01*
G01*
G75*
G01X89394Y84078D02*
G03X89394Y84078I-1500J0D01*
G01*
G75*
G01X82432Y84078D02*
G03X82432Y84078I-1500J0D01*
G01*
G75*
G01X75470Y84078D02*
G03X75470Y84078I-1500J0D01*
G01*
G75*
G01X68508Y84078D02*
G03X68508Y84078I-1500J0D01*
G01*
G75*
G01X96356Y84078D02*
G03X96356Y84078I-1500J0D01*
G01*
G75*
G01X61546Y84078D02*
G03X61546Y84078I-1500J0D01*
G01*
G75*
G01X54584Y84078D02*
G03X54584Y84078I-1500J0D01*
G01*
G75*
G01X47622Y84078D02*
G03X47622Y84078I-1500J0D01*
G01*
G75*
G01X40660Y84078D02*
G03X40660Y84078I-1500J0D01*
G01*
G75*
G01X26736Y84078D02*
G03X26736Y84078I-1500J0D01*
G01*
G75*
G01X33698Y84078D02*
G03X33698Y84078I-1500J0D01*
G01*
G75*
G01X12812Y84078D02*
G03X12812Y84078I-1500J0D01*
G01*
G75*
G01X33698Y65133D02*
G03X33698Y65133I-1500J0D01*
G01*
G75*
G01X89394Y65133D02*
G03X89394Y65133I-1500J0D01*
G01*
G75*
G01X82432Y65133D02*
G03X82432Y65133I-1500J0D01*
G01*
G75*
G01X75470Y65133D02*
G03X75470Y65133I-1500J0D01*
G01*
G75*
G01X68508Y65133D02*
G03X68508Y65133I-1500J0D01*
G01*
G75*
G01X61546Y65133D02*
G03X61546Y65133I-1500J0D01*
G01*
G75*
G01X54584Y65133D02*
G03X54584Y65133I-1500J0D01*
G01*
G75*
G01X47622Y65133D02*
G03X47622Y65133I-1500J0D01*
G01*
G75*
G01X40660Y65133D02*
G03X40660Y65133I-1500J0D01*
G01*
G75*
G01X96356Y65133D02*
G03X96356Y65133I-1500J0D01*
G01*
G75*
G01X26736Y65133D02*
G03X26736Y65133I-1500J0D01*
G01*
G75*
G01X19774Y65133D02*
G03X19774Y65133I-1500J0D01*
G01*
G75*
G01X12812Y65133D02*
G03X12812Y65133I-1500J0D01*
G01*
G75*
G01X5850Y65133D02*
G03X5850Y65133I-1500J0D01*
G01*
G75*
G01X96356Y74605D02*
G03X96356Y74605I-1500J0D01*
G01*
G75*
G01X5850Y74605D02*
G03X5850Y74605I-1500J0D01*
G01*
G75*
G01X12812Y74605D02*
G03X12812Y74605I-1500J0D01*
G01*
G75*
G01X19774Y74605D02*
G03X19774Y74605I-1500J0D01*
G01*
G75*
G01X89394Y74605D02*
G03X89394Y74605I-1500J0D01*
G01*
G75*
G01X26736Y74605D02*
G03X26736Y74605I-1500J0D01*
G01*
G75*
G01X33698Y74605D02*
G03X33698Y74605I-1500J0D01*
G01*
G75*
G01X82432Y74605D02*
G03X82432Y74605I-1500J0D01*
G01*
G75*
G01X40660Y74605D02*
G03X40660Y74605I-1500J0D01*
G01*
G75*
G01X47622Y74605D02*
G03X47622Y74605I-1500J0D01*
G01*
G75*
G01X75470Y74605D02*
G03X75470Y74605I-1500J0D01*
G01*
G75*
G01X54584Y74605D02*
G03X54584Y74605I-1500J0D01*
G01*
G75*
G01X61546Y74605D02*
G03X61546Y74605I-1500J0D01*
G01*
G75*
G01X68508Y74605D02*
G03X68508Y74605I-1500J0D01*
G01*
G75*
G01X5850Y36717D02*
G03X5850Y36717I-1500J0D01*
G01*
G75*
G01X96356Y46189D02*
G03X96356Y46189I-1500J0D01*
G01*
G75*
G01X89394Y46189D02*
G03X89394Y46189I-1500J0D01*
G01*
G75*
G01X82432Y46189D02*
G03X82432Y46189I-1500J0D01*
G01*
G75*
G01X75470Y46189D02*
G03X75470Y46189I-1500J0D01*
G01*
G75*
G01X68508Y46189D02*
G03X68508Y46189I-1500J0D01*
G01*
G75*
G01X61546Y46189D02*
G03X61546Y46189I-1500J0D01*
G01*
G75*
G01X54584Y46189D02*
G03X54584Y46189I-1500J0D01*
G01*
G75*
G01X47622Y46189D02*
G03X47622Y46189I-1500J0D01*
G01*
G75*
G01X40660Y46189D02*
G03X40660Y46189I-1500J0D01*
G01*
G75*
G01X33698Y46189D02*
G03X33698Y46189I-1500J0D01*
G01*
G75*
G01X26736Y46189D02*
G03X26736Y46189I-1500J0D01*
G01*
G75*
G01X19774Y46189D02*
G03X19774Y46189I-1500J0D01*
G01*
G75*
G01X12812Y46189D02*
G03X12812Y46189I-1500J0D01*
G01*
G75*
G01X5850Y46189D02*
G03X5850Y46189I-1500J0D01*
G01*
G75*
G01X96356Y55661D02*
G03X96356Y55661I-1500J0D01*
G01*
G75*
G01X89394Y55661D02*
G03X89394Y55661I-1500J0D01*
G01*
G75*
G01X82432Y55661D02*
G03X82432Y55661I-1500J0D01*
G01*
G75*
G01X75470Y55661D02*
G03X75470Y55661I-1500J0D01*
G01*
G75*
G01X68508Y55661D02*
G03X68508Y55661I-1500J0D01*
G01*
G75*
G01X61546Y55661D02*
G03X61546Y55661I-1500J0D01*
G01*
G75*
G01X54584Y55661D02*
G03X54584Y55661I-1500J0D01*
G01*
G75*
G01X47622Y55661D02*
G03X47622Y55661I-1500J0D01*
G01*
G75*
G01X40660Y55661D02*
G03X40660Y55661I-1500J0D01*
G01*
G75*
G01X33698Y55661D02*
G03X33698Y55661I-1500J0D01*
G01*
G75*
G01X26736Y55661D02*
G03X26736Y55661I-1500J0D01*
G01*
G75*
G01X19774Y55661D02*
G03X19774Y55661I-1500J0D01*
G01*
G75*
G01X12812Y55661D02*
G03X12812Y55661I-1500J0D01*
G01*
G75*
G01X5850Y55661D02*
G03X5850Y55661I-1500J0D01*
G01*
G75*
G01X33698Y17772D02*
G03X33698Y17772I-1500J0D01*
G01*
G75*
G01X89394Y8300D02*
G03X89394Y8300I-1500J0D01*
G01*
G75*
G01X82432Y8300D02*
G03X82432Y8300I-1500J0D01*
G01*
G75*
G01X75470Y8300D02*
G03X75470Y8300I-1500J0D01*
G01*
G75*
G01X68508Y8300D02*
G03X68508Y8300I-1500J0D01*
G01*
G75*
G01X61546Y8300D02*
G03X61546Y8300I-1500J0D01*
G01*
G75*
G01X54584Y8300D02*
G03X54584Y8300I-1500J0D01*
G01*
G75*
G01X47622Y8300D02*
G03X47622Y8300I-1500J0D01*
G01*
G75*
G01X40660Y8300D02*
G03X40660Y8300I-1500J0D01*
G01*
G75*
G01X33698Y8300D02*
G03X33698Y8300I-1500J0D01*
G01*
G75*
G01X26736Y8300D02*
G03X26736Y8300I-1500J0D01*
G01*
G75*
G01X19774Y8300D02*
G03X19774Y8300I-1500J0D01*
G01*
G75*
G01X12812Y8300D02*
G03X12812Y8300I-1500J0D01*
G01*
G75*
G01X5850Y8300D02*
G03X5850Y8300I-1500J0D01*
G01*
G75*
G01X96356Y17772D02*
G03X96356Y17772I-1500J0D01*
G01*
G75*
G01X89394Y17772D02*
G03X89394Y17772I-1500J0D01*
G01*
G75*
G01X82432Y17772D02*
G03X82432Y17772I-1500J0D01*
G01*
G75*
G01X75470Y17772D02*
G03X75470Y17772I-1500J0D01*
G01*
G75*
G01X68508Y17772D02*
G03X68508Y17772I-1500J0D01*
G01*
G75*
G01X61546Y17772D02*
G03X61546Y17772I-1500J0D01*
G01*
G75*
G01X54584Y17772D02*
G03X54584Y17772I-1500J0D01*
G01*
G75*
G01X47622Y17772D02*
G03X47622Y17772I-1500J0D01*
G01*
G75*
G01X40660Y17772D02*
G03X40660Y17772I-1500J0D01*
G01*
G75*
G01X96356Y8300D02*
G03X96356Y8300I-1500J0D01*
G01*
G75*
G01X26736Y17772D02*
G03X26736Y17772I-1500J0D01*
G01*
G75*
G01X19774Y17772D02*
G03X19774Y17772I-1500J0D01*
G01*
G75*
G01X12812Y17772D02*
G03X12812Y17772I-1500J0D01*
G01*
G75*
G01X5850Y17772D02*
G03X5850Y17772I-1500J0D01*
G01*
G75*
G01X96356Y27244D02*
G03X96356Y27244I-1500J0D01*
G01*
G75*
G01X89394Y27244D02*
G03X89394Y27244I-1500J0D01*
G01*
G75*
G01X82432Y27244D02*
G03X82432Y27244I-1500J0D01*
G01*
G75*
G01X75470Y27244D02*
G03X75470Y27244I-1500J0D01*
G01*
G75*
G01X68508Y27244D02*
G03X68508Y27244I-1500J0D01*
G01*
G75*
G01X61546Y27244D02*
G03X61546Y27244I-1500J0D01*
G01*
G75*
G01X54584Y27244D02*
G03X54584Y27244I-1500J0D01*
G01*
G75*
G01X47622Y27244D02*
G03X47622Y27244I-1500J0D01*
G01*
G75*
G01X40660Y27244D02*
G03X40660Y27244I-1500J0D01*
G01*
G75*
G01X33698Y27244D02*
G03X33698Y27244I-1500J0D01*
G01*
G75*
G01X26736Y27244D02*
G03X26736Y27244I-1500J0D01*
G01*
G75*
G01X19774Y27244D02*
G03X19774Y27244I-1500J0D01*
G01*
G75*
G01X12812Y27244D02*
G03X12812Y27244I-1500J0D01*
G01*
G75*
G01X5850Y27244D02*
G03X5850Y27244I-1500J0D01*
G01*
G75*
G01X96356Y36717D02*
G03X96356Y36717I-1500J0D01*
G01*
G75*
G01X12812Y36717D02*
G03X12812Y36717I-1500J0D01*
G01*
G75*
G01X19774Y36717D02*
G03X19774Y36717I-1500J0D01*
G01*
G75*
G01X89394Y36717D02*
G03X89394Y36717I-1500J0D01*
G01*
G75*
G01X26736Y36717D02*
G03X26736Y36717I-1500J0D01*
G01*
G75*
G01X33698Y36717D02*
G03X33698Y36717I-1500J0D01*
G01*
G75*
G01X82432Y36717D02*
G03X82432Y36717I-1500J0D01*
G01*
G75*
G01X40660Y36717D02*
G03X40660Y36717I-1500J0D01*
G01*
G75*
G01X47622Y36717D02*
G03X47622Y36717I-1500J0D01*
G01*
G75*
G01X75470Y36717D02*
G03X75470Y36717I-1500J0D01*
G01*
G75*
G01X54584Y36717D02*
G03X54584Y36717I-1500J0D01*
G01*
G75*
G01X61546Y36717D02*
G03X61546Y36717I-1500J0D01*
G01*
G75*
G01X68508Y36717D02*
G03X68508Y36717I-1500J0D01*
G01*
G75*
G01X19774Y84078D02*
G03X19774Y84078I-1500J0D01*
G01*
M00*
M02*
